G04 #@! TF.GenerationSoftware,KiCad,Pcbnew,(5.1.5-0-10_14)*
G04 #@! TF.CreationDate,2020-05-25T08:50:42-06:00*
G04 #@! TF.ProjectId,SHO,53484f2e-6b69-4636-9164-5f7063625858,rev?*
G04 #@! TF.SameCoordinates,Original*
G04 #@! TF.FileFunction,Legend,Top*
G04 #@! TF.FilePolarity,Positive*
%FSLAX46Y46*%
G04 Gerber Fmt 4.6, Leading zero omitted, Abs format (unit mm)*
G04 Created by KiCad (PCBNEW (5.1.5-0-10_14)) date 2020-05-25 08:50:42*
%MOMM*%
%LPD*%
G04 APERTURE LIST*
%ADD10C,0.150000*%
%ADD11C,0.010000*%
%ADD12C,0.120000*%
%ADD13C,0.125000*%
G04 APERTURE END LIST*
D10*
X201604571Y-118315523D02*
X201604571Y-117982190D01*
X202128380Y-117839333D02*
X202128380Y-118315523D01*
X201128380Y-118315523D01*
X201128380Y-117839333D01*
X202128380Y-117410761D02*
X201461714Y-117410761D01*
X201652190Y-117410761D02*
X201556952Y-117363142D01*
X201509333Y-117315523D01*
X201461714Y-117220285D01*
X201461714Y-117125047D01*
X202128380Y-116791714D02*
X201461714Y-116791714D01*
X201128380Y-116791714D02*
X201176000Y-116839333D01*
X201223619Y-116791714D01*
X201176000Y-116744095D01*
X201128380Y-116791714D01*
X201223619Y-116791714D01*
X202080761Y-115886952D02*
X202128380Y-115982190D01*
X202128380Y-116172666D01*
X202080761Y-116267904D01*
X202033142Y-116315523D01*
X201937904Y-116363142D01*
X201652190Y-116363142D01*
X201556952Y-116315523D01*
X201509333Y-116267904D01*
X201461714Y-116172666D01*
X201461714Y-115982190D01*
X201509333Y-115886952D01*
X201128380Y-115410761D02*
X201318857Y-115506000D01*
X202080761Y-115029809D02*
X202128380Y-114934571D01*
X202128380Y-114744095D01*
X202080761Y-114648857D01*
X201985523Y-114601238D01*
X201937904Y-114601238D01*
X201842666Y-114648857D01*
X201795047Y-114744095D01*
X201795047Y-114886952D01*
X201747428Y-114982190D01*
X201652190Y-115029809D01*
X201604571Y-115029809D01*
X201509333Y-114982190D01*
X201461714Y-114886952D01*
X201461714Y-114744095D01*
X201509333Y-114648857D01*
X201461714Y-113553619D02*
X201461714Y-113172666D01*
X202128380Y-113410761D02*
X201271238Y-113410761D01*
X201176000Y-113363142D01*
X201128380Y-113267904D01*
X201128380Y-113172666D01*
X202128380Y-112839333D02*
X201461714Y-112839333D01*
X201128380Y-112839333D02*
X201176000Y-112886952D01*
X201223619Y-112839333D01*
X201176000Y-112791714D01*
X201128380Y-112839333D01*
X201223619Y-112839333D01*
X202128380Y-112363142D02*
X201461714Y-112363142D01*
X201652190Y-112363142D02*
X201556952Y-112315523D01*
X201509333Y-112267904D01*
X201461714Y-112172666D01*
X201461714Y-112077428D01*
X202080761Y-111791714D02*
X202128380Y-111696476D01*
X202128380Y-111506000D01*
X202080761Y-111410761D01*
X201985523Y-111363142D01*
X201937904Y-111363142D01*
X201842666Y-111410761D01*
X201795047Y-111506000D01*
X201795047Y-111648857D01*
X201747428Y-111744095D01*
X201652190Y-111791714D01*
X201604571Y-111791714D01*
X201509333Y-111744095D01*
X201461714Y-111648857D01*
X201461714Y-111506000D01*
X201509333Y-111410761D01*
X201461714Y-111077428D02*
X201461714Y-110696476D01*
X201128380Y-110934571D02*
X201985523Y-110934571D01*
X202080761Y-110886952D01*
X202128380Y-110791714D01*
X202128380Y-110696476D01*
X202128380Y-109601238D02*
X201128380Y-109601238D01*
X201128380Y-109220285D01*
X201176000Y-109125047D01*
X201223619Y-109077428D01*
X201318857Y-109029809D01*
X201461714Y-109029809D01*
X201556952Y-109077428D01*
X201604571Y-109125047D01*
X201652190Y-109220285D01*
X201652190Y-109601238D01*
X202033142Y-108029809D02*
X202080761Y-108077428D01*
X202128380Y-108220285D01*
X202128380Y-108315523D01*
X202080761Y-108458380D01*
X201985523Y-108553619D01*
X201890285Y-108601238D01*
X201699809Y-108648857D01*
X201556952Y-108648857D01*
X201366476Y-108601238D01*
X201271238Y-108553619D01*
X201176000Y-108458380D01*
X201128380Y-108315523D01*
X201128380Y-108220285D01*
X201176000Y-108077428D01*
X201223619Y-108029809D01*
X201604571Y-107267904D02*
X201652190Y-107125047D01*
X201699809Y-107077428D01*
X201795047Y-107029809D01*
X201937904Y-107029809D01*
X202033142Y-107077428D01*
X202080761Y-107125047D01*
X202128380Y-107220285D01*
X202128380Y-107601238D01*
X201128380Y-107601238D01*
X201128380Y-107267904D01*
X201176000Y-107172666D01*
X201223619Y-107125047D01*
X201318857Y-107077428D01*
X201414095Y-107077428D01*
X201509333Y-107125047D01*
X201556952Y-107172666D01*
X201604571Y-107267904D01*
X201604571Y-107601238D01*
X202033142Y-105839333D02*
X202080761Y-105791714D01*
X202128380Y-105839333D01*
X202080761Y-105886952D01*
X202033142Y-105839333D01*
X202128380Y-105839333D01*
X201509333Y-105839333D02*
X201556952Y-105791714D01*
X201604571Y-105839333D01*
X201556952Y-105886952D01*
X201509333Y-105839333D01*
X201604571Y-105839333D01*
X201128380Y-105315523D02*
X201318857Y-105410761D01*
X202509333Y-104982190D02*
X202461714Y-104934571D01*
X202318857Y-104839333D01*
X202223619Y-104791714D01*
X202080761Y-104744095D01*
X201842666Y-104696476D01*
X201652190Y-104696476D01*
X201414095Y-104744095D01*
X201271238Y-104791714D01*
X201176000Y-104839333D01*
X201033142Y-104934571D01*
X200985523Y-104982190D01*
X163290571Y-118514761D02*
X163433428Y-118562380D01*
X163671523Y-118562380D01*
X163766761Y-118514761D01*
X163814380Y-118467142D01*
X163862000Y-118371904D01*
X163862000Y-118276666D01*
X163814380Y-118181428D01*
X163766761Y-118133809D01*
X163671523Y-118086190D01*
X163481047Y-118038571D01*
X163385809Y-117990952D01*
X163338190Y-117943333D01*
X163290571Y-117848095D01*
X163290571Y-117752857D01*
X163338190Y-117657619D01*
X163385809Y-117610000D01*
X163481047Y-117562380D01*
X163719142Y-117562380D01*
X163862000Y-117610000D01*
X164290571Y-118562380D02*
X164290571Y-117562380D01*
X164290571Y-118038571D02*
X164862000Y-118038571D01*
X164862000Y-118562380D02*
X164862000Y-117562380D01*
X165528666Y-117562380D02*
X165719142Y-117562380D01*
X165814380Y-117610000D01*
X165909619Y-117705238D01*
X165957238Y-117895714D01*
X165957238Y-118229047D01*
X165909619Y-118419523D01*
X165814380Y-118514761D01*
X165719142Y-118562380D01*
X165528666Y-118562380D01*
X165433428Y-118514761D01*
X165338190Y-118419523D01*
X165290571Y-118229047D01*
X165290571Y-117895714D01*
X165338190Y-117705238D01*
X165433428Y-117610000D01*
X165528666Y-117562380D01*
X167052476Y-117895714D02*
X167290571Y-118562380D01*
X167528666Y-117895714D01*
X168433428Y-118562380D02*
X167862000Y-118562380D01*
X168147714Y-118562380D02*
X168147714Y-117562380D01*
X168052476Y-117705238D01*
X167957238Y-117800476D01*
X167862000Y-117848095D01*
D11*
G36*
X157141334Y-103759000D02*
G01*
X157099000Y-103801334D01*
X157056667Y-103759000D01*
X157099000Y-103716667D01*
X157141334Y-103759000D01*
G37*
X157141334Y-103759000D02*
X157099000Y-103801334D01*
X157056667Y-103759000D01*
X157099000Y-103716667D01*
X157141334Y-103759000D01*
G36*
X156570944Y-101437707D02*
G01*
X156870204Y-101495017D01*
X157208910Y-101576059D01*
X157546115Y-101672636D01*
X157649334Y-101706265D01*
X157973320Y-101884208D01*
X158282977Y-102169023D01*
X158521768Y-102503594D01*
X158592450Y-102659039D01*
X158717090Y-102877758D01*
X158881009Y-103025422D01*
X158891675Y-103030614D01*
X159163794Y-103245230D01*
X159339975Y-103591371D01*
X159415244Y-104057732D01*
X159417314Y-104224667D01*
X159442799Y-104683790D01*
X159530064Y-105054037D01*
X159547292Y-105096597D01*
X159630336Y-105310256D01*
X159635842Y-105450453D01*
X159559242Y-105596532D01*
X159514848Y-105660000D01*
X159399356Y-105837637D01*
X159343596Y-105953743D01*
X159342667Y-105961220D01*
X159293401Y-106058533D01*
X159171164Y-106234097D01*
X159014298Y-106438557D01*
X158861145Y-106622557D01*
X158750048Y-106736743D01*
X158729463Y-106750556D01*
X158662864Y-106842337D01*
X158721936Y-107009505D01*
X158910902Y-107258821D01*
X159233986Y-107597047D01*
X159296179Y-107657708D01*
X159568005Y-107936833D01*
X159793093Y-108197778D01*
X159941736Y-108404451D01*
X159983251Y-108492440D01*
X160078326Y-108690387D01*
X160189334Y-108796667D01*
X160324770Y-108937048D01*
X160392874Y-109090767D01*
X160456447Y-109250255D01*
X160516755Y-109304667D01*
X160603259Y-109385868D01*
X160709530Y-109619044D01*
X160831275Y-109988557D01*
X160964200Y-110478767D01*
X161104011Y-111074034D01*
X161246413Y-111758719D01*
X161366067Y-112398096D01*
X161441898Y-112723140D01*
X161518149Y-112888802D01*
X161586185Y-112904789D01*
X161637366Y-112780811D01*
X161663056Y-112526574D01*
X161654618Y-112151789D01*
X161653326Y-112133945D01*
X162905351Y-112133945D01*
X162920918Y-112243759D01*
X162949820Y-112245070D01*
X162970031Y-112131753D01*
X162956504Y-112082792D01*
X162918909Y-112050722D01*
X162905351Y-112133945D01*
X161653326Y-112133945D01*
X161649394Y-112079640D01*
X161604466Y-111510279D01*
X161945272Y-111169473D01*
X162201716Y-110935053D01*
X162367337Y-110839024D01*
X162448025Y-110880777D01*
X162449670Y-111059703D01*
X162439825Y-111118398D01*
X162430543Y-111356887D01*
X162501456Y-111476096D01*
X162636513Y-111456839D01*
X162690709Y-111418255D01*
X162775480Y-111373563D01*
X162809443Y-111452004D01*
X162814000Y-111582957D01*
X162852876Y-111798687D01*
X162941000Y-111898716D01*
X163036007Y-112006259D01*
X163065465Y-112176696D01*
X163024619Y-112327013D01*
X162968101Y-112371855D01*
X162909106Y-112465728D01*
X162925170Y-112553611D01*
X163008824Y-112652852D01*
X163067402Y-112649370D01*
X163145740Y-112657984D01*
X163152667Y-112690741D01*
X163081214Y-112780905D01*
X162908309Y-112869927D01*
X162898767Y-112873319D01*
X162723955Y-112969045D01*
X162711576Y-113057432D01*
X162856057Y-113109998D01*
X162945997Y-113114667D01*
X163102705Y-113144286D01*
X163152667Y-113199334D01*
X163088238Y-113281540D01*
X163068000Y-113284000D01*
X162991717Y-113352058D01*
X162983334Y-113403945D01*
X162940696Y-113530448D01*
X162911829Y-113552111D01*
X162847383Y-113650762D01*
X162800043Y-113843289D01*
X162779191Y-114057281D01*
X162794213Y-114220330D01*
X162819913Y-114261321D01*
X162838803Y-114355657D01*
X162746255Y-114514268D01*
X162571264Y-114706814D01*
X162342826Y-114902953D01*
X162089934Y-115072344D01*
X161998397Y-115120980D01*
X161722350Y-115282328D01*
X161539844Y-115441755D01*
X161493762Y-115519459D01*
X161423870Y-115675944D01*
X161289123Y-115923885D01*
X161117100Y-116212859D01*
X161095616Y-116247334D01*
X160918383Y-116544004D01*
X160817760Y-116773645D01*
X160778624Y-117002131D01*
X160785850Y-117295338D01*
X160804705Y-117514438D01*
X160750738Y-117716730D01*
X160572031Y-117857050D01*
X160307451Y-117917087D01*
X160018417Y-117884832D01*
X159733543Y-117831380D01*
X159581604Y-117865211D01*
X159547093Y-117992133D01*
X159559175Y-118056812D01*
X159560158Y-118368889D01*
X159396531Y-118641706D01*
X159068217Y-118875378D01*
X158983580Y-118917056D01*
X158582925Y-119073610D01*
X158276084Y-119116154D01*
X158031061Y-119044016D01*
X157848551Y-118893167D01*
X157728713Y-118747038D01*
X157672131Y-118604254D01*
X157665879Y-118404548D01*
X157689657Y-118152334D01*
X157737153Y-117857641D01*
X157771783Y-117729000D01*
X159935334Y-117729000D01*
X159977667Y-117771334D01*
X160020000Y-117729000D01*
X159977667Y-117686667D01*
X159935334Y-117729000D01*
X157771783Y-117729000D01*
X157800920Y-117620768D01*
X157851026Y-117517334D01*
X157961756Y-117343417D01*
X158071372Y-117116042D01*
X158144920Y-116912570D01*
X158157334Y-116839415D01*
X158083741Y-116771787D01*
X157898149Y-116691503D01*
X157797500Y-116659778D01*
X157543767Y-116561292D01*
X157348032Y-116439898D01*
X157310667Y-116402882D01*
X157154469Y-116296584D01*
X156884869Y-116242018D01*
X156718000Y-116231617D01*
X156230320Y-116226913D01*
X155866560Y-116250664D01*
X155640570Y-116300945D01*
X155566200Y-116375835D01*
X155569696Y-116391043D01*
X155567972Y-116489690D01*
X155540593Y-116501334D01*
X155474003Y-116573986D01*
X155421507Y-116734167D01*
X155331516Y-117005364D01*
X155171287Y-117182580D01*
X154904104Y-117294819D01*
X154643667Y-117348651D01*
X154232496Y-117411004D01*
X153955199Y-117433187D01*
X153779478Y-117407609D01*
X153673037Y-117326679D01*
X153603578Y-117182807D01*
X153576480Y-117097838D01*
X153521428Y-116861635D01*
X153542052Y-116697347D01*
X153636582Y-116536306D01*
X153778906Y-116327571D01*
X153884972Y-116160498D01*
X154012561Y-115969347D01*
X154074379Y-115889173D01*
X154112917Y-115767459D01*
X154154041Y-115514671D01*
X154194221Y-115168956D01*
X154229924Y-114768465D01*
X154257621Y-114351345D01*
X154273782Y-113955744D01*
X154276304Y-113707334D01*
X154251999Y-113119315D01*
X154192667Y-112507052D01*
X154105841Y-111926450D01*
X153999051Y-111433413D01*
X153945493Y-111252000D01*
X153790022Y-110648762D01*
X153701007Y-110006595D01*
X153683119Y-109385540D01*
X153741027Y-108845640D01*
X153753782Y-108787044D01*
X153895254Y-108286684D01*
X154037137Y-107915827D01*
X154877650Y-107915827D01*
X154888608Y-107999258D01*
X154934190Y-108157227D01*
X154940000Y-108205814D01*
X155014810Y-108260339D01*
X155200301Y-108304484D01*
X155257500Y-108311657D01*
X155474081Y-108336014D01*
X155606336Y-108354055D01*
X155617334Y-108356344D01*
X155676068Y-108295213D01*
X155720400Y-108217216D01*
X155900220Y-108217216D01*
X155912835Y-108331742D01*
X155960231Y-108375948D01*
X156053356Y-108411182D01*
X156178897Y-108398995D01*
X156376039Y-108329387D01*
X156683971Y-108192358D01*
X156689268Y-108189908D01*
X156957745Y-108039495D01*
X157088853Y-107883959D01*
X157111364Y-107685447D01*
X157106014Y-107641613D01*
X157041238Y-107523872D01*
X156927948Y-107454017D01*
X156829260Y-107457709D01*
X156802667Y-107518284D01*
X156739590Y-107616600D01*
X156590407Y-107718874D01*
X156415187Y-107796519D01*
X156274001Y-107820946D01*
X156227842Y-107791858D01*
X156158130Y-107699882D01*
X156068352Y-107772577D01*
X155963750Y-108002781D01*
X155900220Y-108217216D01*
X155720400Y-108217216D01*
X155770708Y-108128708D01*
X155802241Y-108063845D01*
X155944815Y-107759871D01*
X155614552Y-107804169D01*
X155393454Y-107814907D01*
X155302764Y-107775216D01*
X155302645Y-107761650D01*
X155254876Y-107657995D01*
X155215167Y-107636028D01*
X155124515Y-107667878D01*
X155109334Y-107731278D01*
X155041015Y-107847419D01*
X154973275Y-107865334D01*
X154877650Y-107915827D01*
X154037137Y-107915827D01*
X154071234Y-107826705D01*
X154116467Y-107738334D01*
X154770667Y-107738334D01*
X154813000Y-107780667D01*
X154855334Y-107738334D01*
X154813000Y-107696000D01*
X154770667Y-107738334D01*
X154116467Y-107738334D01*
X154198261Y-107578537D01*
X154884437Y-107578537D01*
X154897667Y-107611334D01*
X154973749Y-107692104D01*
X154987330Y-107696000D01*
X155023696Y-107630494D01*
X155024667Y-107611334D01*
X154959579Y-107529920D01*
X154935003Y-107526667D01*
X154884437Y-107578537D01*
X154198261Y-107578537D01*
X154261730Y-107454541D01*
X154392132Y-107272667D01*
X154504602Y-107114149D01*
X154545925Y-106939030D01*
X154530831Y-106677453D01*
X154526019Y-106637667D01*
X154485030Y-106385668D01*
X154430194Y-106265062D01*
X154340337Y-106238063D01*
X154304488Y-106242384D01*
X153953894Y-106299311D01*
X153727581Y-106323772D01*
X153582485Y-106309179D01*
X153475543Y-106248944D01*
X153363692Y-106136479D01*
X153323405Y-106092297D01*
X153237612Y-105958582D01*
X155026388Y-105958582D01*
X155132427Y-105997086D01*
X155241330Y-106002667D01*
X155393724Y-105975025D01*
X155398243Y-105896834D01*
X155372855Y-105833351D01*
X155448035Y-105892686D01*
X155452513Y-105896834D01*
X155614542Y-105972204D01*
X155836213Y-106002667D01*
X156107969Y-106037356D01*
X156387035Y-106120946D01*
X156390780Y-106122512D01*
X156612833Y-106204491D01*
X156694298Y-106197327D01*
X156642909Y-106093566D01*
X156544825Y-105974119D01*
X156387494Y-105830989D01*
X156239757Y-105811935D01*
X156158361Y-105836872D01*
X156007699Y-105866008D01*
X155987316Y-105792531D01*
X156096743Y-105621427D01*
X156188834Y-105513213D01*
X156318838Y-105348987D01*
X156378861Y-105235429D01*
X156379334Y-105229917D01*
X156297658Y-105154837D01*
X156064239Y-105092416D01*
X155744334Y-105051591D01*
X155567639Y-105052761D01*
X155509457Y-105126911D01*
X155513635Y-105240667D01*
X155597897Y-105455302D01*
X155715291Y-105588113D01*
X155809241Y-105668464D01*
X155804724Y-105716367D01*
X155677153Y-105750390D01*
X155459156Y-105781529D01*
X155206956Y-105833339D01*
X155056965Y-105898179D01*
X155026388Y-105958582D01*
X153237612Y-105958582D01*
X153134048Y-105797172D01*
X153078920Y-105495879D01*
X153154556Y-105249813D01*
X153158150Y-105104312D01*
X153045309Y-104853811D01*
X152942467Y-104683748D01*
X152782501Y-104416021D01*
X152705062Y-104216120D01*
X152691497Y-104016087D01*
X152710271Y-103837759D01*
X152733179Y-103732350D01*
X154962890Y-103732350D01*
X154977663Y-103871285D01*
X155034845Y-104007533D01*
X155124924Y-104046744D01*
X155308596Y-104010892D01*
X155340144Y-104002498D01*
X155471280Y-103940515D01*
X155465044Y-103876189D01*
X156814093Y-103876189D01*
X156853068Y-104042150D01*
X156993167Y-104137060D01*
X157206768Y-104193007D01*
X157334072Y-104130524D01*
X157403319Y-103993872D01*
X157417172Y-103833516D01*
X157296913Y-103701507D01*
X157268071Y-103681947D01*
X157111354Y-103597113D01*
X157007047Y-103617349D01*
X156934500Y-103681596D01*
X156814093Y-103876189D01*
X155465044Y-103876189D01*
X155460283Y-103827094D01*
X155437530Y-103781770D01*
X155388595Y-103663802D01*
X155439134Y-103668854D01*
X155439553Y-103669113D01*
X155519265Y-103655905D01*
X155532667Y-103594664D01*
X155468838Y-103488282D01*
X155312520Y-103471217D01*
X155116463Y-103545730D01*
X155072806Y-103574951D01*
X154962890Y-103732350D01*
X152733179Y-103732350D01*
X152769447Y-103565470D01*
X152862042Y-103427314D01*
X152925852Y-103397864D01*
X153040547Y-103314902D01*
X153042446Y-103239873D01*
X153066990Y-103143854D01*
X153164657Y-103124000D01*
X153284458Y-103082104D01*
X153344119Y-102936196D01*
X153355738Y-102655941D01*
X153355482Y-102645588D01*
X153426716Y-102561976D01*
X153599734Y-102498820D01*
X153785636Y-102416454D01*
X154034243Y-102248370D01*
X154287423Y-102034812D01*
X154569122Y-101791714D01*
X154825523Y-101637033D01*
X155111771Y-101550378D01*
X155483011Y-101511358D01*
X155725080Y-101503182D01*
X155995925Y-101487119D01*
X156190248Y-101456149D01*
X156254558Y-101427068D01*
X156352079Y-101412325D01*
X156570944Y-101437707D01*
G37*
X156570944Y-101437707D02*
X156870204Y-101495017D01*
X157208910Y-101576059D01*
X157546115Y-101672636D01*
X157649334Y-101706265D01*
X157973320Y-101884208D01*
X158282977Y-102169023D01*
X158521768Y-102503594D01*
X158592450Y-102659039D01*
X158717090Y-102877758D01*
X158881009Y-103025422D01*
X158891675Y-103030614D01*
X159163794Y-103245230D01*
X159339975Y-103591371D01*
X159415244Y-104057732D01*
X159417314Y-104224667D01*
X159442799Y-104683790D01*
X159530064Y-105054037D01*
X159547292Y-105096597D01*
X159630336Y-105310256D01*
X159635842Y-105450453D01*
X159559242Y-105596532D01*
X159514848Y-105660000D01*
X159399356Y-105837637D01*
X159343596Y-105953743D01*
X159342667Y-105961220D01*
X159293401Y-106058533D01*
X159171164Y-106234097D01*
X159014298Y-106438557D01*
X158861145Y-106622557D01*
X158750048Y-106736743D01*
X158729463Y-106750556D01*
X158662864Y-106842337D01*
X158721936Y-107009505D01*
X158910902Y-107258821D01*
X159233986Y-107597047D01*
X159296179Y-107657708D01*
X159568005Y-107936833D01*
X159793093Y-108197778D01*
X159941736Y-108404451D01*
X159983251Y-108492440D01*
X160078326Y-108690387D01*
X160189334Y-108796667D01*
X160324770Y-108937048D01*
X160392874Y-109090767D01*
X160456447Y-109250255D01*
X160516755Y-109304667D01*
X160603259Y-109385868D01*
X160709530Y-109619044D01*
X160831275Y-109988557D01*
X160964200Y-110478767D01*
X161104011Y-111074034D01*
X161246413Y-111758719D01*
X161366067Y-112398096D01*
X161441898Y-112723140D01*
X161518149Y-112888802D01*
X161586185Y-112904789D01*
X161637366Y-112780811D01*
X161663056Y-112526574D01*
X161654618Y-112151789D01*
X161653326Y-112133945D01*
X162905351Y-112133945D01*
X162920918Y-112243759D01*
X162949820Y-112245070D01*
X162970031Y-112131753D01*
X162956504Y-112082792D01*
X162918909Y-112050722D01*
X162905351Y-112133945D01*
X161653326Y-112133945D01*
X161649394Y-112079640D01*
X161604466Y-111510279D01*
X161945272Y-111169473D01*
X162201716Y-110935053D01*
X162367337Y-110839024D01*
X162448025Y-110880777D01*
X162449670Y-111059703D01*
X162439825Y-111118398D01*
X162430543Y-111356887D01*
X162501456Y-111476096D01*
X162636513Y-111456839D01*
X162690709Y-111418255D01*
X162775480Y-111373563D01*
X162809443Y-111452004D01*
X162814000Y-111582957D01*
X162852876Y-111798687D01*
X162941000Y-111898716D01*
X163036007Y-112006259D01*
X163065465Y-112176696D01*
X163024619Y-112327013D01*
X162968101Y-112371855D01*
X162909106Y-112465728D01*
X162925170Y-112553611D01*
X163008824Y-112652852D01*
X163067402Y-112649370D01*
X163145740Y-112657984D01*
X163152667Y-112690741D01*
X163081214Y-112780905D01*
X162908309Y-112869927D01*
X162898767Y-112873319D01*
X162723955Y-112969045D01*
X162711576Y-113057432D01*
X162856057Y-113109998D01*
X162945997Y-113114667D01*
X163102705Y-113144286D01*
X163152667Y-113199334D01*
X163088238Y-113281540D01*
X163068000Y-113284000D01*
X162991717Y-113352058D01*
X162983334Y-113403945D01*
X162940696Y-113530448D01*
X162911829Y-113552111D01*
X162847383Y-113650762D01*
X162800043Y-113843289D01*
X162779191Y-114057281D01*
X162794213Y-114220330D01*
X162819913Y-114261321D01*
X162838803Y-114355657D01*
X162746255Y-114514268D01*
X162571264Y-114706814D01*
X162342826Y-114902953D01*
X162089934Y-115072344D01*
X161998397Y-115120980D01*
X161722350Y-115282328D01*
X161539844Y-115441755D01*
X161493762Y-115519459D01*
X161423870Y-115675944D01*
X161289123Y-115923885D01*
X161117100Y-116212859D01*
X161095616Y-116247334D01*
X160918383Y-116544004D01*
X160817760Y-116773645D01*
X160778624Y-117002131D01*
X160785850Y-117295338D01*
X160804705Y-117514438D01*
X160750738Y-117716730D01*
X160572031Y-117857050D01*
X160307451Y-117917087D01*
X160018417Y-117884832D01*
X159733543Y-117831380D01*
X159581604Y-117865211D01*
X159547093Y-117992133D01*
X159559175Y-118056812D01*
X159560158Y-118368889D01*
X159396531Y-118641706D01*
X159068217Y-118875378D01*
X158983580Y-118917056D01*
X158582925Y-119073610D01*
X158276084Y-119116154D01*
X158031061Y-119044016D01*
X157848551Y-118893167D01*
X157728713Y-118747038D01*
X157672131Y-118604254D01*
X157665879Y-118404548D01*
X157689657Y-118152334D01*
X157737153Y-117857641D01*
X157771783Y-117729000D01*
X159935334Y-117729000D01*
X159977667Y-117771334D01*
X160020000Y-117729000D01*
X159977667Y-117686667D01*
X159935334Y-117729000D01*
X157771783Y-117729000D01*
X157800920Y-117620768D01*
X157851026Y-117517334D01*
X157961756Y-117343417D01*
X158071372Y-117116042D01*
X158144920Y-116912570D01*
X158157334Y-116839415D01*
X158083741Y-116771787D01*
X157898149Y-116691503D01*
X157797500Y-116659778D01*
X157543767Y-116561292D01*
X157348032Y-116439898D01*
X157310667Y-116402882D01*
X157154469Y-116296584D01*
X156884869Y-116242018D01*
X156718000Y-116231617D01*
X156230320Y-116226913D01*
X155866560Y-116250664D01*
X155640570Y-116300945D01*
X155566200Y-116375835D01*
X155569696Y-116391043D01*
X155567972Y-116489690D01*
X155540593Y-116501334D01*
X155474003Y-116573986D01*
X155421507Y-116734167D01*
X155331516Y-117005364D01*
X155171287Y-117182580D01*
X154904104Y-117294819D01*
X154643667Y-117348651D01*
X154232496Y-117411004D01*
X153955199Y-117433187D01*
X153779478Y-117407609D01*
X153673037Y-117326679D01*
X153603578Y-117182807D01*
X153576480Y-117097838D01*
X153521428Y-116861635D01*
X153542052Y-116697347D01*
X153636582Y-116536306D01*
X153778906Y-116327571D01*
X153884972Y-116160498D01*
X154012561Y-115969347D01*
X154074379Y-115889173D01*
X154112917Y-115767459D01*
X154154041Y-115514671D01*
X154194221Y-115168956D01*
X154229924Y-114768465D01*
X154257621Y-114351345D01*
X154273782Y-113955744D01*
X154276304Y-113707334D01*
X154251999Y-113119315D01*
X154192667Y-112507052D01*
X154105841Y-111926450D01*
X153999051Y-111433413D01*
X153945493Y-111252000D01*
X153790022Y-110648762D01*
X153701007Y-110006595D01*
X153683119Y-109385540D01*
X153741027Y-108845640D01*
X153753782Y-108787044D01*
X153895254Y-108286684D01*
X154037137Y-107915827D01*
X154877650Y-107915827D01*
X154888608Y-107999258D01*
X154934190Y-108157227D01*
X154940000Y-108205814D01*
X155014810Y-108260339D01*
X155200301Y-108304484D01*
X155257500Y-108311657D01*
X155474081Y-108336014D01*
X155606336Y-108354055D01*
X155617334Y-108356344D01*
X155676068Y-108295213D01*
X155720400Y-108217216D01*
X155900220Y-108217216D01*
X155912835Y-108331742D01*
X155960231Y-108375948D01*
X156053356Y-108411182D01*
X156178897Y-108398995D01*
X156376039Y-108329387D01*
X156683971Y-108192358D01*
X156689268Y-108189908D01*
X156957745Y-108039495D01*
X157088853Y-107883959D01*
X157111364Y-107685447D01*
X157106014Y-107641613D01*
X157041238Y-107523872D01*
X156927948Y-107454017D01*
X156829260Y-107457709D01*
X156802667Y-107518284D01*
X156739590Y-107616600D01*
X156590407Y-107718874D01*
X156415187Y-107796519D01*
X156274001Y-107820946D01*
X156227842Y-107791858D01*
X156158130Y-107699882D01*
X156068352Y-107772577D01*
X155963750Y-108002781D01*
X155900220Y-108217216D01*
X155720400Y-108217216D01*
X155770708Y-108128708D01*
X155802241Y-108063845D01*
X155944815Y-107759871D01*
X155614552Y-107804169D01*
X155393454Y-107814907D01*
X155302764Y-107775216D01*
X155302645Y-107761650D01*
X155254876Y-107657995D01*
X155215167Y-107636028D01*
X155124515Y-107667878D01*
X155109334Y-107731278D01*
X155041015Y-107847419D01*
X154973275Y-107865334D01*
X154877650Y-107915827D01*
X154037137Y-107915827D01*
X154071234Y-107826705D01*
X154116467Y-107738334D01*
X154770667Y-107738334D01*
X154813000Y-107780667D01*
X154855334Y-107738334D01*
X154813000Y-107696000D01*
X154770667Y-107738334D01*
X154116467Y-107738334D01*
X154198261Y-107578537D01*
X154884437Y-107578537D01*
X154897667Y-107611334D01*
X154973749Y-107692104D01*
X154987330Y-107696000D01*
X155023696Y-107630494D01*
X155024667Y-107611334D01*
X154959579Y-107529920D01*
X154935003Y-107526667D01*
X154884437Y-107578537D01*
X154198261Y-107578537D01*
X154261730Y-107454541D01*
X154392132Y-107272667D01*
X154504602Y-107114149D01*
X154545925Y-106939030D01*
X154530831Y-106677453D01*
X154526019Y-106637667D01*
X154485030Y-106385668D01*
X154430194Y-106265062D01*
X154340337Y-106238063D01*
X154304488Y-106242384D01*
X153953894Y-106299311D01*
X153727581Y-106323772D01*
X153582485Y-106309179D01*
X153475543Y-106248944D01*
X153363692Y-106136479D01*
X153323405Y-106092297D01*
X153237612Y-105958582D01*
X155026388Y-105958582D01*
X155132427Y-105997086D01*
X155241330Y-106002667D01*
X155393724Y-105975025D01*
X155398243Y-105896834D01*
X155372855Y-105833351D01*
X155448035Y-105892686D01*
X155452513Y-105896834D01*
X155614542Y-105972204D01*
X155836213Y-106002667D01*
X156107969Y-106037356D01*
X156387035Y-106120946D01*
X156390780Y-106122512D01*
X156612833Y-106204491D01*
X156694298Y-106197327D01*
X156642909Y-106093566D01*
X156544825Y-105974119D01*
X156387494Y-105830989D01*
X156239757Y-105811935D01*
X156158361Y-105836872D01*
X156007699Y-105866008D01*
X155987316Y-105792531D01*
X156096743Y-105621427D01*
X156188834Y-105513213D01*
X156318838Y-105348987D01*
X156378861Y-105235429D01*
X156379334Y-105229917D01*
X156297658Y-105154837D01*
X156064239Y-105092416D01*
X155744334Y-105051591D01*
X155567639Y-105052761D01*
X155509457Y-105126911D01*
X155513635Y-105240667D01*
X155597897Y-105455302D01*
X155715291Y-105588113D01*
X155809241Y-105668464D01*
X155804724Y-105716367D01*
X155677153Y-105750390D01*
X155459156Y-105781529D01*
X155206956Y-105833339D01*
X155056965Y-105898179D01*
X155026388Y-105958582D01*
X153237612Y-105958582D01*
X153134048Y-105797172D01*
X153078920Y-105495879D01*
X153154556Y-105249813D01*
X153158150Y-105104312D01*
X153045309Y-104853811D01*
X152942467Y-104683748D01*
X152782501Y-104416021D01*
X152705062Y-104216120D01*
X152691497Y-104016087D01*
X152710271Y-103837759D01*
X152733179Y-103732350D01*
X154962890Y-103732350D01*
X154977663Y-103871285D01*
X155034845Y-104007533D01*
X155124924Y-104046744D01*
X155308596Y-104010892D01*
X155340144Y-104002498D01*
X155471280Y-103940515D01*
X155465044Y-103876189D01*
X156814093Y-103876189D01*
X156853068Y-104042150D01*
X156993167Y-104137060D01*
X157206768Y-104193007D01*
X157334072Y-104130524D01*
X157403319Y-103993872D01*
X157417172Y-103833516D01*
X157296913Y-103701507D01*
X157268071Y-103681947D01*
X157111354Y-103597113D01*
X157007047Y-103617349D01*
X156934500Y-103681596D01*
X156814093Y-103876189D01*
X155465044Y-103876189D01*
X155460283Y-103827094D01*
X155437530Y-103781770D01*
X155388595Y-103663802D01*
X155439134Y-103668854D01*
X155439553Y-103669113D01*
X155519265Y-103655905D01*
X155532667Y-103594664D01*
X155468838Y-103488282D01*
X155312520Y-103471217D01*
X155116463Y-103545730D01*
X155072806Y-103574951D01*
X154962890Y-103732350D01*
X152733179Y-103732350D01*
X152769447Y-103565470D01*
X152862042Y-103427314D01*
X152925852Y-103397864D01*
X153040547Y-103314902D01*
X153042446Y-103239873D01*
X153066990Y-103143854D01*
X153164657Y-103124000D01*
X153284458Y-103082104D01*
X153344119Y-102936196D01*
X153355738Y-102655941D01*
X153355482Y-102645588D01*
X153426716Y-102561976D01*
X153599734Y-102498820D01*
X153785636Y-102416454D01*
X154034243Y-102248370D01*
X154287423Y-102034812D01*
X154569122Y-101791714D01*
X154825523Y-101637033D01*
X155111771Y-101550378D01*
X155483011Y-101511358D01*
X155725080Y-101503182D01*
X155995925Y-101487119D01*
X156190248Y-101456149D01*
X156254558Y-101427068D01*
X156352079Y-101412325D01*
X156570944Y-101437707D01*
D12*
X159458000Y-105502000D02*
X156518000Y-105502000D01*
X159458000Y-105742000D02*
X156518000Y-105742000D01*
X159458000Y-105622000D02*
X156518000Y-105622000D01*
X156518000Y-110162000D02*
X156648000Y-110162000D01*
X156518000Y-104722000D02*
X156518000Y-110162000D01*
X156648000Y-104722000D02*
X156518000Y-104722000D01*
X159458000Y-110162000D02*
X159328000Y-110162000D01*
X159458000Y-104722000D02*
X159458000Y-110162000D01*
X159328000Y-104722000D02*
X159458000Y-104722000D01*
X189076000Y-103918000D02*
X188746000Y-103918000D01*
X189076000Y-110458000D02*
X189076000Y-103918000D01*
X188746000Y-110458000D02*
X189076000Y-110458000D01*
X186336000Y-103918000D02*
X186666000Y-103918000D01*
X186336000Y-110458000D02*
X186336000Y-103918000D01*
X186666000Y-110458000D02*
X186336000Y-110458000D01*
X184893000Y-96774000D02*
G75*
G03X184893000Y-96774000I-1251000J0D01*
G01*
X172701000Y-96774000D02*
G75*
G03X172701000Y-96774000I-1251000J0D01*
G01*
X184385000Y-117856000D02*
G75*
G03X184385000Y-117856000I-1251000J0D01*
G01*
X177273000Y-117856000D02*
G75*
G03X177273000Y-117856000I-1251000J0D01*
G01*
X180829000Y-117856000D02*
G75*
G03X180829000Y-117856000I-1251000J0D01*
G01*
X173717000Y-117856000D02*
G75*
G03X173717000Y-117856000I-1251000J0D01*
G01*
X191988000Y-117920000D02*
X191988000Y-118076000D01*
X191988000Y-115604000D02*
X191988000Y-115760000D01*
X194589130Y-117919837D02*
G75*
G02X192507039Y-117920000I-1041130J1079837D01*
G01*
X194589130Y-115760163D02*
G75*
G03X192507039Y-115760000I-1041130J-1079837D01*
G01*
X195220335Y-117918608D02*
G75*
G02X191988000Y-118075516I-1672335J1078608D01*
G01*
X195220335Y-115761392D02*
G75*
G03X191988000Y-115604484I-1672335J-1078608D01*
G01*
X182650000Y-103918000D02*
X182980000Y-103918000D01*
X182980000Y-103918000D02*
X182980000Y-110458000D01*
X182980000Y-110458000D02*
X182650000Y-110458000D01*
X180570000Y-103918000D02*
X180240000Y-103918000D01*
X180240000Y-103918000D02*
X180240000Y-110458000D01*
X180240000Y-110458000D02*
X180570000Y-110458000D01*
X170842000Y-111202000D02*
X170842000Y-103762000D01*
X173582000Y-111202000D02*
X173582000Y-103762000D01*
X170842000Y-111202000D02*
X173582000Y-111202000D01*
X170842000Y-103762000D02*
X173582000Y-103762000D01*
X193771225Y-105209000D02*
X193771225Y-105709000D01*
X193521225Y-105459000D02*
X194021225Y-105459000D01*
X198927000Y-106650000D02*
X198927000Y-107218000D01*
X198887000Y-106416000D02*
X198887000Y-107452000D01*
X198847000Y-106257000D02*
X198847000Y-107611000D01*
X198807000Y-106129000D02*
X198807000Y-107739000D01*
X198767000Y-106019000D02*
X198767000Y-107849000D01*
X198727000Y-105923000D02*
X198727000Y-107945000D01*
X198687000Y-105836000D02*
X198687000Y-108032000D01*
X198647000Y-105756000D02*
X198647000Y-108112000D01*
X198607000Y-105683000D02*
X198607000Y-108185000D01*
X198567000Y-105615000D02*
X198567000Y-108253000D01*
X198527000Y-105551000D02*
X198527000Y-108317000D01*
X198487000Y-105491000D02*
X198487000Y-108377000D01*
X198447000Y-105434000D02*
X198447000Y-108434000D01*
X198407000Y-105380000D02*
X198407000Y-108488000D01*
X198367000Y-105329000D02*
X198367000Y-108539000D01*
X198327000Y-107974000D02*
X198327000Y-108587000D01*
X198327000Y-105281000D02*
X198327000Y-105894000D01*
X198287000Y-107974000D02*
X198287000Y-108633000D01*
X198287000Y-105235000D02*
X198287000Y-105894000D01*
X198247000Y-107974000D02*
X198247000Y-108677000D01*
X198247000Y-105191000D02*
X198247000Y-105894000D01*
X198207000Y-107974000D02*
X198207000Y-108719000D01*
X198207000Y-105149000D02*
X198207000Y-105894000D01*
X198167000Y-107974000D02*
X198167000Y-108760000D01*
X198167000Y-105108000D02*
X198167000Y-105894000D01*
X198127000Y-107974000D02*
X198127000Y-108798000D01*
X198127000Y-105070000D02*
X198127000Y-105894000D01*
X198087000Y-107974000D02*
X198087000Y-108835000D01*
X198087000Y-105033000D02*
X198087000Y-105894000D01*
X198047000Y-107974000D02*
X198047000Y-108871000D01*
X198047000Y-104997000D02*
X198047000Y-105894000D01*
X198007000Y-107974000D02*
X198007000Y-108905000D01*
X198007000Y-104963000D02*
X198007000Y-105894000D01*
X197967000Y-107974000D02*
X197967000Y-108938000D01*
X197967000Y-104930000D02*
X197967000Y-105894000D01*
X197927000Y-107974000D02*
X197927000Y-108969000D01*
X197927000Y-104899000D02*
X197927000Y-105894000D01*
X197887000Y-107974000D02*
X197887000Y-108999000D01*
X197887000Y-104869000D02*
X197887000Y-105894000D01*
X197847000Y-107974000D02*
X197847000Y-109029000D01*
X197847000Y-104839000D02*
X197847000Y-105894000D01*
X197807000Y-107974000D02*
X197807000Y-109056000D01*
X197807000Y-104812000D02*
X197807000Y-105894000D01*
X197767000Y-107974000D02*
X197767000Y-109083000D01*
X197767000Y-104785000D02*
X197767000Y-105894000D01*
X197727000Y-107974000D02*
X197727000Y-109109000D01*
X197727000Y-104759000D02*
X197727000Y-105894000D01*
X197687000Y-107974000D02*
X197687000Y-109134000D01*
X197687000Y-104734000D02*
X197687000Y-105894000D01*
X197647000Y-107974000D02*
X197647000Y-109158000D01*
X197647000Y-104710000D02*
X197647000Y-105894000D01*
X197607000Y-107974000D02*
X197607000Y-109181000D01*
X197607000Y-104687000D02*
X197607000Y-105894000D01*
X197567000Y-107974000D02*
X197567000Y-109202000D01*
X197567000Y-104666000D02*
X197567000Y-105894000D01*
X197527000Y-107974000D02*
X197527000Y-109224000D01*
X197527000Y-104644000D02*
X197527000Y-105894000D01*
X197487000Y-107974000D02*
X197487000Y-109244000D01*
X197487000Y-104624000D02*
X197487000Y-105894000D01*
X197447000Y-107974000D02*
X197447000Y-109263000D01*
X197447000Y-104605000D02*
X197447000Y-105894000D01*
X197407000Y-107974000D02*
X197407000Y-109282000D01*
X197407000Y-104586000D02*
X197407000Y-105894000D01*
X197367000Y-107974000D02*
X197367000Y-109299000D01*
X197367000Y-104569000D02*
X197367000Y-105894000D01*
X197327000Y-107974000D02*
X197327000Y-109316000D01*
X197327000Y-104552000D02*
X197327000Y-105894000D01*
X197287000Y-107974000D02*
X197287000Y-109332000D01*
X197287000Y-104536000D02*
X197287000Y-105894000D01*
X197247000Y-107974000D02*
X197247000Y-109348000D01*
X197247000Y-104520000D02*
X197247000Y-105894000D01*
X197207000Y-107974000D02*
X197207000Y-109362000D01*
X197207000Y-104506000D02*
X197207000Y-105894000D01*
X197167000Y-107974000D02*
X197167000Y-109376000D01*
X197167000Y-104492000D02*
X197167000Y-105894000D01*
X197127000Y-107974000D02*
X197127000Y-109389000D01*
X197127000Y-104479000D02*
X197127000Y-105894000D01*
X197087000Y-107974000D02*
X197087000Y-109402000D01*
X197087000Y-104466000D02*
X197087000Y-105894000D01*
X197047000Y-107974000D02*
X197047000Y-109414000D01*
X197047000Y-104454000D02*
X197047000Y-105894000D01*
X197006000Y-107974000D02*
X197006000Y-109425000D01*
X197006000Y-104443000D02*
X197006000Y-105894000D01*
X196966000Y-107974000D02*
X196966000Y-109435000D01*
X196966000Y-104433000D02*
X196966000Y-105894000D01*
X196926000Y-107974000D02*
X196926000Y-109445000D01*
X196926000Y-104423000D02*
X196926000Y-105894000D01*
X196886000Y-107974000D02*
X196886000Y-109454000D01*
X196886000Y-104414000D02*
X196886000Y-105894000D01*
X196846000Y-107974000D02*
X196846000Y-109462000D01*
X196846000Y-104406000D02*
X196846000Y-105894000D01*
X196806000Y-107974000D02*
X196806000Y-109470000D01*
X196806000Y-104398000D02*
X196806000Y-105894000D01*
X196766000Y-107974000D02*
X196766000Y-109477000D01*
X196766000Y-104391000D02*
X196766000Y-105894000D01*
X196726000Y-107974000D02*
X196726000Y-109484000D01*
X196726000Y-104384000D02*
X196726000Y-105894000D01*
X196686000Y-107974000D02*
X196686000Y-109490000D01*
X196686000Y-104378000D02*
X196686000Y-105894000D01*
X196646000Y-107974000D02*
X196646000Y-109495000D01*
X196646000Y-104373000D02*
X196646000Y-105894000D01*
X196606000Y-107974000D02*
X196606000Y-109499000D01*
X196606000Y-104369000D02*
X196606000Y-105894000D01*
X196566000Y-107974000D02*
X196566000Y-109503000D01*
X196566000Y-104365000D02*
X196566000Y-105894000D01*
X196526000Y-107974000D02*
X196526000Y-109507000D01*
X196526000Y-104361000D02*
X196526000Y-105894000D01*
X196486000Y-107974000D02*
X196486000Y-109510000D01*
X196486000Y-104358000D02*
X196486000Y-105894000D01*
X196446000Y-107974000D02*
X196446000Y-109512000D01*
X196446000Y-104356000D02*
X196446000Y-105894000D01*
X196406000Y-107974000D02*
X196406000Y-109513000D01*
X196406000Y-104355000D02*
X196406000Y-105894000D01*
X196366000Y-104354000D02*
X196366000Y-105894000D01*
X196366000Y-107974000D02*
X196366000Y-109514000D01*
X196326000Y-104354000D02*
X196326000Y-105894000D01*
X196326000Y-107974000D02*
X196326000Y-109514000D01*
X198946000Y-106934000D02*
G75*
G03X198946000Y-106934000I-2620000J0D01*
G01*
X167192478Y-109280478D02*
G75*
G03X165354000Y-104842000I-1838478J1838478D01*
G01*
X163515522Y-109280478D02*
G75*
G02X165354000Y-104842000I1838478J1838478D01*
G01*
X163554000Y-109292000D02*
X167154000Y-109292000D01*
X177522000Y-110458000D02*
X177192000Y-110458000D01*
X177192000Y-110458000D02*
X177192000Y-103918000D01*
X177192000Y-103918000D02*
X177522000Y-103918000D01*
X179602000Y-110458000D02*
X179932000Y-110458000D01*
X179932000Y-110458000D02*
X179932000Y-103918000D01*
X179932000Y-103918000D02*
X179602000Y-103918000D01*
X183618000Y-110458000D02*
X183288000Y-110458000D01*
X183288000Y-110458000D02*
X183288000Y-103918000D01*
X183288000Y-103918000D02*
X183618000Y-103918000D01*
X185698000Y-110458000D02*
X186028000Y-110458000D01*
X186028000Y-110458000D02*
X186028000Y-103918000D01*
X186028000Y-103918000D02*
X185698000Y-103918000D01*
D10*
X194746761Y-99480666D02*
X195222952Y-99480666D01*
X194651523Y-99766380D02*
X194984857Y-98766380D01*
X195318190Y-99766380D01*
X196127714Y-98766380D02*
X195651523Y-98766380D01*
X195603904Y-99242571D01*
X195651523Y-99194952D01*
X195746761Y-99147333D01*
X195984857Y-99147333D01*
X196080095Y-99194952D01*
X196127714Y-99242571D01*
X196175333Y-99337809D01*
X196175333Y-99575904D01*
X196127714Y-99671142D01*
X196080095Y-99718761D01*
X195984857Y-99766380D01*
X195746761Y-99766380D01*
X195651523Y-99718761D01*
X195603904Y-99671142D01*
X196794380Y-98766380D02*
X196889619Y-98766380D01*
X196984857Y-98814000D01*
X197032476Y-98861619D01*
X197080095Y-98956857D01*
X197127714Y-99147333D01*
X197127714Y-99385428D01*
X197080095Y-99575904D01*
X197032476Y-99671142D01*
X196984857Y-99718761D01*
X196889619Y-99766380D01*
X196794380Y-99766380D01*
X196699142Y-99718761D01*
X196651523Y-99671142D01*
X196603904Y-99575904D01*
X196556285Y-99385428D01*
X196556285Y-99147333D01*
X196603904Y-98956857D01*
X196651523Y-98861619D01*
X196699142Y-98814000D01*
X196794380Y-98766380D01*
X197556285Y-99766380D02*
X197556285Y-98766380D01*
X197651523Y-99385428D02*
X197937238Y-99766380D01*
X197937238Y-99099714D02*
X197556285Y-99480666D01*
X158940571Y-99417142D02*
X158892952Y-99464761D01*
X158750095Y-99512380D01*
X158654857Y-99512380D01*
X158512000Y-99464761D01*
X158416761Y-99369523D01*
X158369142Y-99274285D01*
X158321523Y-99083809D01*
X158321523Y-98940952D01*
X158369142Y-98750476D01*
X158416761Y-98655238D01*
X158512000Y-98560000D01*
X158654857Y-98512380D01*
X158750095Y-98512380D01*
X158892952Y-98560000D01*
X158940571Y-98607619D01*
X159845333Y-98512380D02*
X159369142Y-98512380D01*
X159321523Y-98988571D01*
X159369142Y-98940952D01*
X159464380Y-98893333D01*
X159702476Y-98893333D01*
X159797714Y-98940952D01*
X159845333Y-98988571D01*
X159892952Y-99083809D01*
X159892952Y-99321904D01*
X159845333Y-99417142D01*
X159797714Y-99464761D01*
X159702476Y-99512380D01*
X159464380Y-99512380D01*
X159369142Y-99464761D01*
X159321523Y-99417142D01*
X160321523Y-99512380D02*
X160321523Y-98512380D01*
X160416761Y-99131428D02*
X160702476Y-99512380D01*
X160702476Y-98845714D02*
X160321523Y-99226666D01*
D13*
X158214190Y-108981714D02*
X158214190Y-109267428D01*
X158214190Y-109124571D02*
X157714190Y-109124571D01*
X157785619Y-109172190D01*
X157833238Y-109219809D01*
X157857047Y-109267428D01*
X158214190Y-108767428D02*
X157714190Y-108767428D01*
X158214190Y-108481714D01*
X157714190Y-108481714D01*
X157880857Y-108029333D02*
X158214190Y-108029333D01*
X157690380Y-108148380D02*
X158047523Y-108267428D01*
X158047523Y-107957904D01*
X157714190Y-107815047D02*
X157714190Y-107481714D01*
X158214190Y-107696000D01*
X157714190Y-107338857D02*
X157714190Y-107029333D01*
X157904666Y-107196000D01*
X157904666Y-107124571D01*
X157928476Y-107076952D01*
X157952285Y-107053142D01*
X157999904Y-107029333D01*
X158118952Y-107029333D01*
X158166571Y-107053142D01*
X158190380Y-107076952D01*
X158214190Y-107124571D01*
X158214190Y-107267428D01*
X158190380Y-107315047D01*
X158166571Y-107338857D01*
X158214190Y-106791238D02*
X158214190Y-106696000D01*
X158190380Y-106648380D01*
X158166571Y-106624571D01*
X158095142Y-106576952D01*
X157999904Y-106553142D01*
X157809428Y-106553142D01*
X157761809Y-106576952D01*
X157738000Y-106600761D01*
X157714190Y-106648380D01*
X157714190Y-106743619D01*
X157738000Y-106791238D01*
X157761809Y-106815047D01*
X157809428Y-106838857D01*
X157928476Y-106838857D01*
X157976095Y-106815047D01*
X157999904Y-106791238D01*
X158023714Y-106743619D01*
X158023714Y-106648380D01*
X157999904Y-106600761D01*
X157976095Y-106576952D01*
X157928476Y-106553142D01*
X158071333Y-106362666D02*
X158071333Y-106124571D01*
X158214190Y-106410285D02*
X157714190Y-106243619D01*
X158214190Y-106076952D01*
D10*
X179451047Y-98496428D02*
X180212952Y-98496428D01*
X174879047Y-98369428D02*
X175640952Y-98369428D01*
X175260000Y-98750380D02*
X175260000Y-97988476D01*
X187491714Y-108116571D02*
X188158380Y-108116571D01*
X187110761Y-108354666D02*
X187825047Y-108592761D01*
X187825047Y-107973714D01*
X188063142Y-107592761D02*
X188110761Y-107545142D01*
X188158380Y-107592761D01*
X188110761Y-107640380D01*
X188063142Y-107592761D01*
X188158380Y-107592761D01*
X187158380Y-107211809D02*
X187158380Y-106545142D01*
X188158380Y-106973714D01*
X188158380Y-106164190D02*
X187158380Y-106164190D01*
X187777428Y-106068952D02*
X188158380Y-105783238D01*
X187491714Y-105783238D02*
X187872666Y-106164190D01*
X182300666Y-115022380D02*
X182491142Y-115022380D01*
X182586380Y-115070000D01*
X182681619Y-115165238D01*
X182729238Y-115355714D01*
X182729238Y-115689047D01*
X182681619Y-115879523D01*
X182586380Y-115974761D01*
X182491142Y-116022380D01*
X182300666Y-116022380D01*
X182205428Y-115974761D01*
X182110190Y-115879523D01*
X182062571Y-115689047D01*
X182062571Y-115355714D01*
X182110190Y-115165238D01*
X182205428Y-115070000D01*
X182300666Y-115022380D01*
X183586380Y-115355714D02*
X183586380Y-116022380D01*
X183157809Y-115355714D02*
X183157809Y-115879523D01*
X183205428Y-115974761D01*
X183300666Y-116022380D01*
X183443523Y-116022380D01*
X183538761Y-115974761D01*
X183586380Y-115927142D01*
X183919714Y-115355714D02*
X184300666Y-115355714D01*
X184062571Y-115022380D02*
X184062571Y-115879523D01*
X184110190Y-115974761D01*
X184205428Y-116022380D01*
X184300666Y-116022380D01*
X175379142Y-115070000D02*
X175283904Y-115022380D01*
X175141047Y-115022380D01*
X174998190Y-115070000D01*
X174902952Y-115165238D01*
X174855333Y-115260476D01*
X174807714Y-115450952D01*
X174807714Y-115593809D01*
X174855333Y-115784285D01*
X174902952Y-115879523D01*
X174998190Y-115974761D01*
X175141047Y-116022380D01*
X175236285Y-116022380D01*
X175379142Y-115974761D01*
X175426761Y-115927142D01*
X175426761Y-115593809D01*
X175236285Y-115593809D01*
X175855333Y-115355714D02*
X175855333Y-116022380D01*
X175855333Y-115450952D02*
X175902952Y-115403333D01*
X175998190Y-115355714D01*
X176141047Y-115355714D01*
X176236285Y-115403333D01*
X176283904Y-115498571D01*
X176283904Y-116022380D01*
X177188666Y-116022380D02*
X177188666Y-115022380D01*
X177188666Y-115974761D02*
X177093428Y-116022380D01*
X176902952Y-116022380D01*
X176807714Y-115974761D01*
X176760095Y-115927142D01*
X176712476Y-115831904D01*
X176712476Y-115546190D01*
X176760095Y-115450952D01*
X176807714Y-115403333D01*
X176902952Y-115355714D01*
X177093428Y-115355714D01*
X177188666Y-115403333D01*
X178935142Y-116022380D02*
X178458952Y-116022380D01*
X178458952Y-115022380D01*
X179268476Y-115498571D02*
X179601809Y-115498571D01*
X179744666Y-116022380D02*
X179268476Y-116022380D01*
X179268476Y-115022380D01*
X179744666Y-115022380D01*
X180173238Y-116022380D02*
X180173238Y-115022380D01*
X180411333Y-115022380D01*
X180554190Y-115070000D01*
X180649428Y-115165238D01*
X180697047Y-115260476D01*
X180744666Y-115450952D01*
X180744666Y-115593809D01*
X180697047Y-115784285D01*
X180649428Y-115879523D01*
X180554190Y-115974761D01*
X180411333Y-116022380D01*
X180173238Y-116022380D01*
X172013619Y-116022380D02*
X172013619Y-115022380D01*
X172489809Y-115355714D02*
X172489809Y-116022380D01*
X172489809Y-115450952D02*
X172537428Y-115403333D01*
X172632666Y-115355714D01*
X172775523Y-115355714D01*
X172870761Y-115403333D01*
X172918380Y-115498571D01*
X172918380Y-116022380D01*
X182062380Y-107473714D02*
X182062380Y-108045142D01*
X182062380Y-107759428D02*
X181062380Y-107759428D01*
X181205238Y-107854666D01*
X181300476Y-107949904D01*
X181348095Y-108045142D01*
X182062380Y-107045142D02*
X181062380Y-107045142D01*
X181776666Y-106711809D01*
X181062380Y-106378476D01*
X182062380Y-106378476D01*
D13*
X172438190Y-108215809D02*
X172438190Y-108501523D01*
X172438190Y-108358666D02*
X171938190Y-108358666D01*
X172009619Y-108406285D01*
X172057238Y-108453904D01*
X172081047Y-108501523D01*
X171938190Y-107906285D02*
X171938190Y-107858666D01*
X171962000Y-107811047D01*
X171985809Y-107787238D01*
X172033428Y-107763428D01*
X172128666Y-107739619D01*
X172247714Y-107739619D01*
X172342952Y-107763428D01*
X172390571Y-107787238D01*
X172414380Y-107811047D01*
X172438190Y-107858666D01*
X172438190Y-107906285D01*
X172414380Y-107953904D01*
X172390571Y-107977714D01*
X172342952Y-108001523D01*
X172247714Y-108025333D01*
X172128666Y-108025333D01*
X172033428Y-108001523D01*
X171985809Y-107977714D01*
X171962000Y-107953904D01*
X171938190Y-107906285D01*
X171938190Y-107430095D02*
X171938190Y-107382476D01*
X171962000Y-107334857D01*
X171985809Y-107311047D01*
X172033428Y-107287238D01*
X172128666Y-107263428D01*
X172247714Y-107263428D01*
X172342952Y-107287238D01*
X172390571Y-107311047D01*
X172414380Y-107334857D01*
X172438190Y-107382476D01*
X172438190Y-107430095D01*
X172414380Y-107477714D01*
X172390571Y-107501523D01*
X172342952Y-107525333D01*
X172247714Y-107549142D01*
X172128666Y-107549142D01*
X172033428Y-107525333D01*
X171985809Y-107501523D01*
X171962000Y-107477714D01*
X171938190Y-107430095D01*
X172104857Y-107049142D02*
X172438190Y-107049142D01*
X172152476Y-107049142D02*
X172128666Y-107025333D01*
X172104857Y-106977714D01*
X172104857Y-106906285D01*
X172128666Y-106858666D01*
X172176285Y-106834857D01*
X172438190Y-106834857D01*
X172176285Y-106430095D02*
X172176285Y-106596761D01*
X172438190Y-106596761D02*
X171938190Y-106596761D01*
X171938190Y-106358666D01*
D10*
X195254571Y-111196380D02*
X194683142Y-111196380D01*
X194968857Y-111196380D02*
X194968857Y-110196380D01*
X194873619Y-110339238D01*
X194778380Y-110434476D01*
X194683142Y-110482095D01*
X195873619Y-110196380D02*
X195968857Y-110196380D01*
X196064095Y-110244000D01*
X196111714Y-110291619D01*
X196159333Y-110386857D01*
X196206952Y-110577333D01*
X196206952Y-110815428D01*
X196159333Y-111005904D01*
X196111714Y-111101142D01*
X196064095Y-111148761D01*
X195968857Y-111196380D01*
X195873619Y-111196380D01*
X195778380Y-111148761D01*
X195730761Y-111101142D01*
X195683142Y-111005904D01*
X195635523Y-110815428D01*
X195635523Y-110577333D01*
X195683142Y-110386857D01*
X195730761Y-110291619D01*
X195778380Y-110244000D01*
X195873619Y-110196380D01*
X197064095Y-110529714D02*
X197064095Y-111196380D01*
X196635523Y-110529714D02*
X196635523Y-111053523D01*
X196683142Y-111148761D01*
X196778380Y-111196380D01*
X196921238Y-111196380D01*
X197016476Y-111148761D01*
X197064095Y-111101142D01*
X197873619Y-110672571D02*
X197540285Y-110672571D01*
X197540285Y-111196380D02*
X197540285Y-110196380D01*
X198016476Y-110196380D01*
X163520666Y-110672571D02*
X163663523Y-110720190D01*
X163711142Y-110767809D01*
X163758761Y-110863047D01*
X163758761Y-111005904D01*
X163711142Y-111101142D01*
X163663523Y-111148761D01*
X163568285Y-111196380D01*
X163187333Y-111196380D01*
X163187333Y-110196380D01*
X163520666Y-110196380D01*
X163615904Y-110244000D01*
X163663523Y-110291619D01*
X163711142Y-110386857D01*
X163711142Y-110482095D01*
X163663523Y-110577333D01*
X163615904Y-110624952D01*
X163520666Y-110672571D01*
X163187333Y-110672571D01*
X164139714Y-111148761D02*
X164282571Y-111196380D01*
X164520666Y-111196380D01*
X164615904Y-111148761D01*
X164663523Y-111101142D01*
X164711142Y-111005904D01*
X164711142Y-110910666D01*
X164663523Y-110815428D01*
X164615904Y-110767809D01*
X164520666Y-110720190D01*
X164330190Y-110672571D01*
X164234952Y-110624952D01*
X164187333Y-110577333D01*
X164139714Y-110482095D01*
X164139714Y-110386857D01*
X164187333Y-110291619D01*
X164234952Y-110244000D01*
X164330190Y-110196380D01*
X164568285Y-110196380D01*
X164711142Y-110244000D01*
X165663523Y-111196380D02*
X165092095Y-111196380D01*
X165377809Y-111196380D02*
X165377809Y-110196380D01*
X165282571Y-110339238D01*
X165187333Y-110434476D01*
X165092095Y-110482095D01*
X165996857Y-110196380D02*
X166663523Y-110196380D01*
X166234952Y-111196380D01*
X167234952Y-110196380D02*
X167330190Y-110196380D01*
X167425428Y-110244000D01*
X167473047Y-110291619D01*
X167520666Y-110386857D01*
X167568285Y-110577333D01*
X167568285Y-110815428D01*
X167520666Y-111005904D01*
X167473047Y-111101142D01*
X167425428Y-111148761D01*
X167330190Y-111196380D01*
X167234952Y-111196380D01*
X167139714Y-111148761D01*
X167092095Y-111101142D01*
X167044476Y-111005904D01*
X166996857Y-110815428D01*
X166996857Y-110577333D01*
X167044476Y-110386857D01*
X167092095Y-110291619D01*
X167139714Y-110244000D01*
X167234952Y-110196380D01*
X179014380Y-107473714D02*
X179014380Y-108045142D01*
X179014380Y-107759428D02*
X178014380Y-107759428D01*
X178157238Y-107854666D01*
X178252476Y-107949904D01*
X178300095Y-108045142D01*
X179014380Y-107045142D02*
X178014380Y-107045142D01*
X178728666Y-106711809D01*
X178014380Y-106378476D01*
X179014380Y-106378476D01*
X184110380Y-108068952D02*
X184110380Y-108545142D01*
X184586571Y-108592761D01*
X184538952Y-108545142D01*
X184491333Y-108449904D01*
X184491333Y-108211809D01*
X184538952Y-108116571D01*
X184586571Y-108068952D01*
X184681809Y-108021333D01*
X184919904Y-108021333D01*
X185015142Y-108068952D01*
X185062761Y-108116571D01*
X185110380Y-108211809D01*
X185110380Y-108449904D01*
X185062761Y-108545142D01*
X185015142Y-108592761D01*
X185015142Y-107592761D02*
X185062761Y-107545142D01*
X185110380Y-107592761D01*
X185062761Y-107640380D01*
X185015142Y-107592761D01*
X185110380Y-107592761D01*
X185110380Y-106592761D02*
X185110380Y-107164190D01*
X185110380Y-106878476D02*
X184110380Y-106878476D01*
X184253238Y-106973714D01*
X184348476Y-107068952D01*
X184396095Y-107164190D01*
X185110380Y-106164190D02*
X184110380Y-106164190D01*
X184729428Y-106068952D02*
X185110380Y-105783238D01*
X184443714Y-105783238D02*
X184824666Y-106164190D01*
M02*
