G04 #@! TF.GenerationSoftware,KiCad,Pcbnew,(5.1.5-0-10_14)*
G04 #@! TF.CreationDate,2020-05-24T20:22:30-06:00*
G04 #@! TF.ProjectId,Testing,54657374-696e-4672-9e6b-696361645f70,rev?*
G04 #@! TF.SameCoordinates,Original*
G04 #@! TF.FileFunction,Legend,Top*
G04 #@! TF.FilePolarity,Positive*
%FSLAX46Y46*%
G04 Gerber Fmt 4.6, Leading zero omitted, Abs format (unit mm)*
G04 Created by KiCad (PCBNEW (5.1.5-0-10_14)) date 2020-05-24 20:22:30*
%MOMM*%
%LPD*%
G04 APERTURE LIST*
%ADD10C,0.150000*%
%ADD11C,0.120000*%
%ADD12C,0.125000*%
G04 APERTURE END LIST*
D10*
X153852571Y-116791523D02*
X153852571Y-116458190D01*
X154376380Y-116315333D02*
X154376380Y-116791523D01*
X153376380Y-116791523D01*
X153376380Y-116315333D01*
X154376380Y-115886761D02*
X153709714Y-115886761D01*
X153900190Y-115886761D02*
X153804952Y-115839142D01*
X153757333Y-115791523D01*
X153709714Y-115696285D01*
X153709714Y-115601047D01*
X154376380Y-115267714D02*
X153709714Y-115267714D01*
X153376380Y-115267714D02*
X153424000Y-115315333D01*
X153471619Y-115267714D01*
X153424000Y-115220095D01*
X153376380Y-115267714D01*
X153471619Y-115267714D01*
X154328761Y-114362952D02*
X154376380Y-114458190D01*
X154376380Y-114648666D01*
X154328761Y-114743904D01*
X154281142Y-114791523D01*
X154185904Y-114839142D01*
X153900190Y-114839142D01*
X153804952Y-114791523D01*
X153757333Y-114743904D01*
X153709714Y-114648666D01*
X153709714Y-114458190D01*
X153757333Y-114362952D01*
X153376380Y-113886761D02*
X153566857Y-113982000D01*
X154328761Y-113505809D02*
X154376380Y-113410571D01*
X154376380Y-113220095D01*
X154328761Y-113124857D01*
X154233523Y-113077238D01*
X154185904Y-113077238D01*
X154090666Y-113124857D01*
X154043047Y-113220095D01*
X154043047Y-113362952D01*
X153995428Y-113458190D01*
X153900190Y-113505809D01*
X153852571Y-113505809D01*
X153757333Y-113458190D01*
X153709714Y-113362952D01*
X153709714Y-113220095D01*
X153757333Y-113124857D01*
X153709714Y-112029619D02*
X153709714Y-111648666D01*
X154376380Y-111886761D02*
X153519238Y-111886761D01*
X153424000Y-111839142D01*
X153376380Y-111743904D01*
X153376380Y-111648666D01*
X154376380Y-111315333D02*
X153709714Y-111315333D01*
X153376380Y-111315333D02*
X153424000Y-111362952D01*
X153471619Y-111315333D01*
X153424000Y-111267714D01*
X153376380Y-111315333D01*
X153471619Y-111315333D01*
X154376380Y-110839142D02*
X153709714Y-110839142D01*
X153900190Y-110839142D02*
X153804952Y-110791523D01*
X153757333Y-110743904D01*
X153709714Y-110648666D01*
X153709714Y-110553428D01*
X154328761Y-110267714D02*
X154376380Y-110172476D01*
X154376380Y-109982000D01*
X154328761Y-109886761D01*
X154233523Y-109839142D01*
X154185904Y-109839142D01*
X154090666Y-109886761D01*
X154043047Y-109982000D01*
X154043047Y-110124857D01*
X153995428Y-110220095D01*
X153900190Y-110267714D01*
X153852571Y-110267714D01*
X153757333Y-110220095D01*
X153709714Y-110124857D01*
X153709714Y-109982000D01*
X153757333Y-109886761D01*
X153709714Y-109553428D02*
X153709714Y-109172476D01*
X153376380Y-109410571D02*
X154233523Y-109410571D01*
X154328761Y-109362952D01*
X154376380Y-109267714D01*
X154376380Y-109172476D01*
X154376380Y-108077238D02*
X153376380Y-108077238D01*
X153376380Y-107696285D01*
X153424000Y-107601047D01*
X153471619Y-107553428D01*
X153566857Y-107505809D01*
X153709714Y-107505809D01*
X153804952Y-107553428D01*
X153852571Y-107601047D01*
X153900190Y-107696285D01*
X153900190Y-108077238D01*
X154281142Y-106505809D02*
X154328761Y-106553428D01*
X154376380Y-106696285D01*
X154376380Y-106791523D01*
X154328761Y-106934380D01*
X154233523Y-107029619D01*
X154138285Y-107077238D01*
X153947809Y-107124857D01*
X153804952Y-107124857D01*
X153614476Y-107077238D01*
X153519238Y-107029619D01*
X153424000Y-106934380D01*
X153376380Y-106791523D01*
X153376380Y-106696285D01*
X153424000Y-106553428D01*
X153471619Y-106505809D01*
X153852571Y-105743904D02*
X153900190Y-105601047D01*
X153947809Y-105553428D01*
X154043047Y-105505809D01*
X154185904Y-105505809D01*
X154281142Y-105553428D01*
X154328761Y-105601047D01*
X154376380Y-105696285D01*
X154376380Y-106077238D01*
X153376380Y-106077238D01*
X153376380Y-105743904D01*
X153424000Y-105648666D01*
X153471619Y-105601047D01*
X153566857Y-105553428D01*
X153662095Y-105553428D01*
X153757333Y-105601047D01*
X153804952Y-105648666D01*
X153852571Y-105743904D01*
X153852571Y-106077238D01*
X154281142Y-104315333D02*
X154328761Y-104267714D01*
X154376380Y-104315333D01*
X154328761Y-104362952D01*
X154281142Y-104315333D01*
X154376380Y-104315333D01*
X153757333Y-104315333D02*
X153804952Y-104267714D01*
X153852571Y-104315333D01*
X153804952Y-104362952D01*
X153757333Y-104315333D01*
X153852571Y-104315333D01*
X153376380Y-103791523D02*
X153566857Y-103886761D01*
X154757333Y-103458190D02*
X154709714Y-103410571D01*
X154566857Y-103315333D01*
X154471619Y-103267714D01*
X154328761Y-103220095D01*
X154090666Y-103172476D01*
X153900190Y-103172476D01*
X153662095Y-103220095D01*
X153519238Y-103267714D01*
X153424000Y-103315333D01*
X153281142Y-103410571D01*
X153233523Y-103458190D01*
X158822000Y-118514761D02*
X158964857Y-118562380D01*
X159202952Y-118562380D01*
X159298190Y-118514761D01*
X159345809Y-118467142D01*
X159393428Y-118371904D01*
X159393428Y-118276666D01*
X159345809Y-118181428D01*
X159298190Y-118133809D01*
X159202952Y-118086190D01*
X159012476Y-118038571D01*
X158917238Y-117990952D01*
X158869619Y-117943333D01*
X158822000Y-117848095D01*
X158822000Y-117752857D01*
X158869619Y-117657619D01*
X158917238Y-117610000D01*
X159012476Y-117562380D01*
X159250571Y-117562380D01*
X159393428Y-117610000D01*
X159822000Y-118562380D02*
X159822000Y-117562380D01*
X159822000Y-118038571D02*
X160393428Y-118038571D01*
X160393428Y-118562380D02*
X160393428Y-117562380D01*
X161060095Y-117562380D02*
X161250571Y-117562380D01*
X161345809Y-117610000D01*
X161441047Y-117705238D01*
X161488666Y-117895714D01*
X161488666Y-118229047D01*
X161441047Y-118419523D01*
X161345809Y-118514761D01*
X161250571Y-118562380D01*
X161060095Y-118562380D01*
X160964857Y-118514761D01*
X160869619Y-118419523D01*
X160822000Y-118229047D01*
X160822000Y-117895714D01*
X160869619Y-117705238D01*
X160964857Y-117610000D01*
X161060095Y-117562380D01*
X162679142Y-118562380D02*
X162679142Y-117562380D01*
X162679142Y-117943333D02*
X162774380Y-117895714D01*
X162964857Y-117895714D01*
X163060095Y-117943333D01*
X163107714Y-117990952D01*
X163155333Y-118086190D01*
X163155333Y-118371904D01*
X163107714Y-118467142D01*
X163060095Y-118514761D01*
X162964857Y-118562380D01*
X162774380Y-118562380D01*
X162679142Y-118514761D01*
X163726761Y-118562380D02*
X163631523Y-118514761D01*
X163583904Y-118467142D01*
X163536285Y-118371904D01*
X163536285Y-118086190D01*
X163583904Y-117990952D01*
X163631523Y-117943333D01*
X163726761Y-117895714D01*
X163869619Y-117895714D01*
X163964857Y-117943333D01*
X164012476Y-117990952D01*
X164060095Y-118086190D01*
X164060095Y-118371904D01*
X164012476Y-118467142D01*
X163964857Y-118514761D01*
X163869619Y-118562380D01*
X163726761Y-118562380D01*
X164631523Y-118562380D02*
X164536285Y-118514761D01*
X164488666Y-118467142D01*
X164441047Y-118371904D01*
X164441047Y-118086190D01*
X164488666Y-117990952D01*
X164536285Y-117943333D01*
X164631523Y-117895714D01*
X164774380Y-117895714D01*
X164869619Y-117943333D01*
X164917238Y-117990952D01*
X164964857Y-118086190D01*
X164964857Y-118371904D01*
X164917238Y-118467142D01*
X164869619Y-118514761D01*
X164774380Y-118562380D01*
X164631523Y-118562380D01*
X165345809Y-118514761D02*
X165441047Y-118562380D01*
X165631523Y-118562380D01*
X165726761Y-118514761D01*
X165774380Y-118419523D01*
X165774380Y-118371904D01*
X165726761Y-118276666D01*
X165631523Y-118229047D01*
X165488666Y-118229047D01*
X165393428Y-118181428D01*
X165345809Y-118086190D01*
X165345809Y-118038571D01*
X165393428Y-117943333D01*
X165488666Y-117895714D01*
X165631523Y-117895714D01*
X165726761Y-117943333D01*
X166060095Y-117895714D02*
X166441047Y-117895714D01*
X166202952Y-117562380D02*
X166202952Y-118419523D01*
X166250571Y-118514761D01*
X166345809Y-118562380D01*
X166441047Y-118562380D01*
X167155333Y-118514761D02*
X167060095Y-118562380D01*
X166869619Y-118562380D01*
X166774380Y-118514761D01*
X166726761Y-118419523D01*
X166726761Y-118038571D01*
X166774380Y-117943333D01*
X166869619Y-117895714D01*
X167060095Y-117895714D01*
X167155333Y-117943333D01*
X167202952Y-118038571D01*
X167202952Y-118133809D01*
X166726761Y-118229047D01*
X167631523Y-118562380D02*
X167631523Y-117895714D01*
X167631523Y-118086190D02*
X167679142Y-117990952D01*
X167726761Y-117943333D01*
X167822000Y-117895714D01*
X167917238Y-117895714D01*
D11*
X159458000Y-105502000D02*
X156518000Y-105502000D01*
X159458000Y-105742000D02*
X156518000Y-105742000D01*
X159458000Y-105622000D02*
X156518000Y-105622000D01*
X156518000Y-110162000D02*
X156648000Y-110162000D01*
X156518000Y-104722000D02*
X156518000Y-110162000D01*
X156648000Y-104722000D02*
X156518000Y-104722000D01*
X159458000Y-110162000D02*
X159328000Y-110162000D01*
X159458000Y-104722000D02*
X159458000Y-110162000D01*
X159328000Y-104722000D02*
X159458000Y-104722000D01*
X189076000Y-103918000D02*
X188746000Y-103918000D01*
X189076000Y-110458000D02*
X189076000Y-103918000D01*
X188746000Y-110458000D02*
X189076000Y-110458000D01*
X186336000Y-103918000D02*
X186666000Y-103918000D01*
X186336000Y-110458000D02*
X186336000Y-103918000D01*
X186666000Y-110458000D02*
X186336000Y-110458000D01*
X184893000Y-96774000D02*
G75*
G03X184893000Y-96774000I-1251000J0D01*
G01*
X172701000Y-96774000D02*
G75*
G03X172701000Y-96774000I-1251000J0D01*
G01*
X184385000Y-117856000D02*
G75*
G03X184385000Y-117856000I-1251000J0D01*
G01*
X177273000Y-117856000D02*
G75*
G03X177273000Y-117856000I-1251000J0D01*
G01*
X180829000Y-117856000D02*
G75*
G03X180829000Y-117856000I-1251000J0D01*
G01*
X173717000Y-117856000D02*
G75*
G03X173717000Y-117856000I-1251000J0D01*
G01*
X191988000Y-117920000D02*
X191988000Y-118076000D01*
X191988000Y-115604000D02*
X191988000Y-115760000D01*
X194589130Y-117919837D02*
G75*
G02X192507039Y-117920000I-1041130J1079837D01*
G01*
X194589130Y-115760163D02*
G75*
G03X192507039Y-115760000I-1041130J-1079837D01*
G01*
X195220335Y-117918608D02*
G75*
G02X191988000Y-118075516I-1672335J1078608D01*
G01*
X195220335Y-115761392D02*
G75*
G03X191988000Y-115604484I-1672335J-1078608D01*
G01*
X182650000Y-103918000D02*
X182980000Y-103918000D01*
X182980000Y-103918000D02*
X182980000Y-110458000D01*
X182980000Y-110458000D02*
X182650000Y-110458000D01*
X180570000Y-103918000D02*
X180240000Y-103918000D01*
X180240000Y-103918000D02*
X180240000Y-110458000D01*
X180240000Y-110458000D02*
X180570000Y-110458000D01*
X170842000Y-111202000D02*
X170842000Y-103762000D01*
X173582000Y-111202000D02*
X173582000Y-103762000D01*
X170842000Y-111202000D02*
X173582000Y-111202000D01*
X170842000Y-103762000D02*
X173582000Y-103762000D01*
X193771225Y-105209000D02*
X193771225Y-105709000D01*
X193521225Y-105459000D02*
X194021225Y-105459000D01*
X198927000Y-106650000D02*
X198927000Y-107218000D01*
X198887000Y-106416000D02*
X198887000Y-107452000D01*
X198847000Y-106257000D02*
X198847000Y-107611000D01*
X198807000Y-106129000D02*
X198807000Y-107739000D01*
X198767000Y-106019000D02*
X198767000Y-107849000D01*
X198727000Y-105923000D02*
X198727000Y-107945000D01*
X198687000Y-105836000D02*
X198687000Y-108032000D01*
X198647000Y-105756000D02*
X198647000Y-108112000D01*
X198607000Y-105683000D02*
X198607000Y-108185000D01*
X198567000Y-105615000D02*
X198567000Y-108253000D01*
X198527000Y-105551000D02*
X198527000Y-108317000D01*
X198487000Y-105491000D02*
X198487000Y-108377000D01*
X198447000Y-105434000D02*
X198447000Y-108434000D01*
X198407000Y-105380000D02*
X198407000Y-108488000D01*
X198367000Y-105329000D02*
X198367000Y-108539000D01*
X198327000Y-107974000D02*
X198327000Y-108587000D01*
X198327000Y-105281000D02*
X198327000Y-105894000D01*
X198287000Y-107974000D02*
X198287000Y-108633000D01*
X198287000Y-105235000D02*
X198287000Y-105894000D01*
X198247000Y-107974000D02*
X198247000Y-108677000D01*
X198247000Y-105191000D02*
X198247000Y-105894000D01*
X198207000Y-107974000D02*
X198207000Y-108719000D01*
X198207000Y-105149000D02*
X198207000Y-105894000D01*
X198167000Y-107974000D02*
X198167000Y-108760000D01*
X198167000Y-105108000D02*
X198167000Y-105894000D01*
X198127000Y-107974000D02*
X198127000Y-108798000D01*
X198127000Y-105070000D02*
X198127000Y-105894000D01*
X198087000Y-107974000D02*
X198087000Y-108835000D01*
X198087000Y-105033000D02*
X198087000Y-105894000D01*
X198047000Y-107974000D02*
X198047000Y-108871000D01*
X198047000Y-104997000D02*
X198047000Y-105894000D01*
X198007000Y-107974000D02*
X198007000Y-108905000D01*
X198007000Y-104963000D02*
X198007000Y-105894000D01*
X197967000Y-107974000D02*
X197967000Y-108938000D01*
X197967000Y-104930000D02*
X197967000Y-105894000D01*
X197927000Y-107974000D02*
X197927000Y-108969000D01*
X197927000Y-104899000D02*
X197927000Y-105894000D01*
X197887000Y-107974000D02*
X197887000Y-108999000D01*
X197887000Y-104869000D02*
X197887000Y-105894000D01*
X197847000Y-107974000D02*
X197847000Y-109029000D01*
X197847000Y-104839000D02*
X197847000Y-105894000D01*
X197807000Y-107974000D02*
X197807000Y-109056000D01*
X197807000Y-104812000D02*
X197807000Y-105894000D01*
X197767000Y-107974000D02*
X197767000Y-109083000D01*
X197767000Y-104785000D02*
X197767000Y-105894000D01*
X197727000Y-107974000D02*
X197727000Y-109109000D01*
X197727000Y-104759000D02*
X197727000Y-105894000D01*
X197687000Y-107974000D02*
X197687000Y-109134000D01*
X197687000Y-104734000D02*
X197687000Y-105894000D01*
X197647000Y-107974000D02*
X197647000Y-109158000D01*
X197647000Y-104710000D02*
X197647000Y-105894000D01*
X197607000Y-107974000D02*
X197607000Y-109181000D01*
X197607000Y-104687000D02*
X197607000Y-105894000D01*
X197567000Y-107974000D02*
X197567000Y-109202000D01*
X197567000Y-104666000D02*
X197567000Y-105894000D01*
X197527000Y-107974000D02*
X197527000Y-109224000D01*
X197527000Y-104644000D02*
X197527000Y-105894000D01*
X197487000Y-107974000D02*
X197487000Y-109244000D01*
X197487000Y-104624000D02*
X197487000Y-105894000D01*
X197447000Y-107974000D02*
X197447000Y-109263000D01*
X197447000Y-104605000D02*
X197447000Y-105894000D01*
X197407000Y-107974000D02*
X197407000Y-109282000D01*
X197407000Y-104586000D02*
X197407000Y-105894000D01*
X197367000Y-107974000D02*
X197367000Y-109299000D01*
X197367000Y-104569000D02*
X197367000Y-105894000D01*
X197327000Y-107974000D02*
X197327000Y-109316000D01*
X197327000Y-104552000D02*
X197327000Y-105894000D01*
X197287000Y-107974000D02*
X197287000Y-109332000D01*
X197287000Y-104536000D02*
X197287000Y-105894000D01*
X197247000Y-107974000D02*
X197247000Y-109348000D01*
X197247000Y-104520000D02*
X197247000Y-105894000D01*
X197207000Y-107974000D02*
X197207000Y-109362000D01*
X197207000Y-104506000D02*
X197207000Y-105894000D01*
X197167000Y-107974000D02*
X197167000Y-109376000D01*
X197167000Y-104492000D02*
X197167000Y-105894000D01*
X197127000Y-107974000D02*
X197127000Y-109389000D01*
X197127000Y-104479000D02*
X197127000Y-105894000D01*
X197087000Y-107974000D02*
X197087000Y-109402000D01*
X197087000Y-104466000D02*
X197087000Y-105894000D01*
X197047000Y-107974000D02*
X197047000Y-109414000D01*
X197047000Y-104454000D02*
X197047000Y-105894000D01*
X197006000Y-107974000D02*
X197006000Y-109425000D01*
X197006000Y-104443000D02*
X197006000Y-105894000D01*
X196966000Y-107974000D02*
X196966000Y-109435000D01*
X196966000Y-104433000D02*
X196966000Y-105894000D01*
X196926000Y-107974000D02*
X196926000Y-109445000D01*
X196926000Y-104423000D02*
X196926000Y-105894000D01*
X196886000Y-107974000D02*
X196886000Y-109454000D01*
X196886000Y-104414000D02*
X196886000Y-105894000D01*
X196846000Y-107974000D02*
X196846000Y-109462000D01*
X196846000Y-104406000D02*
X196846000Y-105894000D01*
X196806000Y-107974000D02*
X196806000Y-109470000D01*
X196806000Y-104398000D02*
X196806000Y-105894000D01*
X196766000Y-107974000D02*
X196766000Y-109477000D01*
X196766000Y-104391000D02*
X196766000Y-105894000D01*
X196726000Y-107974000D02*
X196726000Y-109484000D01*
X196726000Y-104384000D02*
X196726000Y-105894000D01*
X196686000Y-107974000D02*
X196686000Y-109490000D01*
X196686000Y-104378000D02*
X196686000Y-105894000D01*
X196646000Y-107974000D02*
X196646000Y-109495000D01*
X196646000Y-104373000D02*
X196646000Y-105894000D01*
X196606000Y-107974000D02*
X196606000Y-109499000D01*
X196606000Y-104369000D02*
X196606000Y-105894000D01*
X196566000Y-107974000D02*
X196566000Y-109503000D01*
X196566000Y-104365000D02*
X196566000Y-105894000D01*
X196526000Y-107974000D02*
X196526000Y-109507000D01*
X196526000Y-104361000D02*
X196526000Y-105894000D01*
X196486000Y-107974000D02*
X196486000Y-109510000D01*
X196486000Y-104358000D02*
X196486000Y-105894000D01*
X196446000Y-107974000D02*
X196446000Y-109512000D01*
X196446000Y-104356000D02*
X196446000Y-105894000D01*
X196406000Y-107974000D02*
X196406000Y-109513000D01*
X196406000Y-104355000D02*
X196406000Y-105894000D01*
X196366000Y-104354000D02*
X196366000Y-105894000D01*
X196366000Y-107974000D02*
X196366000Y-109514000D01*
X196326000Y-104354000D02*
X196326000Y-105894000D01*
X196326000Y-107974000D02*
X196326000Y-109514000D01*
X198946000Y-106934000D02*
G75*
G03X198946000Y-106934000I-2620000J0D01*
G01*
X167192478Y-109280478D02*
G75*
G03X165354000Y-104842000I-1838478J1838478D01*
G01*
X163515522Y-109280478D02*
G75*
G02X165354000Y-104842000I1838478J1838478D01*
G01*
X163554000Y-109292000D02*
X167154000Y-109292000D01*
X177522000Y-110458000D02*
X177192000Y-110458000D01*
X177192000Y-110458000D02*
X177192000Y-103918000D01*
X177192000Y-103918000D02*
X177522000Y-103918000D01*
X179602000Y-110458000D02*
X179932000Y-110458000D01*
X179932000Y-110458000D02*
X179932000Y-103918000D01*
X179932000Y-103918000D02*
X179602000Y-103918000D01*
X183618000Y-110458000D02*
X183288000Y-110458000D01*
X183288000Y-110458000D02*
X183288000Y-103918000D01*
X183288000Y-103918000D02*
X183618000Y-103918000D01*
X185698000Y-110458000D02*
X186028000Y-110458000D01*
X186028000Y-110458000D02*
X186028000Y-103918000D01*
X186028000Y-103918000D02*
X185698000Y-103918000D01*
D10*
X194746761Y-99480666D02*
X195222952Y-99480666D01*
X194651523Y-99766380D02*
X194984857Y-98766380D01*
X195318190Y-99766380D01*
X196127714Y-98766380D02*
X195651523Y-98766380D01*
X195603904Y-99242571D01*
X195651523Y-99194952D01*
X195746761Y-99147333D01*
X195984857Y-99147333D01*
X196080095Y-99194952D01*
X196127714Y-99242571D01*
X196175333Y-99337809D01*
X196175333Y-99575904D01*
X196127714Y-99671142D01*
X196080095Y-99718761D01*
X195984857Y-99766380D01*
X195746761Y-99766380D01*
X195651523Y-99718761D01*
X195603904Y-99671142D01*
X196794380Y-98766380D02*
X196889619Y-98766380D01*
X196984857Y-98814000D01*
X197032476Y-98861619D01*
X197080095Y-98956857D01*
X197127714Y-99147333D01*
X197127714Y-99385428D01*
X197080095Y-99575904D01*
X197032476Y-99671142D01*
X196984857Y-99718761D01*
X196889619Y-99766380D01*
X196794380Y-99766380D01*
X196699142Y-99718761D01*
X196651523Y-99671142D01*
X196603904Y-99575904D01*
X196556285Y-99385428D01*
X196556285Y-99147333D01*
X196603904Y-98956857D01*
X196651523Y-98861619D01*
X196699142Y-98814000D01*
X196794380Y-98766380D01*
X197556285Y-99766380D02*
X197556285Y-98766380D01*
X197651523Y-99385428D02*
X197937238Y-99766380D01*
X197937238Y-99099714D02*
X197556285Y-99480666D01*
X158940571Y-99417142D02*
X158892952Y-99464761D01*
X158750095Y-99512380D01*
X158654857Y-99512380D01*
X158512000Y-99464761D01*
X158416761Y-99369523D01*
X158369142Y-99274285D01*
X158321523Y-99083809D01*
X158321523Y-98940952D01*
X158369142Y-98750476D01*
X158416761Y-98655238D01*
X158512000Y-98560000D01*
X158654857Y-98512380D01*
X158750095Y-98512380D01*
X158892952Y-98560000D01*
X158940571Y-98607619D01*
X159845333Y-98512380D02*
X159369142Y-98512380D01*
X159321523Y-98988571D01*
X159369142Y-98940952D01*
X159464380Y-98893333D01*
X159702476Y-98893333D01*
X159797714Y-98940952D01*
X159845333Y-98988571D01*
X159892952Y-99083809D01*
X159892952Y-99321904D01*
X159845333Y-99417142D01*
X159797714Y-99464761D01*
X159702476Y-99512380D01*
X159464380Y-99512380D01*
X159369142Y-99464761D01*
X159321523Y-99417142D01*
X160321523Y-99512380D02*
X160321523Y-98512380D01*
X160416761Y-99131428D02*
X160702476Y-99512380D01*
X160702476Y-98845714D02*
X160321523Y-99226666D01*
D12*
X158214190Y-108981714D02*
X158214190Y-109267428D01*
X158214190Y-109124571D02*
X157714190Y-109124571D01*
X157785619Y-109172190D01*
X157833238Y-109219809D01*
X157857047Y-109267428D01*
X158214190Y-108767428D02*
X157714190Y-108767428D01*
X158214190Y-108481714D01*
X157714190Y-108481714D01*
X157880857Y-108029333D02*
X158214190Y-108029333D01*
X157690380Y-108148380D02*
X158047523Y-108267428D01*
X158047523Y-107957904D01*
X157714190Y-107815047D02*
X157714190Y-107481714D01*
X158214190Y-107696000D01*
X157714190Y-107338857D02*
X157714190Y-107029333D01*
X157904666Y-107196000D01*
X157904666Y-107124571D01*
X157928476Y-107076952D01*
X157952285Y-107053142D01*
X157999904Y-107029333D01*
X158118952Y-107029333D01*
X158166571Y-107053142D01*
X158190380Y-107076952D01*
X158214190Y-107124571D01*
X158214190Y-107267428D01*
X158190380Y-107315047D01*
X158166571Y-107338857D01*
X158214190Y-106791238D02*
X158214190Y-106696000D01*
X158190380Y-106648380D01*
X158166571Y-106624571D01*
X158095142Y-106576952D01*
X157999904Y-106553142D01*
X157809428Y-106553142D01*
X157761809Y-106576952D01*
X157738000Y-106600761D01*
X157714190Y-106648380D01*
X157714190Y-106743619D01*
X157738000Y-106791238D01*
X157761809Y-106815047D01*
X157809428Y-106838857D01*
X157928476Y-106838857D01*
X157976095Y-106815047D01*
X157999904Y-106791238D01*
X158023714Y-106743619D01*
X158023714Y-106648380D01*
X157999904Y-106600761D01*
X157976095Y-106576952D01*
X157928476Y-106553142D01*
X158071333Y-106362666D02*
X158071333Y-106124571D01*
X158214190Y-106410285D02*
X157714190Y-106243619D01*
X158214190Y-106076952D01*
D10*
X179451047Y-98496428D02*
X180212952Y-98496428D01*
X174879047Y-98369428D02*
X175640952Y-98369428D01*
X175260000Y-98750380D02*
X175260000Y-97988476D01*
X187491714Y-108116571D02*
X188158380Y-108116571D01*
X187110761Y-108354666D02*
X187825047Y-108592761D01*
X187825047Y-107973714D01*
X188063142Y-107592761D02*
X188110761Y-107545142D01*
X188158380Y-107592761D01*
X188110761Y-107640380D01*
X188063142Y-107592761D01*
X188158380Y-107592761D01*
X187158380Y-107211809D02*
X187158380Y-106545142D01*
X188158380Y-106973714D01*
X188158380Y-106164190D02*
X187158380Y-106164190D01*
X187777428Y-106068952D02*
X188158380Y-105783238D01*
X187491714Y-105783238D02*
X187872666Y-106164190D01*
X182300666Y-115022380D02*
X182491142Y-115022380D01*
X182586380Y-115070000D01*
X182681619Y-115165238D01*
X182729238Y-115355714D01*
X182729238Y-115689047D01*
X182681619Y-115879523D01*
X182586380Y-115974761D01*
X182491142Y-116022380D01*
X182300666Y-116022380D01*
X182205428Y-115974761D01*
X182110190Y-115879523D01*
X182062571Y-115689047D01*
X182062571Y-115355714D01*
X182110190Y-115165238D01*
X182205428Y-115070000D01*
X182300666Y-115022380D01*
X183586380Y-115355714D02*
X183586380Y-116022380D01*
X183157809Y-115355714D02*
X183157809Y-115879523D01*
X183205428Y-115974761D01*
X183300666Y-116022380D01*
X183443523Y-116022380D01*
X183538761Y-115974761D01*
X183586380Y-115927142D01*
X183919714Y-115355714D02*
X184300666Y-115355714D01*
X184062571Y-115022380D02*
X184062571Y-115879523D01*
X184110190Y-115974761D01*
X184205428Y-116022380D01*
X184300666Y-116022380D01*
X175379142Y-115070000D02*
X175283904Y-115022380D01*
X175141047Y-115022380D01*
X174998190Y-115070000D01*
X174902952Y-115165238D01*
X174855333Y-115260476D01*
X174807714Y-115450952D01*
X174807714Y-115593809D01*
X174855333Y-115784285D01*
X174902952Y-115879523D01*
X174998190Y-115974761D01*
X175141047Y-116022380D01*
X175236285Y-116022380D01*
X175379142Y-115974761D01*
X175426761Y-115927142D01*
X175426761Y-115593809D01*
X175236285Y-115593809D01*
X175855333Y-115355714D02*
X175855333Y-116022380D01*
X175855333Y-115450952D02*
X175902952Y-115403333D01*
X175998190Y-115355714D01*
X176141047Y-115355714D01*
X176236285Y-115403333D01*
X176283904Y-115498571D01*
X176283904Y-116022380D01*
X177188666Y-116022380D02*
X177188666Y-115022380D01*
X177188666Y-115974761D02*
X177093428Y-116022380D01*
X176902952Y-116022380D01*
X176807714Y-115974761D01*
X176760095Y-115927142D01*
X176712476Y-115831904D01*
X176712476Y-115546190D01*
X176760095Y-115450952D01*
X176807714Y-115403333D01*
X176902952Y-115355714D01*
X177093428Y-115355714D01*
X177188666Y-115403333D01*
X178935142Y-116022380D02*
X178458952Y-116022380D01*
X178458952Y-115022380D01*
X179268476Y-115498571D02*
X179601809Y-115498571D01*
X179744666Y-116022380D02*
X179268476Y-116022380D01*
X179268476Y-115022380D01*
X179744666Y-115022380D01*
X180173238Y-116022380D02*
X180173238Y-115022380D01*
X180411333Y-115022380D01*
X180554190Y-115070000D01*
X180649428Y-115165238D01*
X180697047Y-115260476D01*
X180744666Y-115450952D01*
X180744666Y-115593809D01*
X180697047Y-115784285D01*
X180649428Y-115879523D01*
X180554190Y-115974761D01*
X180411333Y-116022380D01*
X180173238Y-116022380D01*
X172013619Y-116022380D02*
X172013619Y-115022380D01*
X172489809Y-115355714D02*
X172489809Y-116022380D01*
X172489809Y-115450952D02*
X172537428Y-115403333D01*
X172632666Y-115355714D01*
X172775523Y-115355714D01*
X172870761Y-115403333D01*
X172918380Y-115498571D01*
X172918380Y-116022380D01*
X182062380Y-107473714D02*
X182062380Y-108045142D01*
X182062380Y-107759428D02*
X181062380Y-107759428D01*
X181205238Y-107854666D01*
X181300476Y-107949904D01*
X181348095Y-108045142D01*
X182062380Y-107045142D02*
X181062380Y-107045142D01*
X181776666Y-106711809D01*
X181062380Y-106378476D01*
X182062380Y-106378476D01*
D12*
X172438190Y-108215809D02*
X172438190Y-108501523D01*
X172438190Y-108358666D02*
X171938190Y-108358666D01*
X172009619Y-108406285D01*
X172057238Y-108453904D01*
X172081047Y-108501523D01*
X171938190Y-107906285D02*
X171938190Y-107858666D01*
X171962000Y-107811047D01*
X171985809Y-107787238D01*
X172033428Y-107763428D01*
X172128666Y-107739619D01*
X172247714Y-107739619D01*
X172342952Y-107763428D01*
X172390571Y-107787238D01*
X172414380Y-107811047D01*
X172438190Y-107858666D01*
X172438190Y-107906285D01*
X172414380Y-107953904D01*
X172390571Y-107977714D01*
X172342952Y-108001523D01*
X172247714Y-108025333D01*
X172128666Y-108025333D01*
X172033428Y-108001523D01*
X171985809Y-107977714D01*
X171962000Y-107953904D01*
X171938190Y-107906285D01*
X171938190Y-107430095D02*
X171938190Y-107382476D01*
X171962000Y-107334857D01*
X171985809Y-107311047D01*
X172033428Y-107287238D01*
X172128666Y-107263428D01*
X172247714Y-107263428D01*
X172342952Y-107287238D01*
X172390571Y-107311047D01*
X172414380Y-107334857D01*
X172438190Y-107382476D01*
X172438190Y-107430095D01*
X172414380Y-107477714D01*
X172390571Y-107501523D01*
X172342952Y-107525333D01*
X172247714Y-107549142D01*
X172128666Y-107549142D01*
X172033428Y-107525333D01*
X171985809Y-107501523D01*
X171962000Y-107477714D01*
X171938190Y-107430095D01*
X172104857Y-107049142D02*
X172438190Y-107049142D01*
X172152476Y-107049142D02*
X172128666Y-107025333D01*
X172104857Y-106977714D01*
X172104857Y-106906285D01*
X172128666Y-106858666D01*
X172176285Y-106834857D01*
X172438190Y-106834857D01*
X172176285Y-106430095D02*
X172176285Y-106596761D01*
X172438190Y-106596761D02*
X171938190Y-106596761D01*
X171938190Y-106358666D01*
D10*
X195254571Y-111196380D02*
X194683142Y-111196380D01*
X194968857Y-111196380D02*
X194968857Y-110196380D01*
X194873619Y-110339238D01*
X194778380Y-110434476D01*
X194683142Y-110482095D01*
X195873619Y-110196380D02*
X195968857Y-110196380D01*
X196064095Y-110244000D01*
X196111714Y-110291619D01*
X196159333Y-110386857D01*
X196206952Y-110577333D01*
X196206952Y-110815428D01*
X196159333Y-111005904D01*
X196111714Y-111101142D01*
X196064095Y-111148761D01*
X195968857Y-111196380D01*
X195873619Y-111196380D01*
X195778380Y-111148761D01*
X195730761Y-111101142D01*
X195683142Y-111005904D01*
X195635523Y-110815428D01*
X195635523Y-110577333D01*
X195683142Y-110386857D01*
X195730761Y-110291619D01*
X195778380Y-110244000D01*
X195873619Y-110196380D01*
X197064095Y-110529714D02*
X197064095Y-111196380D01*
X196635523Y-110529714D02*
X196635523Y-111053523D01*
X196683142Y-111148761D01*
X196778380Y-111196380D01*
X196921238Y-111196380D01*
X197016476Y-111148761D01*
X197064095Y-111101142D01*
X197873619Y-110672571D02*
X197540285Y-110672571D01*
X197540285Y-111196380D02*
X197540285Y-110196380D01*
X198016476Y-110196380D01*
X163520666Y-110672571D02*
X163663523Y-110720190D01*
X163711142Y-110767809D01*
X163758761Y-110863047D01*
X163758761Y-111005904D01*
X163711142Y-111101142D01*
X163663523Y-111148761D01*
X163568285Y-111196380D01*
X163187333Y-111196380D01*
X163187333Y-110196380D01*
X163520666Y-110196380D01*
X163615904Y-110244000D01*
X163663523Y-110291619D01*
X163711142Y-110386857D01*
X163711142Y-110482095D01*
X163663523Y-110577333D01*
X163615904Y-110624952D01*
X163520666Y-110672571D01*
X163187333Y-110672571D01*
X164139714Y-111148761D02*
X164282571Y-111196380D01*
X164520666Y-111196380D01*
X164615904Y-111148761D01*
X164663523Y-111101142D01*
X164711142Y-111005904D01*
X164711142Y-110910666D01*
X164663523Y-110815428D01*
X164615904Y-110767809D01*
X164520666Y-110720190D01*
X164330190Y-110672571D01*
X164234952Y-110624952D01*
X164187333Y-110577333D01*
X164139714Y-110482095D01*
X164139714Y-110386857D01*
X164187333Y-110291619D01*
X164234952Y-110244000D01*
X164330190Y-110196380D01*
X164568285Y-110196380D01*
X164711142Y-110244000D01*
X165663523Y-111196380D02*
X165092095Y-111196380D01*
X165377809Y-111196380D02*
X165377809Y-110196380D01*
X165282571Y-110339238D01*
X165187333Y-110434476D01*
X165092095Y-110482095D01*
X165996857Y-110196380D02*
X166663523Y-110196380D01*
X166234952Y-111196380D01*
X167234952Y-110196380D02*
X167330190Y-110196380D01*
X167425428Y-110244000D01*
X167473047Y-110291619D01*
X167520666Y-110386857D01*
X167568285Y-110577333D01*
X167568285Y-110815428D01*
X167520666Y-111005904D01*
X167473047Y-111101142D01*
X167425428Y-111148761D01*
X167330190Y-111196380D01*
X167234952Y-111196380D01*
X167139714Y-111148761D01*
X167092095Y-111101142D01*
X167044476Y-111005904D01*
X166996857Y-110815428D01*
X166996857Y-110577333D01*
X167044476Y-110386857D01*
X167092095Y-110291619D01*
X167139714Y-110244000D01*
X167234952Y-110196380D01*
X179014380Y-107473714D02*
X179014380Y-108045142D01*
X179014380Y-107759428D02*
X178014380Y-107759428D01*
X178157238Y-107854666D01*
X178252476Y-107949904D01*
X178300095Y-108045142D01*
X179014380Y-107045142D02*
X178014380Y-107045142D01*
X178728666Y-106711809D01*
X178014380Y-106378476D01*
X179014380Y-106378476D01*
X184110380Y-108068952D02*
X184110380Y-108545142D01*
X184586571Y-108592761D01*
X184538952Y-108545142D01*
X184491333Y-108449904D01*
X184491333Y-108211809D01*
X184538952Y-108116571D01*
X184586571Y-108068952D01*
X184681809Y-108021333D01*
X184919904Y-108021333D01*
X185015142Y-108068952D01*
X185062761Y-108116571D01*
X185110380Y-108211809D01*
X185110380Y-108449904D01*
X185062761Y-108545142D01*
X185015142Y-108592761D01*
X185015142Y-107592761D02*
X185062761Y-107545142D01*
X185110380Y-107592761D01*
X185062761Y-107640380D01*
X185015142Y-107592761D01*
X185110380Y-107592761D01*
X185110380Y-106592761D02*
X185110380Y-107164190D01*
X185110380Y-106878476D02*
X184110380Y-106878476D01*
X184253238Y-106973714D01*
X184348476Y-107068952D01*
X184396095Y-107164190D01*
X185110380Y-106164190D02*
X184110380Y-106164190D01*
X184729428Y-106068952D02*
X185110380Y-105783238D01*
X184443714Y-105783238D02*
X184824666Y-106164190D01*
M02*
