G04 #@! TF.GenerationSoftware,KiCad,Pcbnew,(5.1.5-0-10_14)*
G04 #@! TF.CreationDate,2020-05-24T15:36:03-06:00*
G04 #@! TF.ProjectId,Testing,54657374-696e-4672-9e6b-696361645f70,rev?*
G04 #@! TF.SameCoordinates,Original*
G04 #@! TF.FileFunction,Copper,L2,Bot*
G04 #@! TF.FilePolarity,Positive*
%FSLAX46Y46*%
G04 Gerber Fmt 4.6, Leading zero omitted, Abs format (unit mm)*
G04 Created by KiCad (PCBNEW (5.1.5-0-10_14)) date 2020-05-24 15:36:03*
%MOMM*%
%LPD*%
G04 APERTURE LIST*
%ADD10O,2.200000X2.200000*%
%ADD11R,2.200000X2.200000*%
%ADD12C,1.524000*%
%ADD13R,1.524000X1.524000*%
%ADD14O,1.600000X1.600000*%
%ADD15C,1.600000*%
%ADD16C,2.000000*%
%ADD17C,1.800000*%
%ADD18R,1.800000X1.800000*%
%ADD19R,1.600000X1.600000*%
%ADD20R,1.050000X1.500000*%
%ADD21O,1.050000X1.500000*%
%ADD22C,0.250000*%
%ADD23C,0.254000*%
G04 APERTURE END LIST*
D10*
X157988000Y-111252000D03*
D11*
X157988000Y-103632000D03*
D12*
X201168000Y-96774000D03*
X196088000Y-96774000D03*
D13*
X191008000Y-96774000D03*
D12*
X163322000Y-96774000D03*
X158242000Y-96774000D03*
D13*
X153162000Y-96774000D03*
D12*
X179832000Y-96774000D03*
X175260000Y-96774000D03*
D14*
X187960000Y-103378000D03*
D15*
X187960000Y-110998000D03*
D16*
X183642000Y-96774000D03*
X171450000Y-96774000D03*
X183134000Y-117856000D03*
X176022000Y-117856000D03*
X179578000Y-117856000D03*
X172466000Y-117856000D03*
D17*
X194818000Y-116840000D03*
D18*
X192278000Y-116840000D03*
D15*
X181610000Y-110998000D03*
D14*
X181610000Y-103378000D03*
D15*
X172212000Y-109982000D03*
X172212000Y-104982000D03*
X166084000Y-107188000D03*
D19*
X164084000Y-107188000D03*
D20*
X195072000Y-107188000D03*
D21*
X197612000Y-107188000D03*
X196342000Y-107188000D03*
D14*
X178562000Y-103378000D03*
D15*
X178562000Y-110998000D03*
X184658000Y-110998000D03*
D14*
X184658000Y-103378000D03*
D22*
X179361999Y-110198001D02*
X178562000Y-110998000D01*
X179687001Y-109872999D02*
X179361999Y-110198001D01*
X179687001Y-103635997D02*
X179687001Y-109872999D01*
X181069999Y-102252999D02*
X179687001Y-103635997D01*
X183532999Y-102252999D02*
X181069999Y-102252999D01*
X184658000Y-103378000D02*
X183532999Y-102252999D01*
X173465999Y-116856001D02*
X172466000Y-117856000D01*
X173465999Y-106235999D02*
X173465999Y-116856001D01*
X172212000Y-104982000D02*
X173465999Y-106235999D01*
X189085001Y-103776999D02*
X195326001Y-97535999D01*
X195326001Y-97535999D02*
X196088000Y-96774000D01*
X189085001Y-111904999D02*
X189085001Y-103776999D01*
X183134000Y-117856000D02*
X189085001Y-111904999D01*
D23*
G36*
X207112001Y-119228000D02*
G01*
X184023579Y-119228000D01*
X184176252Y-119125987D01*
X184403987Y-118898252D01*
X184582918Y-118630463D01*
X184706168Y-118332912D01*
X184769000Y-118017033D01*
X184769000Y-117694967D01*
X184706168Y-117379088D01*
X184700177Y-117364624D01*
X186124801Y-115940000D01*
X190739928Y-115940000D01*
X190739928Y-117740000D01*
X190752188Y-117864482D01*
X190788498Y-117984180D01*
X190847463Y-118094494D01*
X190926815Y-118191185D01*
X191023506Y-118270537D01*
X191133820Y-118329502D01*
X191253518Y-118365812D01*
X191378000Y-118378072D01*
X193178000Y-118378072D01*
X193302482Y-118365812D01*
X193422180Y-118329502D01*
X193532494Y-118270537D01*
X193629185Y-118191185D01*
X193708537Y-118094494D01*
X193767502Y-117984180D01*
X193773056Y-117965873D01*
X193839495Y-118032312D01*
X194090905Y-118200299D01*
X194370257Y-118316011D01*
X194666816Y-118375000D01*
X194969184Y-118375000D01*
X195265743Y-118316011D01*
X195545095Y-118200299D01*
X195796505Y-118032312D01*
X196010312Y-117818505D01*
X196178299Y-117567095D01*
X196294011Y-117287743D01*
X196353000Y-116991184D01*
X196353000Y-116688816D01*
X196294011Y-116392257D01*
X196178299Y-116112905D01*
X196010312Y-115861495D01*
X195796505Y-115647688D01*
X195545095Y-115479701D01*
X195265743Y-115363989D01*
X194969184Y-115305000D01*
X194666816Y-115305000D01*
X194370257Y-115363989D01*
X194090905Y-115479701D01*
X193839495Y-115647688D01*
X193773056Y-115714127D01*
X193767502Y-115695820D01*
X193708537Y-115585506D01*
X193629185Y-115488815D01*
X193532494Y-115409463D01*
X193422180Y-115350498D01*
X193302482Y-115314188D01*
X193178000Y-115301928D01*
X191378000Y-115301928D01*
X191253518Y-115314188D01*
X191133820Y-115350498D01*
X191023506Y-115409463D01*
X190926815Y-115488815D01*
X190847463Y-115585506D01*
X190788498Y-115695820D01*
X190752188Y-115815518D01*
X190739928Y-115940000D01*
X186124801Y-115940000D01*
X189596005Y-112468797D01*
X189625002Y-112445000D01*
X189719975Y-112329275D01*
X189790547Y-112197246D01*
X189834004Y-112053985D01*
X189845001Y-111942332D01*
X189845001Y-111942323D01*
X189848677Y-111905000D01*
X189845001Y-111867677D01*
X189845001Y-106438000D01*
X193908928Y-106438000D01*
X193908928Y-107938000D01*
X193921188Y-108062482D01*
X193957498Y-108182180D01*
X194016463Y-108292494D01*
X194095815Y-108389185D01*
X194192506Y-108468537D01*
X194302820Y-108527502D01*
X194422518Y-108563812D01*
X194547000Y-108576072D01*
X195597000Y-108576072D01*
X195721482Y-108563812D01*
X195841180Y-108527502D01*
X195905902Y-108492907D01*
X196114601Y-108556215D01*
X196342000Y-108578612D01*
X196569400Y-108556215D01*
X196788060Y-108489885D01*
X196977000Y-108388894D01*
X197165941Y-108489885D01*
X197384601Y-108556215D01*
X197612000Y-108578612D01*
X197839400Y-108556215D01*
X198058060Y-108489885D01*
X198259579Y-108382171D01*
X198436212Y-108237212D01*
X198581171Y-108060579D01*
X198688885Y-107859059D01*
X198755215Y-107640399D01*
X198772000Y-107469978D01*
X198772000Y-106906021D01*
X198755215Y-106735600D01*
X198688885Y-106516940D01*
X198581171Y-106315421D01*
X198436212Y-106138788D01*
X198259578Y-105993829D01*
X198058059Y-105886115D01*
X197839399Y-105819785D01*
X197612000Y-105797388D01*
X197384600Y-105819785D01*
X197165940Y-105886115D01*
X196977000Y-105987106D01*
X196788059Y-105886115D01*
X196569399Y-105819785D01*
X196342000Y-105797388D01*
X196114600Y-105819785D01*
X195905902Y-105883093D01*
X195841180Y-105848498D01*
X195721482Y-105812188D01*
X195597000Y-105799928D01*
X194547000Y-105799928D01*
X194422518Y-105812188D01*
X194302820Y-105848498D01*
X194192506Y-105907463D01*
X194095815Y-105986815D01*
X194016463Y-106083506D01*
X193957498Y-106193820D01*
X193921188Y-106313518D01*
X193908928Y-106438000D01*
X189845001Y-106438000D01*
X189845001Y-104091800D01*
X195796430Y-98140372D01*
X195950408Y-98171000D01*
X196225592Y-98171000D01*
X196495490Y-98117314D01*
X196749727Y-98012005D01*
X196978535Y-97859120D01*
X197173120Y-97664535D01*
X197326005Y-97435727D01*
X197431314Y-97181490D01*
X197485000Y-96911592D01*
X197485000Y-96636408D01*
X199771000Y-96636408D01*
X199771000Y-96911592D01*
X199824686Y-97181490D01*
X199929995Y-97435727D01*
X200082880Y-97664535D01*
X200277465Y-97859120D01*
X200506273Y-98012005D01*
X200760510Y-98117314D01*
X201030408Y-98171000D01*
X201305592Y-98171000D01*
X201575490Y-98117314D01*
X201829727Y-98012005D01*
X202058535Y-97859120D01*
X202253120Y-97664535D01*
X202406005Y-97435727D01*
X202511314Y-97181490D01*
X202565000Y-96911592D01*
X202565000Y-96636408D01*
X202511314Y-96366510D01*
X202406005Y-96112273D01*
X202253120Y-95883465D01*
X202058535Y-95688880D01*
X201829727Y-95535995D01*
X201575490Y-95430686D01*
X201305592Y-95377000D01*
X201030408Y-95377000D01*
X200760510Y-95430686D01*
X200506273Y-95535995D01*
X200277465Y-95688880D01*
X200082880Y-95883465D01*
X199929995Y-96112273D01*
X199824686Y-96366510D01*
X199771000Y-96636408D01*
X197485000Y-96636408D01*
X197431314Y-96366510D01*
X197326005Y-96112273D01*
X197173120Y-95883465D01*
X196978535Y-95688880D01*
X196749727Y-95535995D01*
X196495490Y-95430686D01*
X196225592Y-95377000D01*
X195950408Y-95377000D01*
X195680510Y-95430686D01*
X195426273Y-95535995D01*
X195197465Y-95688880D01*
X195002880Y-95883465D01*
X194849995Y-96112273D01*
X194744686Y-96366510D01*
X194691000Y-96636408D01*
X194691000Y-96911592D01*
X194721628Y-97065570D01*
X189174501Y-102612698D01*
X189074637Y-102463241D01*
X188874759Y-102263363D01*
X188639727Y-102106320D01*
X188378574Y-101998147D01*
X188101335Y-101943000D01*
X187818665Y-101943000D01*
X187541426Y-101998147D01*
X187280273Y-102106320D01*
X187045241Y-102263363D01*
X186845363Y-102463241D01*
X186688320Y-102698273D01*
X186580147Y-102959426D01*
X186525000Y-103236665D01*
X186525000Y-103519335D01*
X186580147Y-103796574D01*
X186688320Y-104057727D01*
X186845363Y-104292759D01*
X187045241Y-104492637D01*
X187280273Y-104649680D01*
X187541426Y-104757853D01*
X187818665Y-104813000D01*
X188101335Y-104813000D01*
X188325002Y-104768509D01*
X188325001Y-109607491D01*
X188101335Y-109563000D01*
X187818665Y-109563000D01*
X187541426Y-109618147D01*
X187280273Y-109726320D01*
X187045241Y-109883363D01*
X186845363Y-110083241D01*
X186688320Y-110318273D01*
X186580147Y-110579426D01*
X186525000Y-110856665D01*
X186525000Y-111139335D01*
X186580147Y-111416574D01*
X186688320Y-111677727D01*
X186845363Y-111912759D01*
X187045241Y-112112637D01*
X187280273Y-112269680D01*
X187538540Y-112376658D01*
X183625376Y-116289823D01*
X183610912Y-116283832D01*
X183295033Y-116221000D01*
X182972967Y-116221000D01*
X182657088Y-116283832D01*
X182359537Y-116407082D01*
X182091748Y-116586013D01*
X181864013Y-116813748D01*
X181685082Y-117081537D01*
X181561832Y-117379088D01*
X181499000Y-117694967D01*
X181499000Y-118017033D01*
X181561832Y-118332912D01*
X181685082Y-118630463D01*
X181864013Y-118898252D01*
X182091748Y-119125987D01*
X182244421Y-119228000D01*
X180467579Y-119228000D01*
X180620252Y-119125987D01*
X180847987Y-118898252D01*
X181026918Y-118630463D01*
X181150168Y-118332912D01*
X181213000Y-118017033D01*
X181213000Y-117694967D01*
X181150168Y-117379088D01*
X181026918Y-117081537D01*
X180847987Y-116813748D01*
X180620252Y-116586013D01*
X180352463Y-116407082D01*
X180054912Y-116283832D01*
X179739033Y-116221000D01*
X179416967Y-116221000D01*
X179101088Y-116283832D01*
X178803537Y-116407082D01*
X178535748Y-116586013D01*
X178308013Y-116813748D01*
X178129082Y-117081537D01*
X178005832Y-117379088D01*
X177943000Y-117694967D01*
X177943000Y-118017033D01*
X178005832Y-118332912D01*
X178129082Y-118630463D01*
X178308013Y-118898252D01*
X178535748Y-119125987D01*
X178688421Y-119228000D01*
X176892118Y-119228000D01*
X176977808Y-118991413D01*
X176022000Y-118035605D01*
X175066192Y-118991413D01*
X175151882Y-119228000D01*
X173355579Y-119228000D01*
X173508252Y-119125987D01*
X173735987Y-118898252D01*
X173914918Y-118630463D01*
X174038168Y-118332912D01*
X174101000Y-118017033D01*
X174101000Y-117918595D01*
X174380282Y-117918595D01*
X174424039Y-118237675D01*
X174529205Y-118542088D01*
X174622186Y-118716044D01*
X174886587Y-118811808D01*
X175842395Y-117856000D01*
X176201605Y-117856000D01*
X177157413Y-118811808D01*
X177421814Y-118716044D01*
X177562704Y-118426429D01*
X177644384Y-118114892D01*
X177663718Y-117793405D01*
X177619961Y-117474325D01*
X177514795Y-117169912D01*
X177421814Y-116995956D01*
X177157413Y-116900192D01*
X176201605Y-117856000D01*
X175842395Y-117856000D01*
X174886587Y-116900192D01*
X174622186Y-116995956D01*
X174481296Y-117285571D01*
X174399616Y-117597108D01*
X174380282Y-117918595D01*
X174101000Y-117918595D01*
X174101000Y-117694967D01*
X174038168Y-117379088D01*
X174032034Y-117364279D01*
X174047858Y-117344998D01*
X174100973Y-117280278D01*
X174171545Y-117148248D01*
X174191781Y-117081537D01*
X174215002Y-117004987D01*
X174225999Y-116893334D01*
X174225999Y-116893325D01*
X174229675Y-116856002D01*
X174225999Y-116818679D01*
X174225999Y-116720587D01*
X175066192Y-116720587D01*
X176022000Y-117676395D01*
X176977808Y-116720587D01*
X176882044Y-116456186D01*
X176592429Y-116315296D01*
X176280892Y-116233616D01*
X175959405Y-116214282D01*
X175640325Y-116258039D01*
X175335912Y-116363205D01*
X175161956Y-116456186D01*
X175066192Y-116720587D01*
X174225999Y-116720587D01*
X174225999Y-106273321D01*
X174229675Y-106235998D01*
X174225999Y-106198675D01*
X174225999Y-106198666D01*
X174215002Y-106087013D01*
X174171545Y-105943752D01*
X174100973Y-105811723D01*
X174060321Y-105762188D01*
X174029798Y-105724995D01*
X174029794Y-105724991D01*
X174006000Y-105695998D01*
X173977008Y-105672205D01*
X173610688Y-105305886D01*
X173647000Y-105123335D01*
X173647000Y-104840665D01*
X173591853Y-104563426D01*
X173483680Y-104302273D01*
X173326637Y-104067241D01*
X173126759Y-103867363D01*
X172891727Y-103710320D01*
X172630574Y-103602147D01*
X172353335Y-103547000D01*
X172070665Y-103547000D01*
X171793426Y-103602147D01*
X171532273Y-103710320D01*
X171297241Y-103867363D01*
X171097363Y-104067241D01*
X170940320Y-104302273D01*
X170832147Y-104563426D01*
X170777000Y-104840665D01*
X170777000Y-105123335D01*
X170832147Y-105400574D01*
X170940320Y-105661727D01*
X171097363Y-105896759D01*
X171297241Y-106096637D01*
X171532273Y-106253680D01*
X171793426Y-106361853D01*
X172070665Y-106417000D01*
X172353335Y-106417000D01*
X172535886Y-106380688D01*
X172705999Y-106550802D01*
X172705999Y-108633389D01*
X172630574Y-108602147D01*
X172353335Y-108547000D01*
X172070665Y-108547000D01*
X171793426Y-108602147D01*
X171532273Y-108710320D01*
X171297241Y-108867363D01*
X171097363Y-109067241D01*
X170940320Y-109302273D01*
X170832147Y-109563426D01*
X170777000Y-109840665D01*
X170777000Y-110123335D01*
X170832147Y-110400574D01*
X170940320Y-110661727D01*
X171097363Y-110896759D01*
X171297241Y-111096637D01*
X171532273Y-111253680D01*
X171793426Y-111361853D01*
X172070665Y-111417000D01*
X172353335Y-111417000D01*
X172630574Y-111361853D01*
X172705999Y-111330611D01*
X172706000Y-116236707D01*
X172627033Y-116221000D01*
X172304967Y-116221000D01*
X171989088Y-116283832D01*
X171691537Y-116407082D01*
X171423748Y-116586013D01*
X171196013Y-116813748D01*
X171017082Y-117081537D01*
X170893832Y-117379088D01*
X170831000Y-117694967D01*
X170831000Y-118017033D01*
X170893832Y-118332912D01*
X171017082Y-118630463D01*
X171196013Y-118898252D01*
X171423748Y-119125987D01*
X171576421Y-119228000D01*
X147980000Y-119228000D01*
X147980000Y-111081117D01*
X156253000Y-111081117D01*
X156253000Y-111422883D01*
X156319675Y-111758081D01*
X156450463Y-112073831D01*
X156640337Y-112357998D01*
X156882002Y-112599663D01*
X157166169Y-112789537D01*
X157481919Y-112920325D01*
X157817117Y-112987000D01*
X158158883Y-112987000D01*
X158494081Y-112920325D01*
X158809831Y-112789537D01*
X159093998Y-112599663D01*
X159335663Y-112357998D01*
X159525537Y-112073831D01*
X159656325Y-111758081D01*
X159723000Y-111422883D01*
X159723000Y-111081117D01*
X159656325Y-110745919D01*
X159525537Y-110430169D01*
X159335663Y-110146002D01*
X159093998Y-109904337D01*
X158809831Y-109714463D01*
X158494081Y-109583675D01*
X158158883Y-109517000D01*
X157817117Y-109517000D01*
X157481919Y-109583675D01*
X157166169Y-109714463D01*
X156882002Y-109904337D01*
X156640337Y-110146002D01*
X156450463Y-110430169D01*
X156319675Y-110745919D01*
X156253000Y-111081117D01*
X147980000Y-111081117D01*
X147980000Y-106388000D01*
X162645928Y-106388000D01*
X162645928Y-107988000D01*
X162658188Y-108112482D01*
X162694498Y-108232180D01*
X162753463Y-108342494D01*
X162832815Y-108439185D01*
X162929506Y-108518537D01*
X163039820Y-108577502D01*
X163159518Y-108613812D01*
X163284000Y-108626072D01*
X164884000Y-108626072D01*
X165008482Y-108613812D01*
X165128180Y-108577502D01*
X165238494Y-108518537D01*
X165335185Y-108439185D01*
X165348790Y-108422607D01*
X165404273Y-108459680D01*
X165665426Y-108567853D01*
X165942665Y-108623000D01*
X166225335Y-108623000D01*
X166502574Y-108567853D01*
X166763727Y-108459680D01*
X166998759Y-108302637D01*
X167198637Y-108102759D01*
X167355680Y-107867727D01*
X167463853Y-107606574D01*
X167519000Y-107329335D01*
X167519000Y-107046665D01*
X167463853Y-106769426D01*
X167355680Y-106508273D01*
X167198637Y-106273241D01*
X166998759Y-106073363D01*
X166763727Y-105916320D01*
X166502574Y-105808147D01*
X166225335Y-105753000D01*
X165942665Y-105753000D01*
X165665426Y-105808147D01*
X165404273Y-105916320D01*
X165348790Y-105953393D01*
X165335185Y-105936815D01*
X165238494Y-105857463D01*
X165128180Y-105798498D01*
X165008482Y-105762188D01*
X164884000Y-105749928D01*
X163284000Y-105749928D01*
X163159518Y-105762188D01*
X163039820Y-105798498D01*
X162929506Y-105857463D01*
X162832815Y-105936815D01*
X162753463Y-106033506D01*
X162694498Y-106143820D01*
X162658188Y-106263518D01*
X162645928Y-106388000D01*
X147980000Y-106388000D01*
X147980000Y-102532000D01*
X156249928Y-102532000D01*
X156249928Y-104732000D01*
X156262188Y-104856482D01*
X156298498Y-104976180D01*
X156357463Y-105086494D01*
X156436815Y-105183185D01*
X156533506Y-105262537D01*
X156643820Y-105321502D01*
X156763518Y-105357812D01*
X156888000Y-105370072D01*
X159088000Y-105370072D01*
X159212482Y-105357812D01*
X159332180Y-105321502D01*
X159442494Y-105262537D01*
X159539185Y-105183185D01*
X159618537Y-105086494D01*
X159677502Y-104976180D01*
X159713812Y-104856482D01*
X159726072Y-104732000D01*
X159726072Y-103236665D01*
X177127000Y-103236665D01*
X177127000Y-103519335D01*
X177182147Y-103796574D01*
X177290320Y-104057727D01*
X177447363Y-104292759D01*
X177647241Y-104492637D01*
X177882273Y-104649680D01*
X178143426Y-104757853D01*
X178420665Y-104813000D01*
X178703335Y-104813000D01*
X178927001Y-104768509D01*
X178927002Y-109558197D01*
X178885887Y-109599312D01*
X178703335Y-109563000D01*
X178420665Y-109563000D01*
X178143426Y-109618147D01*
X177882273Y-109726320D01*
X177647241Y-109883363D01*
X177447363Y-110083241D01*
X177290320Y-110318273D01*
X177182147Y-110579426D01*
X177127000Y-110856665D01*
X177127000Y-111139335D01*
X177182147Y-111416574D01*
X177290320Y-111677727D01*
X177447363Y-111912759D01*
X177647241Y-112112637D01*
X177882273Y-112269680D01*
X178143426Y-112377853D01*
X178420665Y-112433000D01*
X178703335Y-112433000D01*
X178980574Y-112377853D01*
X179241727Y-112269680D01*
X179476759Y-112112637D01*
X179676637Y-111912759D01*
X179833680Y-111677727D01*
X179941853Y-111416574D01*
X179997000Y-111139335D01*
X179997000Y-110856665D01*
X180175000Y-110856665D01*
X180175000Y-111139335D01*
X180230147Y-111416574D01*
X180338320Y-111677727D01*
X180495363Y-111912759D01*
X180695241Y-112112637D01*
X180930273Y-112269680D01*
X181191426Y-112377853D01*
X181468665Y-112433000D01*
X181751335Y-112433000D01*
X182028574Y-112377853D01*
X182289727Y-112269680D01*
X182524759Y-112112637D01*
X182724637Y-111912759D01*
X182881680Y-111677727D01*
X182989853Y-111416574D01*
X183045000Y-111139335D01*
X183045000Y-110856665D01*
X183223000Y-110856665D01*
X183223000Y-111139335D01*
X183278147Y-111416574D01*
X183386320Y-111677727D01*
X183543363Y-111912759D01*
X183743241Y-112112637D01*
X183978273Y-112269680D01*
X184239426Y-112377853D01*
X184516665Y-112433000D01*
X184799335Y-112433000D01*
X185076574Y-112377853D01*
X185337727Y-112269680D01*
X185572759Y-112112637D01*
X185772637Y-111912759D01*
X185929680Y-111677727D01*
X186037853Y-111416574D01*
X186093000Y-111139335D01*
X186093000Y-110856665D01*
X186037853Y-110579426D01*
X185929680Y-110318273D01*
X185772637Y-110083241D01*
X185572759Y-109883363D01*
X185337727Y-109726320D01*
X185076574Y-109618147D01*
X184799335Y-109563000D01*
X184516665Y-109563000D01*
X184239426Y-109618147D01*
X183978273Y-109726320D01*
X183743241Y-109883363D01*
X183543363Y-110083241D01*
X183386320Y-110318273D01*
X183278147Y-110579426D01*
X183223000Y-110856665D01*
X183045000Y-110856665D01*
X182989853Y-110579426D01*
X182881680Y-110318273D01*
X182724637Y-110083241D01*
X182524759Y-109883363D01*
X182289727Y-109726320D01*
X182028574Y-109618147D01*
X181751335Y-109563000D01*
X181468665Y-109563000D01*
X181191426Y-109618147D01*
X180930273Y-109726320D01*
X180695241Y-109883363D01*
X180495363Y-110083241D01*
X180338320Y-110318273D01*
X180230147Y-110579426D01*
X180175000Y-110856665D01*
X179997000Y-110856665D01*
X179960688Y-110674113D01*
X180197998Y-110436803D01*
X180227002Y-110413000D01*
X180321975Y-110297275D01*
X180392547Y-110165246D01*
X180436004Y-110021985D01*
X180447001Y-109910332D01*
X180447001Y-109910323D01*
X180450677Y-109873000D01*
X180447001Y-109835677D01*
X180447001Y-104215433D01*
X180457615Y-104233131D01*
X180646586Y-104441519D01*
X180872580Y-104609037D01*
X181126913Y-104729246D01*
X181260961Y-104769904D01*
X181483000Y-104647915D01*
X181483000Y-103505000D01*
X181737000Y-103505000D01*
X181737000Y-104647915D01*
X181959039Y-104769904D01*
X182093087Y-104729246D01*
X182347420Y-104609037D01*
X182573414Y-104441519D01*
X182762385Y-104233131D01*
X182907070Y-103991881D01*
X183001909Y-103727040D01*
X182880624Y-103505000D01*
X181737000Y-103505000D01*
X181483000Y-103505000D01*
X181463000Y-103505000D01*
X181463000Y-103251000D01*
X181483000Y-103251000D01*
X181483000Y-103231000D01*
X181737000Y-103231000D01*
X181737000Y-103251000D01*
X182880624Y-103251000D01*
X183001909Y-103028960D01*
X182996193Y-103012999D01*
X183218198Y-103012999D01*
X183259312Y-103054113D01*
X183223000Y-103236665D01*
X183223000Y-103519335D01*
X183278147Y-103796574D01*
X183386320Y-104057727D01*
X183543363Y-104292759D01*
X183743241Y-104492637D01*
X183978273Y-104649680D01*
X184239426Y-104757853D01*
X184516665Y-104813000D01*
X184799335Y-104813000D01*
X185076574Y-104757853D01*
X185337727Y-104649680D01*
X185572759Y-104492637D01*
X185772637Y-104292759D01*
X185929680Y-104057727D01*
X186037853Y-103796574D01*
X186093000Y-103519335D01*
X186093000Y-103236665D01*
X186037853Y-102959426D01*
X185929680Y-102698273D01*
X185772637Y-102463241D01*
X185572759Y-102263363D01*
X185337727Y-102106320D01*
X185076574Y-101998147D01*
X184799335Y-101943000D01*
X184516665Y-101943000D01*
X184334113Y-101979312D01*
X184096803Y-101742001D01*
X184073000Y-101712998D01*
X183957275Y-101618025D01*
X183825246Y-101547453D01*
X183681985Y-101503996D01*
X183570332Y-101492999D01*
X183570321Y-101492999D01*
X183532999Y-101489323D01*
X183495677Y-101492999D01*
X181107332Y-101492999D01*
X181069999Y-101489322D01*
X181032666Y-101492999D01*
X180921013Y-101503996D01*
X180777752Y-101547453D01*
X180645723Y-101618025D01*
X180529998Y-101712998D01*
X180506200Y-101741996D01*
X179720023Y-102528173D01*
X179676637Y-102463241D01*
X179476759Y-102263363D01*
X179241727Y-102106320D01*
X178980574Y-101998147D01*
X178703335Y-101943000D01*
X178420665Y-101943000D01*
X178143426Y-101998147D01*
X177882273Y-102106320D01*
X177647241Y-102263363D01*
X177447363Y-102463241D01*
X177290320Y-102698273D01*
X177182147Y-102959426D01*
X177127000Y-103236665D01*
X159726072Y-103236665D01*
X159726072Y-102532000D01*
X159713812Y-102407518D01*
X159677502Y-102287820D01*
X159618537Y-102177506D01*
X159539185Y-102080815D01*
X159442494Y-102001463D01*
X159332180Y-101942498D01*
X159212482Y-101906188D01*
X159088000Y-101893928D01*
X156888000Y-101893928D01*
X156763518Y-101906188D01*
X156643820Y-101942498D01*
X156533506Y-102001463D01*
X156436815Y-102080815D01*
X156357463Y-102177506D01*
X156298498Y-102287820D01*
X156262188Y-102407518D01*
X156249928Y-102532000D01*
X147980000Y-102532000D01*
X147980000Y-96012000D01*
X151761928Y-96012000D01*
X151761928Y-97536000D01*
X151774188Y-97660482D01*
X151810498Y-97780180D01*
X151869463Y-97890494D01*
X151948815Y-97987185D01*
X152045506Y-98066537D01*
X152155820Y-98125502D01*
X152275518Y-98161812D01*
X152400000Y-98174072D01*
X153924000Y-98174072D01*
X154048482Y-98161812D01*
X154168180Y-98125502D01*
X154278494Y-98066537D01*
X154375185Y-97987185D01*
X154454537Y-97890494D01*
X154513502Y-97780180D01*
X154525822Y-97739565D01*
X157456040Y-97739565D01*
X157523020Y-97979656D01*
X157772048Y-98096756D01*
X158039135Y-98163023D01*
X158314017Y-98175910D01*
X158586133Y-98134922D01*
X158845023Y-98041636D01*
X158960980Y-97979656D01*
X159027960Y-97739565D01*
X158242000Y-96953605D01*
X157456040Y-97739565D01*
X154525822Y-97739565D01*
X154549812Y-97660482D01*
X154562072Y-97536000D01*
X154562072Y-96846017D01*
X156840090Y-96846017D01*
X156881078Y-97118133D01*
X156974364Y-97377023D01*
X157036344Y-97492980D01*
X157276435Y-97559960D01*
X158062395Y-96774000D01*
X158421605Y-96774000D01*
X159207565Y-97559960D01*
X159447656Y-97492980D01*
X159564756Y-97243952D01*
X159631023Y-96976865D01*
X159643910Y-96701983D01*
X159634033Y-96636408D01*
X161925000Y-96636408D01*
X161925000Y-96911592D01*
X161978686Y-97181490D01*
X162083995Y-97435727D01*
X162236880Y-97664535D01*
X162431465Y-97859120D01*
X162660273Y-98012005D01*
X162914510Y-98117314D01*
X163184408Y-98171000D01*
X163459592Y-98171000D01*
X163729490Y-98117314D01*
X163983727Y-98012005D01*
X164137266Y-97909413D01*
X170494192Y-97909413D01*
X170589956Y-98173814D01*
X170879571Y-98314704D01*
X171191108Y-98396384D01*
X171512595Y-98415718D01*
X171831675Y-98371961D01*
X172136088Y-98266795D01*
X172310044Y-98173814D01*
X172405808Y-97909413D01*
X171450000Y-96953605D01*
X170494192Y-97909413D01*
X164137266Y-97909413D01*
X164212535Y-97859120D01*
X164407120Y-97664535D01*
X164560005Y-97435727D01*
X164665314Y-97181490D01*
X164719000Y-96911592D01*
X164719000Y-96836595D01*
X169808282Y-96836595D01*
X169852039Y-97155675D01*
X169957205Y-97460088D01*
X170050186Y-97634044D01*
X170314587Y-97729808D01*
X171270395Y-96774000D01*
X171629605Y-96774000D01*
X172585413Y-97729808D01*
X172849814Y-97634044D01*
X172990704Y-97344429D01*
X173072384Y-97032892D01*
X173091718Y-96711405D01*
X173081434Y-96636408D01*
X173863000Y-96636408D01*
X173863000Y-96911592D01*
X173916686Y-97181490D01*
X174021995Y-97435727D01*
X174174880Y-97664535D01*
X174369465Y-97859120D01*
X174598273Y-98012005D01*
X174852510Y-98117314D01*
X175122408Y-98171000D01*
X175397592Y-98171000D01*
X175667490Y-98117314D01*
X175921727Y-98012005D01*
X176150535Y-97859120D01*
X176270090Y-97739565D01*
X179046040Y-97739565D01*
X179113020Y-97979656D01*
X179362048Y-98096756D01*
X179629135Y-98163023D01*
X179904017Y-98175910D01*
X180176133Y-98134922D01*
X180435023Y-98041636D01*
X180550980Y-97979656D01*
X180570576Y-97909413D01*
X182686192Y-97909413D01*
X182781956Y-98173814D01*
X183071571Y-98314704D01*
X183383108Y-98396384D01*
X183704595Y-98415718D01*
X184023675Y-98371961D01*
X184328088Y-98266795D01*
X184502044Y-98173814D01*
X184597808Y-97909413D01*
X183642000Y-96953605D01*
X182686192Y-97909413D01*
X180570576Y-97909413D01*
X180617960Y-97739565D01*
X179832000Y-96953605D01*
X179046040Y-97739565D01*
X176270090Y-97739565D01*
X176345120Y-97664535D01*
X176498005Y-97435727D01*
X176603314Y-97181490D01*
X176657000Y-96911592D01*
X176657000Y-96846017D01*
X178430090Y-96846017D01*
X178471078Y-97118133D01*
X178564364Y-97377023D01*
X178626344Y-97492980D01*
X178866435Y-97559960D01*
X179652395Y-96774000D01*
X180011605Y-96774000D01*
X180797565Y-97559960D01*
X181037656Y-97492980D01*
X181154756Y-97243952D01*
X181221023Y-96976865D01*
X181227599Y-96836595D01*
X182000282Y-96836595D01*
X182044039Y-97155675D01*
X182149205Y-97460088D01*
X182242186Y-97634044D01*
X182506587Y-97729808D01*
X183462395Y-96774000D01*
X183821605Y-96774000D01*
X184777413Y-97729808D01*
X185041814Y-97634044D01*
X185089509Y-97536000D01*
X189607928Y-97536000D01*
X189620188Y-97660482D01*
X189656498Y-97780180D01*
X189715463Y-97890494D01*
X189794815Y-97987185D01*
X189891506Y-98066537D01*
X190001820Y-98125502D01*
X190121518Y-98161812D01*
X190246000Y-98174072D01*
X190722250Y-98171000D01*
X190881000Y-98012250D01*
X190881000Y-96901000D01*
X191135000Y-96901000D01*
X191135000Y-98012250D01*
X191293750Y-98171000D01*
X191770000Y-98174072D01*
X191894482Y-98161812D01*
X192014180Y-98125502D01*
X192124494Y-98066537D01*
X192221185Y-97987185D01*
X192300537Y-97890494D01*
X192359502Y-97780180D01*
X192395812Y-97660482D01*
X192408072Y-97536000D01*
X192405000Y-97059750D01*
X192246250Y-96901000D01*
X191135000Y-96901000D01*
X190881000Y-96901000D01*
X189769750Y-96901000D01*
X189611000Y-97059750D01*
X189607928Y-97536000D01*
X185089509Y-97536000D01*
X185182704Y-97344429D01*
X185264384Y-97032892D01*
X185283718Y-96711405D01*
X185239961Y-96392325D01*
X185134795Y-96087912D01*
X185094220Y-96012000D01*
X189607928Y-96012000D01*
X189611000Y-96488250D01*
X189769750Y-96647000D01*
X190881000Y-96647000D01*
X190881000Y-95535750D01*
X191135000Y-95535750D01*
X191135000Y-96647000D01*
X192246250Y-96647000D01*
X192405000Y-96488250D01*
X192408072Y-96012000D01*
X192395812Y-95887518D01*
X192359502Y-95767820D01*
X192300537Y-95657506D01*
X192221185Y-95560815D01*
X192124494Y-95481463D01*
X192014180Y-95422498D01*
X191894482Y-95386188D01*
X191770000Y-95373928D01*
X191293750Y-95377000D01*
X191135000Y-95535750D01*
X190881000Y-95535750D01*
X190722250Y-95377000D01*
X190246000Y-95373928D01*
X190121518Y-95386188D01*
X190001820Y-95422498D01*
X189891506Y-95481463D01*
X189794815Y-95560815D01*
X189715463Y-95657506D01*
X189656498Y-95767820D01*
X189620188Y-95887518D01*
X189607928Y-96012000D01*
X185094220Y-96012000D01*
X185041814Y-95913956D01*
X184777413Y-95818192D01*
X183821605Y-96774000D01*
X183462395Y-96774000D01*
X182506587Y-95818192D01*
X182242186Y-95913956D01*
X182101296Y-96203571D01*
X182019616Y-96515108D01*
X182000282Y-96836595D01*
X181227599Y-96836595D01*
X181233910Y-96701983D01*
X181192922Y-96429867D01*
X181099636Y-96170977D01*
X181037656Y-96055020D01*
X180797565Y-95988040D01*
X180011605Y-96774000D01*
X179652395Y-96774000D01*
X178866435Y-95988040D01*
X178626344Y-96055020D01*
X178509244Y-96304048D01*
X178442977Y-96571135D01*
X178430090Y-96846017D01*
X176657000Y-96846017D01*
X176657000Y-96636408D01*
X176603314Y-96366510D01*
X176498005Y-96112273D01*
X176345120Y-95883465D01*
X176270090Y-95808435D01*
X179046040Y-95808435D01*
X179832000Y-96594395D01*
X180617960Y-95808435D01*
X180570577Y-95638587D01*
X182686192Y-95638587D01*
X183642000Y-96594395D01*
X184597808Y-95638587D01*
X184502044Y-95374186D01*
X184212429Y-95233296D01*
X183900892Y-95151616D01*
X183579405Y-95132282D01*
X183260325Y-95176039D01*
X182955912Y-95281205D01*
X182781956Y-95374186D01*
X182686192Y-95638587D01*
X180570577Y-95638587D01*
X180550980Y-95568344D01*
X180301952Y-95451244D01*
X180034865Y-95384977D01*
X179759983Y-95372090D01*
X179487867Y-95413078D01*
X179228977Y-95506364D01*
X179113020Y-95568344D01*
X179046040Y-95808435D01*
X176270090Y-95808435D01*
X176150535Y-95688880D01*
X175921727Y-95535995D01*
X175667490Y-95430686D01*
X175397592Y-95377000D01*
X175122408Y-95377000D01*
X174852510Y-95430686D01*
X174598273Y-95535995D01*
X174369465Y-95688880D01*
X174174880Y-95883465D01*
X174021995Y-96112273D01*
X173916686Y-96366510D01*
X173863000Y-96636408D01*
X173081434Y-96636408D01*
X173047961Y-96392325D01*
X172942795Y-96087912D01*
X172849814Y-95913956D01*
X172585413Y-95818192D01*
X171629605Y-96774000D01*
X171270395Y-96774000D01*
X170314587Y-95818192D01*
X170050186Y-95913956D01*
X169909296Y-96203571D01*
X169827616Y-96515108D01*
X169808282Y-96836595D01*
X164719000Y-96836595D01*
X164719000Y-96636408D01*
X164665314Y-96366510D01*
X164560005Y-96112273D01*
X164407120Y-95883465D01*
X164212535Y-95688880D01*
X164137267Y-95638587D01*
X170494192Y-95638587D01*
X171450000Y-96594395D01*
X172405808Y-95638587D01*
X172310044Y-95374186D01*
X172020429Y-95233296D01*
X171708892Y-95151616D01*
X171387405Y-95132282D01*
X171068325Y-95176039D01*
X170763912Y-95281205D01*
X170589956Y-95374186D01*
X170494192Y-95638587D01*
X164137267Y-95638587D01*
X163983727Y-95535995D01*
X163729490Y-95430686D01*
X163459592Y-95377000D01*
X163184408Y-95377000D01*
X162914510Y-95430686D01*
X162660273Y-95535995D01*
X162431465Y-95688880D01*
X162236880Y-95883465D01*
X162083995Y-96112273D01*
X161978686Y-96366510D01*
X161925000Y-96636408D01*
X159634033Y-96636408D01*
X159602922Y-96429867D01*
X159509636Y-96170977D01*
X159447656Y-96055020D01*
X159207565Y-95988040D01*
X158421605Y-96774000D01*
X158062395Y-96774000D01*
X157276435Y-95988040D01*
X157036344Y-96055020D01*
X156919244Y-96304048D01*
X156852977Y-96571135D01*
X156840090Y-96846017D01*
X154562072Y-96846017D01*
X154562072Y-96012000D01*
X154549812Y-95887518D01*
X154525823Y-95808435D01*
X157456040Y-95808435D01*
X158242000Y-96594395D01*
X159027960Y-95808435D01*
X158960980Y-95568344D01*
X158711952Y-95451244D01*
X158444865Y-95384977D01*
X158169983Y-95372090D01*
X157897867Y-95413078D01*
X157638977Y-95506364D01*
X157523020Y-95568344D01*
X157456040Y-95808435D01*
X154525823Y-95808435D01*
X154513502Y-95767820D01*
X154454537Y-95657506D01*
X154375185Y-95560815D01*
X154278494Y-95481463D01*
X154168180Y-95422498D01*
X154048482Y-95386188D01*
X153924000Y-95373928D01*
X152400000Y-95373928D01*
X152275518Y-95386188D01*
X152155820Y-95422498D01*
X152045506Y-95481463D01*
X151948815Y-95560815D01*
X151869463Y-95657506D01*
X151810498Y-95767820D01*
X151774188Y-95887518D01*
X151761928Y-96012000D01*
X147980000Y-96012000D01*
X147980000Y-94640000D01*
X207112000Y-94640000D01*
X207112001Y-119228000D01*
G37*
X207112001Y-119228000D02*
X184023579Y-119228000D01*
X184176252Y-119125987D01*
X184403987Y-118898252D01*
X184582918Y-118630463D01*
X184706168Y-118332912D01*
X184769000Y-118017033D01*
X184769000Y-117694967D01*
X184706168Y-117379088D01*
X184700177Y-117364624D01*
X186124801Y-115940000D01*
X190739928Y-115940000D01*
X190739928Y-117740000D01*
X190752188Y-117864482D01*
X190788498Y-117984180D01*
X190847463Y-118094494D01*
X190926815Y-118191185D01*
X191023506Y-118270537D01*
X191133820Y-118329502D01*
X191253518Y-118365812D01*
X191378000Y-118378072D01*
X193178000Y-118378072D01*
X193302482Y-118365812D01*
X193422180Y-118329502D01*
X193532494Y-118270537D01*
X193629185Y-118191185D01*
X193708537Y-118094494D01*
X193767502Y-117984180D01*
X193773056Y-117965873D01*
X193839495Y-118032312D01*
X194090905Y-118200299D01*
X194370257Y-118316011D01*
X194666816Y-118375000D01*
X194969184Y-118375000D01*
X195265743Y-118316011D01*
X195545095Y-118200299D01*
X195796505Y-118032312D01*
X196010312Y-117818505D01*
X196178299Y-117567095D01*
X196294011Y-117287743D01*
X196353000Y-116991184D01*
X196353000Y-116688816D01*
X196294011Y-116392257D01*
X196178299Y-116112905D01*
X196010312Y-115861495D01*
X195796505Y-115647688D01*
X195545095Y-115479701D01*
X195265743Y-115363989D01*
X194969184Y-115305000D01*
X194666816Y-115305000D01*
X194370257Y-115363989D01*
X194090905Y-115479701D01*
X193839495Y-115647688D01*
X193773056Y-115714127D01*
X193767502Y-115695820D01*
X193708537Y-115585506D01*
X193629185Y-115488815D01*
X193532494Y-115409463D01*
X193422180Y-115350498D01*
X193302482Y-115314188D01*
X193178000Y-115301928D01*
X191378000Y-115301928D01*
X191253518Y-115314188D01*
X191133820Y-115350498D01*
X191023506Y-115409463D01*
X190926815Y-115488815D01*
X190847463Y-115585506D01*
X190788498Y-115695820D01*
X190752188Y-115815518D01*
X190739928Y-115940000D01*
X186124801Y-115940000D01*
X189596005Y-112468797D01*
X189625002Y-112445000D01*
X189719975Y-112329275D01*
X189790547Y-112197246D01*
X189834004Y-112053985D01*
X189845001Y-111942332D01*
X189845001Y-111942323D01*
X189848677Y-111905000D01*
X189845001Y-111867677D01*
X189845001Y-106438000D01*
X193908928Y-106438000D01*
X193908928Y-107938000D01*
X193921188Y-108062482D01*
X193957498Y-108182180D01*
X194016463Y-108292494D01*
X194095815Y-108389185D01*
X194192506Y-108468537D01*
X194302820Y-108527502D01*
X194422518Y-108563812D01*
X194547000Y-108576072D01*
X195597000Y-108576072D01*
X195721482Y-108563812D01*
X195841180Y-108527502D01*
X195905902Y-108492907D01*
X196114601Y-108556215D01*
X196342000Y-108578612D01*
X196569400Y-108556215D01*
X196788060Y-108489885D01*
X196977000Y-108388894D01*
X197165941Y-108489885D01*
X197384601Y-108556215D01*
X197612000Y-108578612D01*
X197839400Y-108556215D01*
X198058060Y-108489885D01*
X198259579Y-108382171D01*
X198436212Y-108237212D01*
X198581171Y-108060579D01*
X198688885Y-107859059D01*
X198755215Y-107640399D01*
X198772000Y-107469978D01*
X198772000Y-106906021D01*
X198755215Y-106735600D01*
X198688885Y-106516940D01*
X198581171Y-106315421D01*
X198436212Y-106138788D01*
X198259578Y-105993829D01*
X198058059Y-105886115D01*
X197839399Y-105819785D01*
X197612000Y-105797388D01*
X197384600Y-105819785D01*
X197165940Y-105886115D01*
X196977000Y-105987106D01*
X196788059Y-105886115D01*
X196569399Y-105819785D01*
X196342000Y-105797388D01*
X196114600Y-105819785D01*
X195905902Y-105883093D01*
X195841180Y-105848498D01*
X195721482Y-105812188D01*
X195597000Y-105799928D01*
X194547000Y-105799928D01*
X194422518Y-105812188D01*
X194302820Y-105848498D01*
X194192506Y-105907463D01*
X194095815Y-105986815D01*
X194016463Y-106083506D01*
X193957498Y-106193820D01*
X193921188Y-106313518D01*
X193908928Y-106438000D01*
X189845001Y-106438000D01*
X189845001Y-104091800D01*
X195796430Y-98140372D01*
X195950408Y-98171000D01*
X196225592Y-98171000D01*
X196495490Y-98117314D01*
X196749727Y-98012005D01*
X196978535Y-97859120D01*
X197173120Y-97664535D01*
X197326005Y-97435727D01*
X197431314Y-97181490D01*
X197485000Y-96911592D01*
X197485000Y-96636408D01*
X199771000Y-96636408D01*
X199771000Y-96911592D01*
X199824686Y-97181490D01*
X199929995Y-97435727D01*
X200082880Y-97664535D01*
X200277465Y-97859120D01*
X200506273Y-98012005D01*
X200760510Y-98117314D01*
X201030408Y-98171000D01*
X201305592Y-98171000D01*
X201575490Y-98117314D01*
X201829727Y-98012005D01*
X202058535Y-97859120D01*
X202253120Y-97664535D01*
X202406005Y-97435727D01*
X202511314Y-97181490D01*
X202565000Y-96911592D01*
X202565000Y-96636408D01*
X202511314Y-96366510D01*
X202406005Y-96112273D01*
X202253120Y-95883465D01*
X202058535Y-95688880D01*
X201829727Y-95535995D01*
X201575490Y-95430686D01*
X201305592Y-95377000D01*
X201030408Y-95377000D01*
X200760510Y-95430686D01*
X200506273Y-95535995D01*
X200277465Y-95688880D01*
X200082880Y-95883465D01*
X199929995Y-96112273D01*
X199824686Y-96366510D01*
X199771000Y-96636408D01*
X197485000Y-96636408D01*
X197431314Y-96366510D01*
X197326005Y-96112273D01*
X197173120Y-95883465D01*
X196978535Y-95688880D01*
X196749727Y-95535995D01*
X196495490Y-95430686D01*
X196225592Y-95377000D01*
X195950408Y-95377000D01*
X195680510Y-95430686D01*
X195426273Y-95535995D01*
X195197465Y-95688880D01*
X195002880Y-95883465D01*
X194849995Y-96112273D01*
X194744686Y-96366510D01*
X194691000Y-96636408D01*
X194691000Y-96911592D01*
X194721628Y-97065570D01*
X189174501Y-102612698D01*
X189074637Y-102463241D01*
X188874759Y-102263363D01*
X188639727Y-102106320D01*
X188378574Y-101998147D01*
X188101335Y-101943000D01*
X187818665Y-101943000D01*
X187541426Y-101998147D01*
X187280273Y-102106320D01*
X187045241Y-102263363D01*
X186845363Y-102463241D01*
X186688320Y-102698273D01*
X186580147Y-102959426D01*
X186525000Y-103236665D01*
X186525000Y-103519335D01*
X186580147Y-103796574D01*
X186688320Y-104057727D01*
X186845363Y-104292759D01*
X187045241Y-104492637D01*
X187280273Y-104649680D01*
X187541426Y-104757853D01*
X187818665Y-104813000D01*
X188101335Y-104813000D01*
X188325002Y-104768509D01*
X188325001Y-109607491D01*
X188101335Y-109563000D01*
X187818665Y-109563000D01*
X187541426Y-109618147D01*
X187280273Y-109726320D01*
X187045241Y-109883363D01*
X186845363Y-110083241D01*
X186688320Y-110318273D01*
X186580147Y-110579426D01*
X186525000Y-110856665D01*
X186525000Y-111139335D01*
X186580147Y-111416574D01*
X186688320Y-111677727D01*
X186845363Y-111912759D01*
X187045241Y-112112637D01*
X187280273Y-112269680D01*
X187538540Y-112376658D01*
X183625376Y-116289823D01*
X183610912Y-116283832D01*
X183295033Y-116221000D01*
X182972967Y-116221000D01*
X182657088Y-116283832D01*
X182359537Y-116407082D01*
X182091748Y-116586013D01*
X181864013Y-116813748D01*
X181685082Y-117081537D01*
X181561832Y-117379088D01*
X181499000Y-117694967D01*
X181499000Y-118017033D01*
X181561832Y-118332912D01*
X181685082Y-118630463D01*
X181864013Y-118898252D01*
X182091748Y-119125987D01*
X182244421Y-119228000D01*
X180467579Y-119228000D01*
X180620252Y-119125987D01*
X180847987Y-118898252D01*
X181026918Y-118630463D01*
X181150168Y-118332912D01*
X181213000Y-118017033D01*
X181213000Y-117694967D01*
X181150168Y-117379088D01*
X181026918Y-117081537D01*
X180847987Y-116813748D01*
X180620252Y-116586013D01*
X180352463Y-116407082D01*
X180054912Y-116283832D01*
X179739033Y-116221000D01*
X179416967Y-116221000D01*
X179101088Y-116283832D01*
X178803537Y-116407082D01*
X178535748Y-116586013D01*
X178308013Y-116813748D01*
X178129082Y-117081537D01*
X178005832Y-117379088D01*
X177943000Y-117694967D01*
X177943000Y-118017033D01*
X178005832Y-118332912D01*
X178129082Y-118630463D01*
X178308013Y-118898252D01*
X178535748Y-119125987D01*
X178688421Y-119228000D01*
X176892118Y-119228000D01*
X176977808Y-118991413D01*
X176022000Y-118035605D01*
X175066192Y-118991413D01*
X175151882Y-119228000D01*
X173355579Y-119228000D01*
X173508252Y-119125987D01*
X173735987Y-118898252D01*
X173914918Y-118630463D01*
X174038168Y-118332912D01*
X174101000Y-118017033D01*
X174101000Y-117918595D01*
X174380282Y-117918595D01*
X174424039Y-118237675D01*
X174529205Y-118542088D01*
X174622186Y-118716044D01*
X174886587Y-118811808D01*
X175842395Y-117856000D01*
X176201605Y-117856000D01*
X177157413Y-118811808D01*
X177421814Y-118716044D01*
X177562704Y-118426429D01*
X177644384Y-118114892D01*
X177663718Y-117793405D01*
X177619961Y-117474325D01*
X177514795Y-117169912D01*
X177421814Y-116995956D01*
X177157413Y-116900192D01*
X176201605Y-117856000D01*
X175842395Y-117856000D01*
X174886587Y-116900192D01*
X174622186Y-116995956D01*
X174481296Y-117285571D01*
X174399616Y-117597108D01*
X174380282Y-117918595D01*
X174101000Y-117918595D01*
X174101000Y-117694967D01*
X174038168Y-117379088D01*
X174032034Y-117364279D01*
X174047858Y-117344998D01*
X174100973Y-117280278D01*
X174171545Y-117148248D01*
X174191781Y-117081537D01*
X174215002Y-117004987D01*
X174225999Y-116893334D01*
X174225999Y-116893325D01*
X174229675Y-116856002D01*
X174225999Y-116818679D01*
X174225999Y-116720587D01*
X175066192Y-116720587D01*
X176022000Y-117676395D01*
X176977808Y-116720587D01*
X176882044Y-116456186D01*
X176592429Y-116315296D01*
X176280892Y-116233616D01*
X175959405Y-116214282D01*
X175640325Y-116258039D01*
X175335912Y-116363205D01*
X175161956Y-116456186D01*
X175066192Y-116720587D01*
X174225999Y-116720587D01*
X174225999Y-106273321D01*
X174229675Y-106235998D01*
X174225999Y-106198675D01*
X174225999Y-106198666D01*
X174215002Y-106087013D01*
X174171545Y-105943752D01*
X174100973Y-105811723D01*
X174060321Y-105762188D01*
X174029798Y-105724995D01*
X174029794Y-105724991D01*
X174006000Y-105695998D01*
X173977008Y-105672205D01*
X173610688Y-105305886D01*
X173647000Y-105123335D01*
X173647000Y-104840665D01*
X173591853Y-104563426D01*
X173483680Y-104302273D01*
X173326637Y-104067241D01*
X173126759Y-103867363D01*
X172891727Y-103710320D01*
X172630574Y-103602147D01*
X172353335Y-103547000D01*
X172070665Y-103547000D01*
X171793426Y-103602147D01*
X171532273Y-103710320D01*
X171297241Y-103867363D01*
X171097363Y-104067241D01*
X170940320Y-104302273D01*
X170832147Y-104563426D01*
X170777000Y-104840665D01*
X170777000Y-105123335D01*
X170832147Y-105400574D01*
X170940320Y-105661727D01*
X171097363Y-105896759D01*
X171297241Y-106096637D01*
X171532273Y-106253680D01*
X171793426Y-106361853D01*
X172070665Y-106417000D01*
X172353335Y-106417000D01*
X172535886Y-106380688D01*
X172705999Y-106550802D01*
X172705999Y-108633389D01*
X172630574Y-108602147D01*
X172353335Y-108547000D01*
X172070665Y-108547000D01*
X171793426Y-108602147D01*
X171532273Y-108710320D01*
X171297241Y-108867363D01*
X171097363Y-109067241D01*
X170940320Y-109302273D01*
X170832147Y-109563426D01*
X170777000Y-109840665D01*
X170777000Y-110123335D01*
X170832147Y-110400574D01*
X170940320Y-110661727D01*
X171097363Y-110896759D01*
X171297241Y-111096637D01*
X171532273Y-111253680D01*
X171793426Y-111361853D01*
X172070665Y-111417000D01*
X172353335Y-111417000D01*
X172630574Y-111361853D01*
X172705999Y-111330611D01*
X172706000Y-116236707D01*
X172627033Y-116221000D01*
X172304967Y-116221000D01*
X171989088Y-116283832D01*
X171691537Y-116407082D01*
X171423748Y-116586013D01*
X171196013Y-116813748D01*
X171017082Y-117081537D01*
X170893832Y-117379088D01*
X170831000Y-117694967D01*
X170831000Y-118017033D01*
X170893832Y-118332912D01*
X171017082Y-118630463D01*
X171196013Y-118898252D01*
X171423748Y-119125987D01*
X171576421Y-119228000D01*
X147980000Y-119228000D01*
X147980000Y-111081117D01*
X156253000Y-111081117D01*
X156253000Y-111422883D01*
X156319675Y-111758081D01*
X156450463Y-112073831D01*
X156640337Y-112357998D01*
X156882002Y-112599663D01*
X157166169Y-112789537D01*
X157481919Y-112920325D01*
X157817117Y-112987000D01*
X158158883Y-112987000D01*
X158494081Y-112920325D01*
X158809831Y-112789537D01*
X159093998Y-112599663D01*
X159335663Y-112357998D01*
X159525537Y-112073831D01*
X159656325Y-111758081D01*
X159723000Y-111422883D01*
X159723000Y-111081117D01*
X159656325Y-110745919D01*
X159525537Y-110430169D01*
X159335663Y-110146002D01*
X159093998Y-109904337D01*
X158809831Y-109714463D01*
X158494081Y-109583675D01*
X158158883Y-109517000D01*
X157817117Y-109517000D01*
X157481919Y-109583675D01*
X157166169Y-109714463D01*
X156882002Y-109904337D01*
X156640337Y-110146002D01*
X156450463Y-110430169D01*
X156319675Y-110745919D01*
X156253000Y-111081117D01*
X147980000Y-111081117D01*
X147980000Y-106388000D01*
X162645928Y-106388000D01*
X162645928Y-107988000D01*
X162658188Y-108112482D01*
X162694498Y-108232180D01*
X162753463Y-108342494D01*
X162832815Y-108439185D01*
X162929506Y-108518537D01*
X163039820Y-108577502D01*
X163159518Y-108613812D01*
X163284000Y-108626072D01*
X164884000Y-108626072D01*
X165008482Y-108613812D01*
X165128180Y-108577502D01*
X165238494Y-108518537D01*
X165335185Y-108439185D01*
X165348790Y-108422607D01*
X165404273Y-108459680D01*
X165665426Y-108567853D01*
X165942665Y-108623000D01*
X166225335Y-108623000D01*
X166502574Y-108567853D01*
X166763727Y-108459680D01*
X166998759Y-108302637D01*
X167198637Y-108102759D01*
X167355680Y-107867727D01*
X167463853Y-107606574D01*
X167519000Y-107329335D01*
X167519000Y-107046665D01*
X167463853Y-106769426D01*
X167355680Y-106508273D01*
X167198637Y-106273241D01*
X166998759Y-106073363D01*
X166763727Y-105916320D01*
X166502574Y-105808147D01*
X166225335Y-105753000D01*
X165942665Y-105753000D01*
X165665426Y-105808147D01*
X165404273Y-105916320D01*
X165348790Y-105953393D01*
X165335185Y-105936815D01*
X165238494Y-105857463D01*
X165128180Y-105798498D01*
X165008482Y-105762188D01*
X164884000Y-105749928D01*
X163284000Y-105749928D01*
X163159518Y-105762188D01*
X163039820Y-105798498D01*
X162929506Y-105857463D01*
X162832815Y-105936815D01*
X162753463Y-106033506D01*
X162694498Y-106143820D01*
X162658188Y-106263518D01*
X162645928Y-106388000D01*
X147980000Y-106388000D01*
X147980000Y-102532000D01*
X156249928Y-102532000D01*
X156249928Y-104732000D01*
X156262188Y-104856482D01*
X156298498Y-104976180D01*
X156357463Y-105086494D01*
X156436815Y-105183185D01*
X156533506Y-105262537D01*
X156643820Y-105321502D01*
X156763518Y-105357812D01*
X156888000Y-105370072D01*
X159088000Y-105370072D01*
X159212482Y-105357812D01*
X159332180Y-105321502D01*
X159442494Y-105262537D01*
X159539185Y-105183185D01*
X159618537Y-105086494D01*
X159677502Y-104976180D01*
X159713812Y-104856482D01*
X159726072Y-104732000D01*
X159726072Y-103236665D01*
X177127000Y-103236665D01*
X177127000Y-103519335D01*
X177182147Y-103796574D01*
X177290320Y-104057727D01*
X177447363Y-104292759D01*
X177647241Y-104492637D01*
X177882273Y-104649680D01*
X178143426Y-104757853D01*
X178420665Y-104813000D01*
X178703335Y-104813000D01*
X178927001Y-104768509D01*
X178927002Y-109558197D01*
X178885887Y-109599312D01*
X178703335Y-109563000D01*
X178420665Y-109563000D01*
X178143426Y-109618147D01*
X177882273Y-109726320D01*
X177647241Y-109883363D01*
X177447363Y-110083241D01*
X177290320Y-110318273D01*
X177182147Y-110579426D01*
X177127000Y-110856665D01*
X177127000Y-111139335D01*
X177182147Y-111416574D01*
X177290320Y-111677727D01*
X177447363Y-111912759D01*
X177647241Y-112112637D01*
X177882273Y-112269680D01*
X178143426Y-112377853D01*
X178420665Y-112433000D01*
X178703335Y-112433000D01*
X178980574Y-112377853D01*
X179241727Y-112269680D01*
X179476759Y-112112637D01*
X179676637Y-111912759D01*
X179833680Y-111677727D01*
X179941853Y-111416574D01*
X179997000Y-111139335D01*
X179997000Y-110856665D01*
X180175000Y-110856665D01*
X180175000Y-111139335D01*
X180230147Y-111416574D01*
X180338320Y-111677727D01*
X180495363Y-111912759D01*
X180695241Y-112112637D01*
X180930273Y-112269680D01*
X181191426Y-112377853D01*
X181468665Y-112433000D01*
X181751335Y-112433000D01*
X182028574Y-112377853D01*
X182289727Y-112269680D01*
X182524759Y-112112637D01*
X182724637Y-111912759D01*
X182881680Y-111677727D01*
X182989853Y-111416574D01*
X183045000Y-111139335D01*
X183045000Y-110856665D01*
X183223000Y-110856665D01*
X183223000Y-111139335D01*
X183278147Y-111416574D01*
X183386320Y-111677727D01*
X183543363Y-111912759D01*
X183743241Y-112112637D01*
X183978273Y-112269680D01*
X184239426Y-112377853D01*
X184516665Y-112433000D01*
X184799335Y-112433000D01*
X185076574Y-112377853D01*
X185337727Y-112269680D01*
X185572759Y-112112637D01*
X185772637Y-111912759D01*
X185929680Y-111677727D01*
X186037853Y-111416574D01*
X186093000Y-111139335D01*
X186093000Y-110856665D01*
X186037853Y-110579426D01*
X185929680Y-110318273D01*
X185772637Y-110083241D01*
X185572759Y-109883363D01*
X185337727Y-109726320D01*
X185076574Y-109618147D01*
X184799335Y-109563000D01*
X184516665Y-109563000D01*
X184239426Y-109618147D01*
X183978273Y-109726320D01*
X183743241Y-109883363D01*
X183543363Y-110083241D01*
X183386320Y-110318273D01*
X183278147Y-110579426D01*
X183223000Y-110856665D01*
X183045000Y-110856665D01*
X182989853Y-110579426D01*
X182881680Y-110318273D01*
X182724637Y-110083241D01*
X182524759Y-109883363D01*
X182289727Y-109726320D01*
X182028574Y-109618147D01*
X181751335Y-109563000D01*
X181468665Y-109563000D01*
X181191426Y-109618147D01*
X180930273Y-109726320D01*
X180695241Y-109883363D01*
X180495363Y-110083241D01*
X180338320Y-110318273D01*
X180230147Y-110579426D01*
X180175000Y-110856665D01*
X179997000Y-110856665D01*
X179960688Y-110674113D01*
X180197998Y-110436803D01*
X180227002Y-110413000D01*
X180321975Y-110297275D01*
X180392547Y-110165246D01*
X180436004Y-110021985D01*
X180447001Y-109910332D01*
X180447001Y-109910323D01*
X180450677Y-109873000D01*
X180447001Y-109835677D01*
X180447001Y-104215433D01*
X180457615Y-104233131D01*
X180646586Y-104441519D01*
X180872580Y-104609037D01*
X181126913Y-104729246D01*
X181260961Y-104769904D01*
X181483000Y-104647915D01*
X181483000Y-103505000D01*
X181737000Y-103505000D01*
X181737000Y-104647915D01*
X181959039Y-104769904D01*
X182093087Y-104729246D01*
X182347420Y-104609037D01*
X182573414Y-104441519D01*
X182762385Y-104233131D01*
X182907070Y-103991881D01*
X183001909Y-103727040D01*
X182880624Y-103505000D01*
X181737000Y-103505000D01*
X181483000Y-103505000D01*
X181463000Y-103505000D01*
X181463000Y-103251000D01*
X181483000Y-103251000D01*
X181483000Y-103231000D01*
X181737000Y-103231000D01*
X181737000Y-103251000D01*
X182880624Y-103251000D01*
X183001909Y-103028960D01*
X182996193Y-103012999D01*
X183218198Y-103012999D01*
X183259312Y-103054113D01*
X183223000Y-103236665D01*
X183223000Y-103519335D01*
X183278147Y-103796574D01*
X183386320Y-104057727D01*
X183543363Y-104292759D01*
X183743241Y-104492637D01*
X183978273Y-104649680D01*
X184239426Y-104757853D01*
X184516665Y-104813000D01*
X184799335Y-104813000D01*
X185076574Y-104757853D01*
X185337727Y-104649680D01*
X185572759Y-104492637D01*
X185772637Y-104292759D01*
X185929680Y-104057727D01*
X186037853Y-103796574D01*
X186093000Y-103519335D01*
X186093000Y-103236665D01*
X186037853Y-102959426D01*
X185929680Y-102698273D01*
X185772637Y-102463241D01*
X185572759Y-102263363D01*
X185337727Y-102106320D01*
X185076574Y-101998147D01*
X184799335Y-101943000D01*
X184516665Y-101943000D01*
X184334113Y-101979312D01*
X184096803Y-101742001D01*
X184073000Y-101712998D01*
X183957275Y-101618025D01*
X183825246Y-101547453D01*
X183681985Y-101503996D01*
X183570332Y-101492999D01*
X183570321Y-101492999D01*
X183532999Y-101489323D01*
X183495677Y-101492999D01*
X181107332Y-101492999D01*
X181069999Y-101489322D01*
X181032666Y-101492999D01*
X180921013Y-101503996D01*
X180777752Y-101547453D01*
X180645723Y-101618025D01*
X180529998Y-101712998D01*
X180506200Y-101741996D01*
X179720023Y-102528173D01*
X179676637Y-102463241D01*
X179476759Y-102263363D01*
X179241727Y-102106320D01*
X178980574Y-101998147D01*
X178703335Y-101943000D01*
X178420665Y-101943000D01*
X178143426Y-101998147D01*
X177882273Y-102106320D01*
X177647241Y-102263363D01*
X177447363Y-102463241D01*
X177290320Y-102698273D01*
X177182147Y-102959426D01*
X177127000Y-103236665D01*
X159726072Y-103236665D01*
X159726072Y-102532000D01*
X159713812Y-102407518D01*
X159677502Y-102287820D01*
X159618537Y-102177506D01*
X159539185Y-102080815D01*
X159442494Y-102001463D01*
X159332180Y-101942498D01*
X159212482Y-101906188D01*
X159088000Y-101893928D01*
X156888000Y-101893928D01*
X156763518Y-101906188D01*
X156643820Y-101942498D01*
X156533506Y-102001463D01*
X156436815Y-102080815D01*
X156357463Y-102177506D01*
X156298498Y-102287820D01*
X156262188Y-102407518D01*
X156249928Y-102532000D01*
X147980000Y-102532000D01*
X147980000Y-96012000D01*
X151761928Y-96012000D01*
X151761928Y-97536000D01*
X151774188Y-97660482D01*
X151810498Y-97780180D01*
X151869463Y-97890494D01*
X151948815Y-97987185D01*
X152045506Y-98066537D01*
X152155820Y-98125502D01*
X152275518Y-98161812D01*
X152400000Y-98174072D01*
X153924000Y-98174072D01*
X154048482Y-98161812D01*
X154168180Y-98125502D01*
X154278494Y-98066537D01*
X154375185Y-97987185D01*
X154454537Y-97890494D01*
X154513502Y-97780180D01*
X154525822Y-97739565D01*
X157456040Y-97739565D01*
X157523020Y-97979656D01*
X157772048Y-98096756D01*
X158039135Y-98163023D01*
X158314017Y-98175910D01*
X158586133Y-98134922D01*
X158845023Y-98041636D01*
X158960980Y-97979656D01*
X159027960Y-97739565D01*
X158242000Y-96953605D01*
X157456040Y-97739565D01*
X154525822Y-97739565D01*
X154549812Y-97660482D01*
X154562072Y-97536000D01*
X154562072Y-96846017D01*
X156840090Y-96846017D01*
X156881078Y-97118133D01*
X156974364Y-97377023D01*
X157036344Y-97492980D01*
X157276435Y-97559960D01*
X158062395Y-96774000D01*
X158421605Y-96774000D01*
X159207565Y-97559960D01*
X159447656Y-97492980D01*
X159564756Y-97243952D01*
X159631023Y-96976865D01*
X159643910Y-96701983D01*
X159634033Y-96636408D01*
X161925000Y-96636408D01*
X161925000Y-96911592D01*
X161978686Y-97181490D01*
X162083995Y-97435727D01*
X162236880Y-97664535D01*
X162431465Y-97859120D01*
X162660273Y-98012005D01*
X162914510Y-98117314D01*
X163184408Y-98171000D01*
X163459592Y-98171000D01*
X163729490Y-98117314D01*
X163983727Y-98012005D01*
X164137266Y-97909413D01*
X170494192Y-97909413D01*
X170589956Y-98173814D01*
X170879571Y-98314704D01*
X171191108Y-98396384D01*
X171512595Y-98415718D01*
X171831675Y-98371961D01*
X172136088Y-98266795D01*
X172310044Y-98173814D01*
X172405808Y-97909413D01*
X171450000Y-96953605D01*
X170494192Y-97909413D01*
X164137266Y-97909413D01*
X164212535Y-97859120D01*
X164407120Y-97664535D01*
X164560005Y-97435727D01*
X164665314Y-97181490D01*
X164719000Y-96911592D01*
X164719000Y-96836595D01*
X169808282Y-96836595D01*
X169852039Y-97155675D01*
X169957205Y-97460088D01*
X170050186Y-97634044D01*
X170314587Y-97729808D01*
X171270395Y-96774000D01*
X171629605Y-96774000D01*
X172585413Y-97729808D01*
X172849814Y-97634044D01*
X172990704Y-97344429D01*
X173072384Y-97032892D01*
X173091718Y-96711405D01*
X173081434Y-96636408D01*
X173863000Y-96636408D01*
X173863000Y-96911592D01*
X173916686Y-97181490D01*
X174021995Y-97435727D01*
X174174880Y-97664535D01*
X174369465Y-97859120D01*
X174598273Y-98012005D01*
X174852510Y-98117314D01*
X175122408Y-98171000D01*
X175397592Y-98171000D01*
X175667490Y-98117314D01*
X175921727Y-98012005D01*
X176150535Y-97859120D01*
X176270090Y-97739565D01*
X179046040Y-97739565D01*
X179113020Y-97979656D01*
X179362048Y-98096756D01*
X179629135Y-98163023D01*
X179904017Y-98175910D01*
X180176133Y-98134922D01*
X180435023Y-98041636D01*
X180550980Y-97979656D01*
X180570576Y-97909413D01*
X182686192Y-97909413D01*
X182781956Y-98173814D01*
X183071571Y-98314704D01*
X183383108Y-98396384D01*
X183704595Y-98415718D01*
X184023675Y-98371961D01*
X184328088Y-98266795D01*
X184502044Y-98173814D01*
X184597808Y-97909413D01*
X183642000Y-96953605D01*
X182686192Y-97909413D01*
X180570576Y-97909413D01*
X180617960Y-97739565D01*
X179832000Y-96953605D01*
X179046040Y-97739565D01*
X176270090Y-97739565D01*
X176345120Y-97664535D01*
X176498005Y-97435727D01*
X176603314Y-97181490D01*
X176657000Y-96911592D01*
X176657000Y-96846017D01*
X178430090Y-96846017D01*
X178471078Y-97118133D01*
X178564364Y-97377023D01*
X178626344Y-97492980D01*
X178866435Y-97559960D01*
X179652395Y-96774000D01*
X180011605Y-96774000D01*
X180797565Y-97559960D01*
X181037656Y-97492980D01*
X181154756Y-97243952D01*
X181221023Y-96976865D01*
X181227599Y-96836595D01*
X182000282Y-96836595D01*
X182044039Y-97155675D01*
X182149205Y-97460088D01*
X182242186Y-97634044D01*
X182506587Y-97729808D01*
X183462395Y-96774000D01*
X183821605Y-96774000D01*
X184777413Y-97729808D01*
X185041814Y-97634044D01*
X185089509Y-97536000D01*
X189607928Y-97536000D01*
X189620188Y-97660482D01*
X189656498Y-97780180D01*
X189715463Y-97890494D01*
X189794815Y-97987185D01*
X189891506Y-98066537D01*
X190001820Y-98125502D01*
X190121518Y-98161812D01*
X190246000Y-98174072D01*
X190722250Y-98171000D01*
X190881000Y-98012250D01*
X190881000Y-96901000D01*
X191135000Y-96901000D01*
X191135000Y-98012250D01*
X191293750Y-98171000D01*
X191770000Y-98174072D01*
X191894482Y-98161812D01*
X192014180Y-98125502D01*
X192124494Y-98066537D01*
X192221185Y-97987185D01*
X192300537Y-97890494D01*
X192359502Y-97780180D01*
X192395812Y-97660482D01*
X192408072Y-97536000D01*
X192405000Y-97059750D01*
X192246250Y-96901000D01*
X191135000Y-96901000D01*
X190881000Y-96901000D01*
X189769750Y-96901000D01*
X189611000Y-97059750D01*
X189607928Y-97536000D01*
X185089509Y-97536000D01*
X185182704Y-97344429D01*
X185264384Y-97032892D01*
X185283718Y-96711405D01*
X185239961Y-96392325D01*
X185134795Y-96087912D01*
X185094220Y-96012000D01*
X189607928Y-96012000D01*
X189611000Y-96488250D01*
X189769750Y-96647000D01*
X190881000Y-96647000D01*
X190881000Y-95535750D01*
X191135000Y-95535750D01*
X191135000Y-96647000D01*
X192246250Y-96647000D01*
X192405000Y-96488250D01*
X192408072Y-96012000D01*
X192395812Y-95887518D01*
X192359502Y-95767820D01*
X192300537Y-95657506D01*
X192221185Y-95560815D01*
X192124494Y-95481463D01*
X192014180Y-95422498D01*
X191894482Y-95386188D01*
X191770000Y-95373928D01*
X191293750Y-95377000D01*
X191135000Y-95535750D01*
X190881000Y-95535750D01*
X190722250Y-95377000D01*
X190246000Y-95373928D01*
X190121518Y-95386188D01*
X190001820Y-95422498D01*
X189891506Y-95481463D01*
X189794815Y-95560815D01*
X189715463Y-95657506D01*
X189656498Y-95767820D01*
X189620188Y-95887518D01*
X189607928Y-96012000D01*
X185094220Y-96012000D01*
X185041814Y-95913956D01*
X184777413Y-95818192D01*
X183821605Y-96774000D01*
X183462395Y-96774000D01*
X182506587Y-95818192D01*
X182242186Y-95913956D01*
X182101296Y-96203571D01*
X182019616Y-96515108D01*
X182000282Y-96836595D01*
X181227599Y-96836595D01*
X181233910Y-96701983D01*
X181192922Y-96429867D01*
X181099636Y-96170977D01*
X181037656Y-96055020D01*
X180797565Y-95988040D01*
X180011605Y-96774000D01*
X179652395Y-96774000D01*
X178866435Y-95988040D01*
X178626344Y-96055020D01*
X178509244Y-96304048D01*
X178442977Y-96571135D01*
X178430090Y-96846017D01*
X176657000Y-96846017D01*
X176657000Y-96636408D01*
X176603314Y-96366510D01*
X176498005Y-96112273D01*
X176345120Y-95883465D01*
X176270090Y-95808435D01*
X179046040Y-95808435D01*
X179832000Y-96594395D01*
X180617960Y-95808435D01*
X180570577Y-95638587D01*
X182686192Y-95638587D01*
X183642000Y-96594395D01*
X184597808Y-95638587D01*
X184502044Y-95374186D01*
X184212429Y-95233296D01*
X183900892Y-95151616D01*
X183579405Y-95132282D01*
X183260325Y-95176039D01*
X182955912Y-95281205D01*
X182781956Y-95374186D01*
X182686192Y-95638587D01*
X180570577Y-95638587D01*
X180550980Y-95568344D01*
X180301952Y-95451244D01*
X180034865Y-95384977D01*
X179759983Y-95372090D01*
X179487867Y-95413078D01*
X179228977Y-95506364D01*
X179113020Y-95568344D01*
X179046040Y-95808435D01*
X176270090Y-95808435D01*
X176150535Y-95688880D01*
X175921727Y-95535995D01*
X175667490Y-95430686D01*
X175397592Y-95377000D01*
X175122408Y-95377000D01*
X174852510Y-95430686D01*
X174598273Y-95535995D01*
X174369465Y-95688880D01*
X174174880Y-95883465D01*
X174021995Y-96112273D01*
X173916686Y-96366510D01*
X173863000Y-96636408D01*
X173081434Y-96636408D01*
X173047961Y-96392325D01*
X172942795Y-96087912D01*
X172849814Y-95913956D01*
X172585413Y-95818192D01*
X171629605Y-96774000D01*
X171270395Y-96774000D01*
X170314587Y-95818192D01*
X170050186Y-95913956D01*
X169909296Y-96203571D01*
X169827616Y-96515108D01*
X169808282Y-96836595D01*
X164719000Y-96836595D01*
X164719000Y-96636408D01*
X164665314Y-96366510D01*
X164560005Y-96112273D01*
X164407120Y-95883465D01*
X164212535Y-95688880D01*
X164137267Y-95638587D01*
X170494192Y-95638587D01*
X171450000Y-96594395D01*
X172405808Y-95638587D01*
X172310044Y-95374186D01*
X172020429Y-95233296D01*
X171708892Y-95151616D01*
X171387405Y-95132282D01*
X171068325Y-95176039D01*
X170763912Y-95281205D01*
X170589956Y-95374186D01*
X170494192Y-95638587D01*
X164137267Y-95638587D01*
X163983727Y-95535995D01*
X163729490Y-95430686D01*
X163459592Y-95377000D01*
X163184408Y-95377000D01*
X162914510Y-95430686D01*
X162660273Y-95535995D01*
X162431465Y-95688880D01*
X162236880Y-95883465D01*
X162083995Y-96112273D01*
X161978686Y-96366510D01*
X161925000Y-96636408D01*
X159634033Y-96636408D01*
X159602922Y-96429867D01*
X159509636Y-96170977D01*
X159447656Y-96055020D01*
X159207565Y-95988040D01*
X158421605Y-96774000D01*
X158062395Y-96774000D01*
X157276435Y-95988040D01*
X157036344Y-96055020D01*
X156919244Y-96304048D01*
X156852977Y-96571135D01*
X156840090Y-96846017D01*
X154562072Y-96846017D01*
X154562072Y-96012000D01*
X154549812Y-95887518D01*
X154525823Y-95808435D01*
X157456040Y-95808435D01*
X158242000Y-96594395D01*
X159027960Y-95808435D01*
X158960980Y-95568344D01*
X158711952Y-95451244D01*
X158444865Y-95384977D01*
X158169983Y-95372090D01*
X157897867Y-95413078D01*
X157638977Y-95506364D01*
X157523020Y-95568344D01*
X157456040Y-95808435D01*
X154525823Y-95808435D01*
X154513502Y-95767820D01*
X154454537Y-95657506D01*
X154375185Y-95560815D01*
X154278494Y-95481463D01*
X154168180Y-95422498D01*
X154048482Y-95386188D01*
X153924000Y-95373928D01*
X152400000Y-95373928D01*
X152275518Y-95386188D01*
X152155820Y-95422498D01*
X152045506Y-95481463D01*
X151948815Y-95560815D01*
X151869463Y-95657506D01*
X151810498Y-95767820D01*
X151774188Y-95887518D01*
X151761928Y-96012000D01*
X147980000Y-96012000D01*
X147980000Y-94640000D01*
X207112000Y-94640000D01*
X207112001Y-119228000D01*
M02*
