G04 #@! TF.GenerationSoftware,KiCad,Pcbnew,(5.1.5-0-10_14)*
G04 #@! TF.CreationDate,2020-05-24T15:36:03-06:00*
G04 #@! TF.ProjectId,Testing,54657374-696e-4672-9e6b-696361645f70,rev?*
G04 #@! TF.SameCoordinates,Original*
G04 #@! TF.FileFunction,Soldermask,Top*
G04 #@! TF.FilePolarity,Negative*
%FSLAX46Y46*%
G04 Gerber Fmt 4.6, Leading zero omitted, Abs format (unit mm)*
G04 Created by KiCad (PCBNEW (5.1.5-0-10_14)) date 2020-05-24 15:36:03*
%MOMM*%
%LPD*%
G04 APERTURE LIST*
%ADD10C,0.100000*%
G04 APERTURE END LIST*
D10*
G36*
X183440564Y-116845389D02*
G01*
X183631833Y-116924615D01*
X183631835Y-116924616D01*
X183803973Y-117039635D01*
X183950365Y-117186027D01*
X184020150Y-117290467D01*
X184065385Y-117358167D01*
X184144611Y-117549436D01*
X184185000Y-117752484D01*
X184185000Y-117959516D01*
X184144611Y-118162564D01*
X184065385Y-118353833D01*
X184065384Y-118353835D01*
X183950365Y-118525973D01*
X183803973Y-118672365D01*
X183631835Y-118787384D01*
X183631834Y-118787385D01*
X183631833Y-118787385D01*
X183440564Y-118866611D01*
X183237516Y-118907000D01*
X183030484Y-118907000D01*
X182827436Y-118866611D01*
X182636167Y-118787385D01*
X182636166Y-118787385D01*
X182636165Y-118787384D01*
X182464027Y-118672365D01*
X182317635Y-118525973D01*
X182202616Y-118353835D01*
X182202615Y-118353833D01*
X182123389Y-118162564D01*
X182083000Y-117959516D01*
X182083000Y-117752484D01*
X182123389Y-117549436D01*
X182202615Y-117358167D01*
X182247851Y-117290467D01*
X182317635Y-117186027D01*
X182464027Y-117039635D01*
X182636165Y-116924616D01*
X182636167Y-116924615D01*
X182827436Y-116845389D01*
X183030484Y-116805000D01*
X183237516Y-116805000D01*
X183440564Y-116845389D01*
G37*
G36*
X179884564Y-116845389D02*
G01*
X180075833Y-116924615D01*
X180075835Y-116924616D01*
X180247973Y-117039635D01*
X180394365Y-117186027D01*
X180464150Y-117290467D01*
X180509385Y-117358167D01*
X180588611Y-117549436D01*
X180629000Y-117752484D01*
X180629000Y-117959516D01*
X180588611Y-118162564D01*
X180509385Y-118353833D01*
X180509384Y-118353835D01*
X180394365Y-118525973D01*
X180247973Y-118672365D01*
X180075835Y-118787384D01*
X180075834Y-118787385D01*
X180075833Y-118787385D01*
X179884564Y-118866611D01*
X179681516Y-118907000D01*
X179474484Y-118907000D01*
X179271436Y-118866611D01*
X179080167Y-118787385D01*
X179080166Y-118787385D01*
X179080165Y-118787384D01*
X178908027Y-118672365D01*
X178761635Y-118525973D01*
X178646616Y-118353835D01*
X178646615Y-118353833D01*
X178567389Y-118162564D01*
X178527000Y-117959516D01*
X178527000Y-117752484D01*
X178567389Y-117549436D01*
X178646615Y-117358167D01*
X178691851Y-117290467D01*
X178761635Y-117186027D01*
X178908027Y-117039635D01*
X179080165Y-116924616D01*
X179080167Y-116924615D01*
X179271436Y-116845389D01*
X179474484Y-116805000D01*
X179681516Y-116805000D01*
X179884564Y-116845389D01*
G37*
G36*
X176328564Y-116845389D02*
G01*
X176519833Y-116924615D01*
X176519835Y-116924616D01*
X176691973Y-117039635D01*
X176838365Y-117186027D01*
X176908150Y-117290467D01*
X176953385Y-117358167D01*
X177032611Y-117549436D01*
X177073000Y-117752484D01*
X177073000Y-117959516D01*
X177032611Y-118162564D01*
X176953385Y-118353833D01*
X176953384Y-118353835D01*
X176838365Y-118525973D01*
X176691973Y-118672365D01*
X176519835Y-118787384D01*
X176519834Y-118787385D01*
X176519833Y-118787385D01*
X176328564Y-118866611D01*
X176125516Y-118907000D01*
X175918484Y-118907000D01*
X175715436Y-118866611D01*
X175524167Y-118787385D01*
X175524166Y-118787385D01*
X175524165Y-118787384D01*
X175352027Y-118672365D01*
X175205635Y-118525973D01*
X175090616Y-118353835D01*
X175090615Y-118353833D01*
X175011389Y-118162564D01*
X174971000Y-117959516D01*
X174971000Y-117752484D01*
X175011389Y-117549436D01*
X175090615Y-117358167D01*
X175135851Y-117290467D01*
X175205635Y-117186027D01*
X175352027Y-117039635D01*
X175524165Y-116924616D01*
X175524167Y-116924615D01*
X175715436Y-116845389D01*
X175918484Y-116805000D01*
X176125516Y-116805000D01*
X176328564Y-116845389D01*
G37*
G36*
X172772564Y-116845389D02*
G01*
X172963833Y-116924615D01*
X172963835Y-116924616D01*
X173135973Y-117039635D01*
X173282365Y-117186027D01*
X173352150Y-117290467D01*
X173397385Y-117358167D01*
X173476611Y-117549436D01*
X173517000Y-117752484D01*
X173517000Y-117959516D01*
X173476611Y-118162564D01*
X173397385Y-118353833D01*
X173397384Y-118353835D01*
X173282365Y-118525973D01*
X173135973Y-118672365D01*
X172963835Y-118787384D01*
X172963834Y-118787385D01*
X172963833Y-118787385D01*
X172772564Y-118866611D01*
X172569516Y-118907000D01*
X172362484Y-118907000D01*
X172159436Y-118866611D01*
X171968167Y-118787385D01*
X171968166Y-118787385D01*
X171968165Y-118787384D01*
X171796027Y-118672365D01*
X171649635Y-118525973D01*
X171534616Y-118353835D01*
X171534615Y-118353833D01*
X171455389Y-118162564D01*
X171415000Y-117959516D01*
X171415000Y-117752484D01*
X171455389Y-117549436D01*
X171534615Y-117358167D01*
X171579851Y-117290467D01*
X171649635Y-117186027D01*
X171796027Y-117039635D01*
X171968165Y-116924616D01*
X171968167Y-116924615D01*
X172159436Y-116845389D01*
X172362484Y-116805000D01*
X172569516Y-116805000D01*
X172772564Y-116845389D01*
G37*
G36*
X195095395Y-115925546D02*
G01*
X195268466Y-115997234D01*
X195268467Y-115997235D01*
X195424227Y-116101310D01*
X195556690Y-116233773D01*
X195556691Y-116233775D01*
X195660766Y-116389534D01*
X195732454Y-116562605D01*
X195769000Y-116746333D01*
X195769000Y-116933667D01*
X195732454Y-117117395D01*
X195660766Y-117290466D01*
X195660765Y-117290467D01*
X195556690Y-117446227D01*
X195424227Y-117578690D01*
X195345818Y-117631081D01*
X195268466Y-117682766D01*
X195095395Y-117754454D01*
X194911667Y-117791000D01*
X194724333Y-117791000D01*
X194540605Y-117754454D01*
X194367534Y-117682766D01*
X194290182Y-117631081D01*
X194211773Y-117578690D01*
X194079310Y-117446227D01*
X193975235Y-117290467D01*
X193975234Y-117290466D01*
X193903546Y-117117395D01*
X193867000Y-116933667D01*
X193867000Y-116746333D01*
X193903546Y-116562605D01*
X193975234Y-116389534D01*
X194079309Y-116233775D01*
X194079310Y-116233773D01*
X194211773Y-116101310D01*
X194367533Y-115997235D01*
X194367534Y-115997234D01*
X194540605Y-115925546D01*
X194724333Y-115889000D01*
X194911667Y-115889000D01*
X195095395Y-115925546D01*
G37*
G36*
X193229000Y-117791000D02*
G01*
X191327000Y-117791000D01*
X191327000Y-115889000D01*
X193229000Y-115889000D01*
X193229000Y-117791000D01*
G37*
G36*
X158212549Y-110123116D02*
G01*
X158323734Y-110145232D01*
X158406954Y-110179703D01*
X158528933Y-110230228D01*
X158533203Y-110231997D01*
X158721720Y-110357960D01*
X158882040Y-110518280D01*
X159008003Y-110706797D01*
X159094768Y-110916266D01*
X159139000Y-111138636D01*
X159139000Y-111365364D01*
X159094768Y-111587734D01*
X159008003Y-111797203D01*
X158882040Y-111985720D01*
X158721720Y-112146040D01*
X158533203Y-112272003D01*
X158323734Y-112358768D01*
X158212549Y-112380884D01*
X158101365Y-112403000D01*
X157874635Y-112403000D01*
X157763451Y-112380884D01*
X157652266Y-112358768D01*
X157442797Y-112272003D01*
X157254280Y-112146040D01*
X157093960Y-111985720D01*
X156967997Y-111797203D01*
X156881232Y-111587734D01*
X156837000Y-111365364D01*
X156837000Y-111138636D01*
X156881232Y-110916266D01*
X156967997Y-110706797D01*
X157093960Y-110518280D01*
X157254280Y-110357960D01*
X157442797Y-110231997D01*
X157447068Y-110230228D01*
X157569046Y-110179703D01*
X157652266Y-110145232D01*
X157763451Y-110123116D01*
X157874635Y-110101000D01*
X158101365Y-110101000D01*
X158212549Y-110123116D01*
G37*
G36*
X188208228Y-110179703D02*
G01*
X188363100Y-110243853D01*
X188502481Y-110336985D01*
X188621015Y-110455519D01*
X188714147Y-110594900D01*
X188778297Y-110749772D01*
X188811000Y-110914184D01*
X188811000Y-111081816D01*
X188778297Y-111246228D01*
X188714147Y-111401100D01*
X188621015Y-111540481D01*
X188502481Y-111659015D01*
X188363100Y-111752147D01*
X188208228Y-111816297D01*
X188043816Y-111849000D01*
X187876184Y-111849000D01*
X187711772Y-111816297D01*
X187556900Y-111752147D01*
X187417519Y-111659015D01*
X187298985Y-111540481D01*
X187205853Y-111401100D01*
X187141703Y-111246228D01*
X187109000Y-111081816D01*
X187109000Y-110914184D01*
X187141703Y-110749772D01*
X187205853Y-110594900D01*
X187298985Y-110455519D01*
X187417519Y-110336985D01*
X187556900Y-110243853D01*
X187711772Y-110179703D01*
X187876184Y-110147000D01*
X188043816Y-110147000D01*
X188208228Y-110179703D01*
G37*
G36*
X184906228Y-110179703D02*
G01*
X185061100Y-110243853D01*
X185200481Y-110336985D01*
X185319015Y-110455519D01*
X185412147Y-110594900D01*
X185476297Y-110749772D01*
X185509000Y-110914184D01*
X185509000Y-111081816D01*
X185476297Y-111246228D01*
X185412147Y-111401100D01*
X185319015Y-111540481D01*
X185200481Y-111659015D01*
X185061100Y-111752147D01*
X184906228Y-111816297D01*
X184741816Y-111849000D01*
X184574184Y-111849000D01*
X184409772Y-111816297D01*
X184254900Y-111752147D01*
X184115519Y-111659015D01*
X183996985Y-111540481D01*
X183903853Y-111401100D01*
X183839703Y-111246228D01*
X183807000Y-111081816D01*
X183807000Y-110914184D01*
X183839703Y-110749772D01*
X183903853Y-110594900D01*
X183996985Y-110455519D01*
X184115519Y-110336985D01*
X184254900Y-110243853D01*
X184409772Y-110179703D01*
X184574184Y-110147000D01*
X184741816Y-110147000D01*
X184906228Y-110179703D01*
G37*
G36*
X178810228Y-110179703D02*
G01*
X178965100Y-110243853D01*
X179104481Y-110336985D01*
X179223015Y-110455519D01*
X179316147Y-110594900D01*
X179380297Y-110749772D01*
X179413000Y-110914184D01*
X179413000Y-111081816D01*
X179380297Y-111246228D01*
X179316147Y-111401100D01*
X179223015Y-111540481D01*
X179104481Y-111659015D01*
X178965100Y-111752147D01*
X178810228Y-111816297D01*
X178645816Y-111849000D01*
X178478184Y-111849000D01*
X178313772Y-111816297D01*
X178158900Y-111752147D01*
X178019519Y-111659015D01*
X177900985Y-111540481D01*
X177807853Y-111401100D01*
X177743703Y-111246228D01*
X177711000Y-111081816D01*
X177711000Y-110914184D01*
X177743703Y-110749772D01*
X177807853Y-110594900D01*
X177900985Y-110455519D01*
X178019519Y-110336985D01*
X178158900Y-110243853D01*
X178313772Y-110179703D01*
X178478184Y-110147000D01*
X178645816Y-110147000D01*
X178810228Y-110179703D01*
G37*
G36*
X181858228Y-110179703D02*
G01*
X182013100Y-110243853D01*
X182152481Y-110336985D01*
X182271015Y-110455519D01*
X182364147Y-110594900D01*
X182428297Y-110749772D01*
X182461000Y-110914184D01*
X182461000Y-111081816D01*
X182428297Y-111246228D01*
X182364147Y-111401100D01*
X182271015Y-111540481D01*
X182152481Y-111659015D01*
X182013100Y-111752147D01*
X181858228Y-111816297D01*
X181693816Y-111849000D01*
X181526184Y-111849000D01*
X181361772Y-111816297D01*
X181206900Y-111752147D01*
X181067519Y-111659015D01*
X180948985Y-111540481D01*
X180855853Y-111401100D01*
X180791703Y-111246228D01*
X180759000Y-111081816D01*
X180759000Y-110914184D01*
X180791703Y-110749772D01*
X180855853Y-110594900D01*
X180948985Y-110455519D01*
X181067519Y-110336985D01*
X181206900Y-110243853D01*
X181361772Y-110179703D01*
X181526184Y-110147000D01*
X181693816Y-110147000D01*
X181858228Y-110179703D01*
G37*
G36*
X172460228Y-109163703D02*
G01*
X172615100Y-109227853D01*
X172754481Y-109320985D01*
X172873015Y-109439519D01*
X172966147Y-109578900D01*
X173030297Y-109733772D01*
X173063000Y-109898184D01*
X173063000Y-110065816D01*
X173030297Y-110230228D01*
X172966147Y-110385100D01*
X172873015Y-110524481D01*
X172754481Y-110643015D01*
X172615100Y-110736147D01*
X172460228Y-110800297D01*
X172295816Y-110833000D01*
X172128184Y-110833000D01*
X171963772Y-110800297D01*
X171808900Y-110736147D01*
X171669519Y-110643015D01*
X171550985Y-110524481D01*
X171457853Y-110385100D01*
X171393703Y-110230228D01*
X171361000Y-110065816D01*
X171361000Y-109898184D01*
X171393703Y-109733772D01*
X171457853Y-109578900D01*
X171550985Y-109439519D01*
X171669519Y-109320985D01*
X171808900Y-109227853D01*
X171963772Y-109163703D01*
X172128184Y-109131000D01*
X172295816Y-109131000D01*
X172460228Y-109163703D01*
G37*
G36*
X164935000Y-108039000D02*
G01*
X163233000Y-108039000D01*
X163233000Y-106337000D01*
X164935000Y-106337000D01*
X164935000Y-108039000D01*
G37*
G36*
X166332228Y-106369703D02*
G01*
X166487100Y-106433853D01*
X166626481Y-106526985D01*
X166745015Y-106645519D01*
X166838147Y-106784900D01*
X166902297Y-106939772D01*
X166935000Y-107104184D01*
X166935000Y-107271816D01*
X166902297Y-107436228D01*
X166838147Y-107591100D01*
X166745015Y-107730481D01*
X166626481Y-107849015D01*
X166487100Y-107942147D01*
X166332228Y-108006297D01*
X166167816Y-108039000D01*
X166000184Y-108039000D01*
X165835772Y-108006297D01*
X165680900Y-107942147D01*
X165541519Y-107849015D01*
X165422985Y-107730481D01*
X165329853Y-107591100D01*
X165265703Y-107436228D01*
X165233000Y-107271816D01*
X165233000Y-107104184D01*
X165265703Y-106939772D01*
X165329853Y-106784900D01*
X165422985Y-106645519D01*
X165541519Y-106526985D01*
X165680900Y-106433853D01*
X165835772Y-106369703D01*
X166000184Y-106337000D01*
X166167816Y-106337000D01*
X166332228Y-106369703D01*
G37*
G36*
X197724915Y-106395334D02*
G01*
X197833491Y-106428271D01*
X197833494Y-106428272D01*
X197869600Y-106447571D01*
X197933556Y-106481756D01*
X198021264Y-106553736D01*
X198093244Y-106641443D01*
X198127429Y-106705399D01*
X198146728Y-106741505D01*
X198146729Y-106741508D01*
X198179666Y-106850084D01*
X198188000Y-106934702D01*
X198188000Y-107441297D01*
X198179666Y-107525916D01*
X198147252Y-107632767D01*
X198146728Y-107634495D01*
X198136761Y-107653141D01*
X198093244Y-107734557D01*
X198021264Y-107822264D01*
X197933557Y-107894244D01*
X197869601Y-107928429D01*
X197833495Y-107947728D01*
X197833492Y-107947729D01*
X197724916Y-107980666D01*
X197612000Y-107991787D01*
X197499085Y-107980666D01*
X197390509Y-107947729D01*
X197390506Y-107947728D01*
X197354400Y-107928429D01*
X197290444Y-107894244D01*
X197202737Y-107822264D01*
X197130757Y-107734557D01*
X197087239Y-107653141D01*
X197073625Y-107632766D01*
X197056298Y-107615439D01*
X197035924Y-107601826D01*
X197013285Y-107592448D01*
X196989252Y-107587668D01*
X196964748Y-107587668D01*
X196940715Y-107592448D01*
X196918076Y-107601826D01*
X196897701Y-107615440D01*
X196880374Y-107632767D01*
X196866761Y-107653141D01*
X196823244Y-107734557D01*
X196751264Y-107822264D01*
X196663557Y-107894244D01*
X196599601Y-107928429D01*
X196563495Y-107947728D01*
X196563492Y-107947729D01*
X196454916Y-107980666D01*
X196342000Y-107991787D01*
X196229085Y-107980666D01*
X196120509Y-107947729D01*
X196120506Y-107947728D01*
X196084400Y-107928429D01*
X196020444Y-107894244D01*
X195932737Y-107822264D01*
X195869622Y-107745359D01*
X195852297Y-107728034D01*
X195831923Y-107714420D01*
X195809284Y-107705043D01*
X195785250Y-107700263D01*
X195760746Y-107700263D01*
X195736713Y-107705044D01*
X195714074Y-107714421D01*
X195693700Y-107728035D01*
X195676373Y-107745362D01*
X195662759Y-107765736D01*
X195653382Y-107788375D01*
X195648000Y-107824660D01*
X195648000Y-107989000D01*
X194496000Y-107989000D01*
X194496000Y-106387000D01*
X195648000Y-106387000D01*
X195648000Y-106551341D01*
X195650402Y-106575727D01*
X195657515Y-106599176D01*
X195669066Y-106620787D01*
X195684611Y-106639729D01*
X195703553Y-106655274D01*
X195725164Y-106666825D01*
X195748613Y-106673938D01*
X195772999Y-106676340D01*
X195797385Y-106673938D01*
X195820834Y-106666825D01*
X195842445Y-106655274D01*
X195861387Y-106639729D01*
X195869608Y-106630657D01*
X195932736Y-106553736D01*
X196020443Y-106481756D01*
X196084399Y-106447571D01*
X196120505Y-106428272D01*
X196120508Y-106428271D01*
X196229084Y-106395334D01*
X196342000Y-106384213D01*
X196454915Y-106395334D01*
X196563491Y-106428271D01*
X196563494Y-106428272D01*
X196599600Y-106447571D01*
X196663556Y-106481756D01*
X196751264Y-106553736D01*
X196823244Y-106641443D01*
X196866761Y-106722859D01*
X196880375Y-106743234D01*
X196897702Y-106760561D01*
X196918076Y-106774174D01*
X196940715Y-106783552D01*
X196964748Y-106788332D01*
X196989252Y-106788332D01*
X197013285Y-106783552D01*
X197035924Y-106774174D01*
X197056299Y-106760560D01*
X197073626Y-106743233D01*
X197087239Y-106722860D01*
X197130756Y-106641444D01*
X197202736Y-106553736D01*
X197290443Y-106481756D01*
X197354399Y-106447571D01*
X197390505Y-106428272D01*
X197390508Y-106428271D01*
X197499084Y-106395334D01*
X197612000Y-106384213D01*
X197724915Y-106395334D01*
G37*
G36*
X172460228Y-104163703D02*
G01*
X172615100Y-104227853D01*
X172754481Y-104320985D01*
X172873015Y-104439519D01*
X172966147Y-104578900D01*
X173030297Y-104733772D01*
X173063000Y-104898184D01*
X173063000Y-105065816D01*
X173030297Y-105230228D01*
X172966147Y-105385100D01*
X172873015Y-105524481D01*
X172754481Y-105643015D01*
X172615100Y-105736147D01*
X172460228Y-105800297D01*
X172295816Y-105833000D01*
X172128184Y-105833000D01*
X171963772Y-105800297D01*
X171808900Y-105736147D01*
X171669519Y-105643015D01*
X171550985Y-105524481D01*
X171457853Y-105385100D01*
X171393703Y-105230228D01*
X171361000Y-105065816D01*
X171361000Y-104898184D01*
X171393703Y-104733772D01*
X171457853Y-104578900D01*
X171550985Y-104439519D01*
X171669519Y-104320985D01*
X171808900Y-104227853D01*
X171963772Y-104163703D01*
X172128184Y-104131000D01*
X172295816Y-104131000D01*
X172460228Y-104163703D01*
G37*
G36*
X159139000Y-104783000D02*
G01*
X156837000Y-104783000D01*
X156837000Y-102481000D01*
X159139000Y-102481000D01*
X159139000Y-104783000D01*
G37*
G36*
X184906228Y-102559703D02*
G01*
X185061100Y-102623853D01*
X185200481Y-102716985D01*
X185319015Y-102835519D01*
X185412147Y-102974900D01*
X185476297Y-103129772D01*
X185509000Y-103294184D01*
X185509000Y-103461816D01*
X185476297Y-103626228D01*
X185412147Y-103781100D01*
X185319015Y-103920481D01*
X185200481Y-104039015D01*
X185061100Y-104132147D01*
X184906228Y-104196297D01*
X184741816Y-104229000D01*
X184574184Y-104229000D01*
X184409772Y-104196297D01*
X184254900Y-104132147D01*
X184115519Y-104039015D01*
X183996985Y-103920481D01*
X183903853Y-103781100D01*
X183839703Y-103626228D01*
X183807000Y-103461816D01*
X183807000Y-103294184D01*
X183839703Y-103129772D01*
X183903853Y-102974900D01*
X183996985Y-102835519D01*
X184115519Y-102716985D01*
X184254900Y-102623853D01*
X184409772Y-102559703D01*
X184574184Y-102527000D01*
X184741816Y-102527000D01*
X184906228Y-102559703D01*
G37*
G36*
X188208228Y-102559703D02*
G01*
X188363100Y-102623853D01*
X188502481Y-102716985D01*
X188621015Y-102835519D01*
X188714147Y-102974900D01*
X188778297Y-103129772D01*
X188811000Y-103294184D01*
X188811000Y-103461816D01*
X188778297Y-103626228D01*
X188714147Y-103781100D01*
X188621015Y-103920481D01*
X188502481Y-104039015D01*
X188363100Y-104132147D01*
X188208228Y-104196297D01*
X188043816Y-104229000D01*
X187876184Y-104229000D01*
X187711772Y-104196297D01*
X187556900Y-104132147D01*
X187417519Y-104039015D01*
X187298985Y-103920481D01*
X187205853Y-103781100D01*
X187141703Y-103626228D01*
X187109000Y-103461816D01*
X187109000Y-103294184D01*
X187141703Y-103129772D01*
X187205853Y-102974900D01*
X187298985Y-102835519D01*
X187417519Y-102716985D01*
X187556900Y-102623853D01*
X187711772Y-102559703D01*
X187876184Y-102527000D01*
X188043816Y-102527000D01*
X188208228Y-102559703D01*
G37*
G36*
X181858228Y-102559703D02*
G01*
X182013100Y-102623853D01*
X182152481Y-102716985D01*
X182271015Y-102835519D01*
X182364147Y-102974900D01*
X182428297Y-103129772D01*
X182461000Y-103294184D01*
X182461000Y-103461816D01*
X182428297Y-103626228D01*
X182364147Y-103781100D01*
X182271015Y-103920481D01*
X182152481Y-104039015D01*
X182013100Y-104132147D01*
X181858228Y-104196297D01*
X181693816Y-104229000D01*
X181526184Y-104229000D01*
X181361772Y-104196297D01*
X181206900Y-104132147D01*
X181067519Y-104039015D01*
X180948985Y-103920481D01*
X180855853Y-103781100D01*
X180791703Y-103626228D01*
X180759000Y-103461816D01*
X180759000Y-103294184D01*
X180791703Y-103129772D01*
X180855853Y-102974900D01*
X180948985Y-102835519D01*
X181067519Y-102716985D01*
X181206900Y-102623853D01*
X181361772Y-102559703D01*
X181526184Y-102527000D01*
X181693816Y-102527000D01*
X181858228Y-102559703D01*
G37*
G36*
X178810228Y-102559703D02*
G01*
X178965100Y-102623853D01*
X179104481Y-102716985D01*
X179223015Y-102835519D01*
X179316147Y-102974900D01*
X179380297Y-103129772D01*
X179413000Y-103294184D01*
X179413000Y-103461816D01*
X179380297Y-103626228D01*
X179316147Y-103781100D01*
X179223015Y-103920481D01*
X179104481Y-104039015D01*
X178965100Y-104132147D01*
X178810228Y-104196297D01*
X178645816Y-104229000D01*
X178478184Y-104229000D01*
X178313772Y-104196297D01*
X178158900Y-104132147D01*
X178019519Y-104039015D01*
X177900985Y-103920481D01*
X177807853Y-103781100D01*
X177743703Y-103626228D01*
X177711000Y-103461816D01*
X177711000Y-103294184D01*
X177743703Y-103129772D01*
X177807853Y-102974900D01*
X177900985Y-102835519D01*
X178019519Y-102716985D01*
X178158900Y-102623853D01*
X178313772Y-102559703D01*
X178478184Y-102527000D01*
X178645816Y-102527000D01*
X178810228Y-102559703D01*
G37*
G36*
X183948564Y-95763389D02*
G01*
X184139833Y-95842615D01*
X184139835Y-95842616D01*
X184311973Y-95957635D01*
X184458365Y-96104027D01*
X184559740Y-96255745D01*
X184573385Y-96276167D01*
X184652611Y-96467436D01*
X184693000Y-96670484D01*
X184693000Y-96877516D01*
X184652611Y-97080564D01*
X184620080Y-97159100D01*
X184573384Y-97271835D01*
X184458365Y-97443973D01*
X184311973Y-97590365D01*
X184139835Y-97705384D01*
X184139834Y-97705385D01*
X184139833Y-97705385D01*
X183948564Y-97784611D01*
X183745516Y-97825000D01*
X183538484Y-97825000D01*
X183335436Y-97784611D01*
X183144167Y-97705385D01*
X183144166Y-97705385D01*
X183144165Y-97705384D01*
X182972027Y-97590365D01*
X182825635Y-97443973D01*
X182710616Y-97271835D01*
X182663920Y-97159100D01*
X182631389Y-97080564D01*
X182591000Y-96877516D01*
X182591000Y-96670484D01*
X182631389Y-96467436D01*
X182710615Y-96276167D01*
X182724261Y-96255745D01*
X182825635Y-96104027D01*
X182972027Y-95957635D01*
X183144165Y-95842616D01*
X183144167Y-95842615D01*
X183335436Y-95763389D01*
X183538484Y-95723000D01*
X183745516Y-95723000D01*
X183948564Y-95763389D01*
G37*
G36*
X171756564Y-95763389D02*
G01*
X171947833Y-95842615D01*
X171947835Y-95842616D01*
X172119973Y-95957635D01*
X172266365Y-96104027D01*
X172367740Y-96255745D01*
X172381385Y-96276167D01*
X172460611Y-96467436D01*
X172501000Y-96670484D01*
X172501000Y-96877516D01*
X172460611Y-97080564D01*
X172428080Y-97159100D01*
X172381384Y-97271835D01*
X172266365Y-97443973D01*
X172119973Y-97590365D01*
X171947835Y-97705384D01*
X171947834Y-97705385D01*
X171947833Y-97705385D01*
X171756564Y-97784611D01*
X171553516Y-97825000D01*
X171346484Y-97825000D01*
X171143436Y-97784611D01*
X170952167Y-97705385D01*
X170952166Y-97705385D01*
X170952165Y-97705384D01*
X170780027Y-97590365D01*
X170633635Y-97443973D01*
X170518616Y-97271835D01*
X170471920Y-97159100D01*
X170439389Y-97080564D01*
X170399000Y-96877516D01*
X170399000Y-96670484D01*
X170439389Y-96467436D01*
X170518615Y-96276167D01*
X170532261Y-96255745D01*
X170633635Y-96104027D01*
X170780027Y-95957635D01*
X170952165Y-95842616D01*
X170952167Y-95842615D01*
X171143436Y-95763389D01*
X171346484Y-95723000D01*
X171553516Y-95723000D01*
X171756564Y-95763389D01*
G37*
G36*
X158479142Y-95992242D02*
G01*
X158627101Y-96053529D01*
X158760255Y-96142499D01*
X158873501Y-96255745D01*
X158962471Y-96388899D01*
X159023758Y-96536858D01*
X159055000Y-96693925D01*
X159055000Y-96854075D01*
X159023758Y-97011142D01*
X158962471Y-97159101D01*
X158873501Y-97292255D01*
X158760255Y-97405501D01*
X158627101Y-97494471D01*
X158479142Y-97555758D01*
X158322075Y-97587000D01*
X158161925Y-97587000D01*
X158004858Y-97555758D01*
X157856899Y-97494471D01*
X157723745Y-97405501D01*
X157610499Y-97292255D01*
X157521529Y-97159101D01*
X157460242Y-97011142D01*
X157429000Y-96854075D01*
X157429000Y-96693925D01*
X157460242Y-96536858D01*
X157521529Y-96388899D01*
X157610499Y-96255745D01*
X157723745Y-96142499D01*
X157856899Y-96053529D01*
X158004858Y-95992242D01*
X158161925Y-95961000D01*
X158322075Y-95961000D01*
X158479142Y-95992242D01*
G37*
G36*
X153975000Y-97587000D02*
G01*
X152349000Y-97587000D01*
X152349000Y-95961000D01*
X153975000Y-95961000D01*
X153975000Y-97587000D01*
G37*
G36*
X180069142Y-95992242D02*
G01*
X180217101Y-96053529D01*
X180350255Y-96142499D01*
X180463501Y-96255745D01*
X180552471Y-96388899D01*
X180613758Y-96536858D01*
X180645000Y-96693925D01*
X180645000Y-96854075D01*
X180613758Y-97011142D01*
X180552471Y-97159101D01*
X180463501Y-97292255D01*
X180350255Y-97405501D01*
X180217101Y-97494471D01*
X180069142Y-97555758D01*
X179912075Y-97587000D01*
X179751925Y-97587000D01*
X179594858Y-97555758D01*
X179446899Y-97494471D01*
X179313745Y-97405501D01*
X179200499Y-97292255D01*
X179111529Y-97159101D01*
X179050242Y-97011142D01*
X179019000Y-96854075D01*
X179019000Y-96693925D01*
X179050242Y-96536858D01*
X179111529Y-96388899D01*
X179200499Y-96255745D01*
X179313745Y-96142499D01*
X179446899Y-96053529D01*
X179594858Y-95992242D01*
X179751925Y-95961000D01*
X179912075Y-95961000D01*
X180069142Y-95992242D01*
G37*
G36*
X175497142Y-95992242D02*
G01*
X175645101Y-96053529D01*
X175778255Y-96142499D01*
X175891501Y-96255745D01*
X175980471Y-96388899D01*
X176041758Y-96536858D01*
X176073000Y-96693925D01*
X176073000Y-96854075D01*
X176041758Y-97011142D01*
X175980471Y-97159101D01*
X175891501Y-97292255D01*
X175778255Y-97405501D01*
X175645101Y-97494471D01*
X175497142Y-97555758D01*
X175340075Y-97587000D01*
X175179925Y-97587000D01*
X175022858Y-97555758D01*
X174874899Y-97494471D01*
X174741745Y-97405501D01*
X174628499Y-97292255D01*
X174539529Y-97159101D01*
X174478242Y-97011142D01*
X174447000Y-96854075D01*
X174447000Y-96693925D01*
X174478242Y-96536858D01*
X174539529Y-96388899D01*
X174628499Y-96255745D01*
X174741745Y-96142499D01*
X174874899Y-96053529D01*
X175022858Y-95992242D01*
X175179925Y-95961000D01*
X175340075Y-95961000D01*
X175497142Y-95992242D01*
G37*
G36*
X191821000Y-97587000D02*
G01*
X190195000Y-97587000D01*
X190195000Y-95961000D01*
X191821000Y-95961000D01*
X191821000Y-97587000D01*
G37*
G36*
X196325142Y-95992242D02*
G01*
X196473101Y-96053529D01*
X196606255Y-96142499D01*
X196719501Y-96255745D01*
X196808471Y-96388899D01*
X196869758Y-96536858D01*
X196901000Y-96693925D01*
X196901000Y-96854075D01*
X196869758Y-97011142D01*
X196808471Y-97159101D01*
X196719501Y-97292255D01*
X196606255Y-97405501D01*
X196473101Y-97494471D01*
X196325142Y-97555758D01*
X196168075Y-97587000D01*
X196007925Y-97587000D01*
X195850858Y-97555758D01*
X195702899Y-97494471D01*
X195569745Y-97405501D01*
X195456499Y-97292255D01*
X195367529Y-97159101D01*
X195306242Y-97011142D01*
X195275000Y-96854075D01*
X195275000Y-96693925D01*
X195306242Y-96536858D01*
X195367529Y-96388899D01*
X195456499Y-96255745D01*
X195569745Y-96142499D01*
X195702899Y-96053529D01*
X195850858Y-95992242D01*
X196007925Y-95961000D01*
X196168075Y-95961000D01*
X196325142Y-95992242D01*
G37*
G36*
X201405142Y-95992242D02*
G01*
X201553101Y-96053529D01*
X201686255Y-96142499D01*
X201799501Y-96255745D01*
X201888471Y-96388899D01*
X201949758Y-96536858D01*
X201981000Y-96693925D01*
X201981000Y-96854075D01*
X201949758Y-97011142D01*
X201888471Y-97159101D01*
X201799501Y-97292255D01*
X201686255Y-97405501D01*
X201553101Y-97494471D01*
X201405142Y-97555758D01*
X201248075Y-97587000D01*
X201087925Y-97587000D01*
X200930858Y-97555758D01*
X200782899Y-97494471D01*
X200649745Y-97405501D01*
X200536499Y-97292255D01*
X200447529Y-97159101D01*
X200386242Y-97011142D01*
X200355000Y-96854075D01*
X200355000Y-96693925D01*
X200386242Y-96536858D01*
X200447529Y-96388899D01*
X200536499Y-96255745D01*
X200649745Y-96142499D01*
X200782899Y-96053529D01*
X200930858Y-95992242D01*
X201087925Y-95961000D01*
X201248075Y-95961000D01*
X201405142Y-95992242D01*
G37*
G36*
X163559142Y-95992242D02*
G01*
X163707101Y-96053529D01*
X163840255Y-96142499D01*
X163953501Y-96255745D01*
X164042471Y-96388899D01*
X164103758Y-96536858D01*
X164135000Y-96693925D01*
X164135000Y-96854075D01*
X164103758Y-97011142D01*
X164042471Y-97159101D01*
X163953501Y-97292255D01*
X163840255Y-97405501D01*
X163707101Y-97494471D01*
X163559142Y-97555758D01*
X163402075Y-97587000D01*
X163241925Y-97587000D01*
X163084858Y-97555758D01*
X162936899Y-97494471D01*
X162803745Y-97405501D01*
X162690499Y-97292255D01*
X162601529Y-97159101D01*
X162540242Y-97011142D01*
X162509000Y-96854075D01*
X162509000Y-96693925D01*
X162540242Y-96536858D01*
X162601529Y-96388899D01*
X162690499Y-96255745D01*
X162803745Y-96142499D01*
X162936899Y-96053529D01*
X163084858Y-95992242D01*
X163241925Y-95961000D01*
X163402075Y-95961000D01*
X163559142Y-95992242D01*
G37*
M02*
