G04 #@! TF.GenerationSoftware,KiCad,Pcbnew,(5.1.5-0-10_14)*
G04 #@! TF.CreationDate,2020-05-24T15:36:03-06:00*
G04 #@! TF.ProjectId,Testing,54657374-696e-4672-9e6b-696361645f70,rev?*
G04 #@! TF.SameCoordinates,Original*
G04 #@! TF.FileFunction,Copper,L1,Top*
G04 #@! TF.FilePolarity,Positive*
%FSLAX46Y46*%
G04 Gerber Fmt 4.6, Leading zero omitted, Abs format (unit mm)*
G04 Created by KiCad (PCBNEW (5.1.5-0-10_14)) date 2020-05-24 15:36:03*
%MOMM*%
%LPD*%
G04 APERTURE LIST*
%ADD10O,2.200000X2.200000*%
%ADD11R,2.200000X2.200000*%
%ADD12C,1.524000*%
%ADD13R,1.524000X1.524000*%
%ADD14O,1.600000X1.600000*%
%ADD15C,1.600000*%
%ADD16C,2.000000*%
%ADD17C,1.800000*%
%ADD18R,1.800000X1.800000*%
%ADD19R,1.600000X1.600000*%
%ADD20R,1.050000X1.500000*%
%ADD21O,1.050000X1.500000*%
%ADD22C,0.250000*%
%ADD23C,0.254000*%
G04 APERTURE END LIST*
D10*
X157988000Y-111252000D03*
D11*
X157988000Y-103632000D03*
D12*
X201168000Y-96774000D03*
X196088000Y-96774000D03*
D13*
X191008000Y-96774000D03*
D12*
X163322000Y-96774000D03*
X158242000Y-96774000D03*
D13*
X153162000Y-96774000D03*
D12*
X179832000Y-96774000D03*
X175260000Y-96774000D03*
D14*
X187960000Y-103378000D03*
D15*
X187960000Y-110998000D03*
D16*
X183642000Y-96774000D03*
X171450000Y-96774000D03*
X183134000Y-117856000D03*
X176022000Y-117856000D03*
X179578000Y-117856000D03*
X172466000Y-117856000D03*
D17*
X194818000Y-116840000D03*
D18*
X192278000Y-116840000D03*
D15*
X181610000Y-110998000D03*
D14*
X181610000Y-103378000D03*
D15*
X172212000Y-109982000D03*
X172212000Y-104982000D03*
X166084000Y-107188000D03*
D19*
X164084000Y-107188000D03*
D20*
X195072000Y-107188000D03*
D21*
X197612000Y-107188000D03*
X196342000Y-107188000D03*
D14*
X178562000Y-103378000D03*
D15*
X178562000Y-110998000D03*
X184658000Y-110998000D03*
D14*
X184658000Y-103378000D03*
D22*
X178562000Y-104140000D02*
X178562000Y-103378000D01*
X165862000Y-103632000D02*
X172212000Y-109982000D01*
X157988000Y-103632000D02*
X165862000Y-103632000D01*
X178562000Y-103632000D02*
X178562000Y-103378000D01*
X172212000Y-109982000D02*
X178562000Y-103632000D01*
X178562000Y-107950000D02*
X178562000Y-103378000D01*
X181610000Y-110998000D02*
X178562000Y-107950000D01*
X182409999Y-111797999D02*
X181610000Y-110998000D01*
X182735001Y-112123001D02*
X182409999Y-111797999D01*
X185169997Y-112123001D02*
X182735001Y-112123001D01*
X195564000Y-108966000D02*
X188326998Y-108966000D01*
X188326998Y-108966000D02*
X185169997Y-112123001D01*
X196342000Y-108188000D02*
X195564000Y-108966000D01*
X196342000Y-107188000D02*
X196342000Y-108188000D01*
X177762001Y-111797999D02*
X178562000Y-110998000D01*
X167643999Y-111797999D02*
X177762001Y-111797999D01*
X164084000Y-108238000D02*
X167643999Y-111797999D01*
X164084000Y-107188000D02*
X164084000Y-108238000D01*
X191136999Y-102252999D02*
X185783001Y-102252999D01*
X185457999Y-102578001D02*
X184658000Y-103378000D01*
X185783001Y-102252999D02*
X185457999Y-102578001D01*
X195072000Y-106188000D02*
X191136999Y-102252999D01*
X195072000Y-107188000D02*
X195072000Y-106188000D01*
X200406001Y-97535999D02*
X201168000Y-96774000D01*
X199630989Y-98311011D02*
X200406001Y-97535999D01*
X160523987Y-98311011D02*
X199630989Y-98311011D01*
X156562999Y-104992001D02*
X156562999Y-102271999D01*
X156562999Y-102271999D02*
X160523987Y-98311011D01*
X156627999Y-105057001D02*
X156562999Y-104992001D01*
X166017001Y-105057001D02*
X156627999Y-105057001D01*
X166084000Y-105124000D02*
X166017001Y-105057001D01*
X166084000Y-107188000D02*
X166084000Y-105124000D01*
X153162000Y-106426000D02*
X157988000Y-111252000D01*
X153162000Y-96774000D02*
X153162000Y-106426000D01*
X177347001Y-117219999D02*
X172479001Y-112351999D01*
X177347001Y-117586003D02*
X177347001Y-117219999D01*
X194290001Y-119181001D02*
X178941999Y-119181001D01*
X159087999Y-112351999D02*
X157988000Y-111252000D01*
X172479001Y-112351999D02*
X159087999Y-112351999D01*
X197612000Y-115859002D02*
X194290001Y-119181001D01*
X178941999Y-119181001D02*
X177347001Y-117586003D01*
X197612000Y-107188000D02*
X197612000Y-115859002D01*
X194818000Y-116724630D02*
X194818000Y-116840000D01*
X189091370Y-110998000D02*
X194818000Y-116724630D01*
X187960000Y-110998000D02*
X189091370Y-110998000D01*
X180577999Y-116856001D02*
X179578000Y-117856000D01*
X190818999Y-116530999D02*
X180903001Y-116530999D01*
X180903001Y-116530999D02*
X180577999Y-116856001D01*
X191128000Y-116840000D02*
X190818999Y-116530999D01*
X192278000Y-116840000D02*
X191128000Y-116840000D01*
D23*
G36*
X207112001Y-119228000D02*
G01*
X195317803Y-119228000D01*
X198123003Y-116422801D01*
X198152001Y-116399003D01*
X198196321Y-116344999D01*
X198246974Y-116283279D01*
X198317546Y-116151249D01*
X198331052Y-116106724D01*
X198361003Y-116007988D01*
X198372000Y-115896335D01*
X198372000Y-115896326D01*
X198375676Y-115859003D01*
X198372000Y-115821680D01*
X198372000Y-108289909D01*
X198436212Y-108237212D01*
X198581171Y-108060579D01*
X198688885Y-107859059D01*
X198755215Y-107640399D01*
X198772000Y-107469978D01*
X198772000Y-106906021D01*
X198755215Y-106735600D01*
X198688885Y-106516940D01*
X198581171Y-106315421D01*
X198436212Y-106138788D01*
X198259578Y-105993829D01*
X198058059Y-105886115D01*
X197839399Y-105819785D01*
X197612000Y-105797388D01*
X197384600Y-105819785D01*
X197165940Y-105886115D01*
X196977000Y-105987106D01*
X196788059Y-105886115D01*
X196569399Y-105819785D01*
X196342000Y-105797388D01*
X196114600Y-105819785D01*
X195905902Y-105883093D01*
X195841180Y-105848498D01*
X195735084Y-105816314D01*
X195706974Y-105763724D01*
X195612001Y-105647999D01*
X195583003Y-105624201D01*
X191700803Y-101742002D01*
X191677000Y-101712998D01*
X191561275Y-101618025D01*
X191429246Y-101547453D01*
X191285985Y-101503996D01*
X191174332Y-101492999D01*
X191174321Y-101492999D01*
X191136999Y-101489323D01*
X191099677Y-101492999D01*
X185820323Y-101492999D01*
X185783000Y-101489323D01*
X185745677Y-101492999D01*
X185745668Y-101492999D01*
X185634015Y-101503996D01*
X185490754Y-101547453D01*
X185358725Y-101618025D01*
X185243000Y-101712998D01*
X185219197Y-101742002D01*
X184981887Y-101979312D01*
X184799335Y-101943000D01*
X184516665Y-101943000D01*
X184239426Y-101998147D01*
X183978273Y-102106320D01*
X183743241Y-102263363D01*
X183543363Y-102463241D01*
X183386320Y-102698273D01*
X183278147Y-102959426D01*
X183223000Y-103236665D01*
X183223000Y-103519335D01*
X183278147Y-103796574D01*
X183386320Y-104057727D01*
X183543363Y-104292759D01*
X183743241Y-104492637D01*
X183978273Y-104649680D01*
X184239426Y-104757853D01*
X184516665Y-104813000D01*
X184799335Y-104813000D01*
X185076574Y-104757853D01*
X185337727Y-104649680D01*
X185572759Y-104492637D01*
X185772637Y-104292759D01*
X185929680Y-104057727D01*
X186037853Y-103796574D01*
X186051684Y-103727040D01*
X186568091Y-103727040D01*
X186662930Y-103991881D01*
X186807615Y-104233131D01*
X186996586Y-104441519D01*
X187222580Y-104609037D01*
X187476913Y-104729246D01*
X187610961Y-104769904D01*
X187833000Y-104647915D01*
X187833000Y-103505000D01*
X188087000Y-103505000D01*
X188087000Y-104647915D01*
X188309039Y-104769904D01*
X188443087Y-104729246D01*
X188697420Y-104609037D01*
X188923414Y-104441519D01*
X189112385Y-104233131D01*
X189257070Y-103991881D01*
X189351909Y-103727040D01*
X189230624Y-103505000D01*
X188087000Y-103505000D01*
X187833000Y-103505000D01*
X186689376Y-103505000D01*
X186568091Y-103727040D01*
X186051684Y-103727040D01*
X186093000Y-103519335D01*
X186093000Y-103236665D01*
X186056688Y-103054113D01*
X186097802Y-103012999D01*
X186573807Y-103012999D01*
X186568091Y-103028960D01*
X186689376Y-103251000D01*
X187833000Y-103251000D01*
X187833000Y-103231000D01*
X188087000Y-103231000D01*
X188087000Y-103251000D01*
X189230624Y-103251000D01*
X189351909Y-103028960D01*
X189346193Y-103012999D01*
X190822198Y-103012999D01*
X193973354Y-106164156D01*
X193957498Y-106193820D01*
X193921188Y-106313518D01*
X193908928Y-106438000D01*
X193908928Y-107938000D01*
X193921188Y-108062482D01*
X193957498Y-108182180D01*
X193970230Y-108206000D01*
X188364323Y-108206000D01*
X188326998Y-108202324D01*
X188289673Y-108206000D01*
X188289665Y-108206000D01*
X188178012Y-108216997D01*
X188034751Y-108260454D01*
X187902722Y-108331026D01*
X187786997Y-108425999D01*
X187763199Y-108454997D01*
X185918023Y-110300174D01*
X185894671Y-110256486D01*
X185650702Y-110184903D01*
X184837605Y-110998000D01*
X184851748Y-111012143D01*
X184672143Y-111191748D01*
X184658000Y-111177605D01*
X184643858Y-111191748D01*
X184464253Y-111012143D01*
X184478395Y-110998000D01*
X183665298Y-110184903D01*
X183421329Y-110256486D01*
X183300429Y-110511996D01*
X183231700Y-110786184D01*
X183217783Y-111068512D01*
X183259213Y-111348130D01*
X183264531Y-111363001D01*
X183049802Y-111363001D01*
X183008688Y-111321887D01*
X183045000Y-111139335D01*
X183045000Y-110856665D01*
X182989853Y-110579426D01*
X182881680Y-110318273D01*
X182724637Y-110083241D01*
X182646694Y-110005298D01*
X183844903Y-110005298D01*
X184658000Y-110818395D01*
X185471097Y-110005298D01*
X185399514Y-109761329D01*
X185144004Y-109640429D01*
X184869816Y-109571700D01*
X184587488Y-109557783D01*
X184307870Y-109599213D01*
X184041708Y-109694397D01*
X183916486Y-109761329D01*
X183844903Y-110005298D01*
X182646694Y-110005298D01*
X182524759Y-109883363D01*
X182289727Y-109726320D01*
X182028574Y-109618147D01*
X181751335Y-109563000D01*
X181468665Y-109563000D01*
X181286114Y-109599312D01*
X179322000Y-107635199D01*
X179322000Y-104596043D01*
X179476759Y-104492637D01*
X179676637Y-104292759D01*
X179833680Y-104057727D01*
X179941853Y-103796574D01*
X179997000Y-103519335D01*
X179997000Y-103236665D01*
X180175000Y-103236665D01*
X180175000Y-103519335D01*
X180230147Y-103796574D01*
X180338320Y-104057727D01*
X180495363Y-104292759D01*
X180695241Y-104492637D01*
X180930273Y-104649680D01*
X181191426Y-104757853D01*
X181468665Y-104813000D01*
X181751335Y-104813000D01*
X182028574Y-104757853D01*
X182289727Y-104649680D01*
X182524759Y-104492637D01*
X182724637Y-104292759D01*
X182881680Y-104057727D01*
X182989853Y-103796574D01*
X183045000Y-103519335D01*
X183045000Y-103236665D01*
X182989853Y-102959426D01*
X182881680Y-102698273D01*
X182724637Y-102463241D01*
X182524759Y-102263363D01*
X182289727Y-102106320D01*
X182028574Y-101998147D01*
X181751335Y-101943000D01*
X181468665Y-101943000D01*
X181191426Y-101998147D01*
X180930273Y-102106320D01*
X180695241Y-102263363D01*
X180495363Y-102463241D01*
X180338320Y-102698273D01*
X180230147Y-102959426D01*
X180175000Y-103236665D01*
X179997000Y-103236665D01*
X179941853Y-102959426D01*
X179833680Y-102698273D01*
X179676637Y-102463241D01*
X179476759Y-102263363D01*
X179241727Y-102106320D01*
X178980574Y-101998147D01*
X178703335Y-101943000D01*
X178420665Y-101943000D01*
X178143426Y-101998147D01*
X177882273Y-102106320D01*
X177647241Y-102263363D01*
X177447363Y-102463241D01*
X177290320Y-102698273D01*
X177182147Y-102959426D01*
X177127000Y-103236665D01*
X177127000Y-103519335D01*
X177182147Y-103796574D01*
X177223292Y-103895906D01*
X172535887Y-108583312D01*
X172353335Y-108547000D01*
X172070665Y-108547000D01*
X171888114Y-108583312D01*
X168145467Y-104840665D01*
X170777000Y-104840665D01*
X170777000Y-105123335D01*
X170832147Y-105400574D01*
X170940320Y-105661727D01*
X171097363Y-105896759D01*
X171297241Y-106096637D01*
X171532273Y-106253680D01*
X171793426Y-106361853D01*
X172070665Y-106417000D01*
X172353335Y-106417000D01*
X172630574Y-106361853D01*
X172891727Y-106253680D01*
X173126759Y-106096637D01*
X173326637Y-105896759D01*
X173483680Y-105661727D01*
X173591853Y-105400574D01*
X173647000Y-105123335D01*
X173647000Y-104840665D01*
X173591853Y-104563426D01*
X173483680Y-104302273D01*
X173326637Y-104067241D01*
X173126759Y-103867363D01*
X172891727Y-103710320D01*
X172630574Y-103602147D01*
X172353335Y-103547000D01*
X172070665Y-103547000D01*
X171793426Y-103602147D01*
X171532273Y-103710320D01*
X171297241Y-103867363D01*
X171097363Y-104067241D01*
X170940320Y-104302273D01*
X170832147Y-104563426D01*
X170777000Y-104840665D01*
X168145467Y-104840665D01*
X166425804Y-103121003D01*
X166402001Y-103091999D01*
X166286276Y-102997026D01*
X166154247Y-102926454D01*
X166010986Y-102882997D01*
X165899333Y-102872000D01*
X165899322Y-102872000D01*
X165862000Y-102868324D01*
X165824678Y-102872000D01*
X159726072Y-102872000D01*
X159726072Y-102532000D01*
X159713812Y-102407518D01*
X159677502Y-102287820D01*
X159618537Y-102177506D01*
X159539185Y-102080815D01*
X159442494Y-102001463D01*
X159332180Y-101942498D01*
X159212482Y-101906188D01*
X159088000Y-101893928D01*
X158015871Y-101893928D01*
X160838789Y-99071011D01*
X199593667Y-99071011D01*
X199630989Y-99074687D01*
X199668311Y-99071011D01*
X199668322Y-99071011D01*
X199779975Y-99060014D01*
X199923236Y-99016557D01*
X200055265Y-98945985D01*
X200170990Y-98851012D01*
X200194792Y-98822009D01*
X200876431Y-98140372D01*
X201030408Y-98171000D01*
X201305592Y-98171000D01*
X201575490Y-98117314D01*
X201829727Y-98012005D01*
X202058535Y-97859120D01*
X202253120Y-97664535D01*
X202406005Y-97435727D01*
X202511314Y-97181490D01*
X202565000Y-96911592D01*
X202565000Y-96636408D01*
X202511314Y-96366510D01*
X202406005Y-96112273D01*
X202253120Y-95883465D01*
X202058535Y-95688880D01*
X201829727Y-95535995D01*
X201575490Y-95430686D01*
X201305592Y-95377000D01*
X201030408Y-95377000D01*
X200760510Y-95430686D01*
X200506273Y-95535995D01*
X200277465Y-95688880D01*
X200082880Y-95883465D01*
X199929995Y-96112273D01*
X199824686Y-96366510D01*
X199771000Y-96636408D01*
X199771000Y-96911592D01*
X199801628Y-97065569D01*
X199316187Y-97551011D01*
X197248975Y-97551011D01*
X197326005Y-97435727D01*
X197431314Y-97181490D01*
X197485000Y-96911592D01*
X197485000Y-96636408D01*
X197431314Y-96366510D01*
X197326005Y-96112273D01*
X197173120Y-95883465D01*
X196978535Y-95688880D01*
X196749727Y-95535995D01*
X196495490Y-95430686D01*
X196225592Y-95377000D01*
X195950408Y-95377000D01*
X195680510Y-95430686D01*
X195426273Y-95535995D01*
X195197465Y-95688880D01*
X195002880Y-95883465D01*
X194849995Y-96112273D01*
X194744686Y-96366510D01*
X194691000Y-96636408D01*
X194691000Y-96911592D01*
X194744686Y-97181490D01*
X194849995Y-97435727D01*
X194927025Y-97551011D01*
X192406594Y-97551011D01*
X192408072Y-97536000D01*
X192408072Y-96012000D01*
X192395812Y-95887518D01*
X192359502Y-95767820D01*
X192300537Y-95657506D01*
X192221185Y-95560815D01*
X192124494Y-95481463D01*
X192014180Y-95422498D01*
X191894482Y-95386188D01*
X191770000Y-95373928D01*
X190246000Y-95373928D01*
X190121518Y-95386188D01*
X190001820Y-95422498D01*
X189891506Y-95481463D01*
X189794815Y-95560815D01*
X189715463Y-95657506D01*
X189656498Y-95767820D01*
X189620188Y-95887518D01*
X189607928Y-96012000D01*
X189607928Y-97536000D01*
X189609406Y-97551011D01*
X185089215Y-97551011D01*
X185090918Y-97548463D01*
X185214168Y-97250912D01*
X185277000Y-96935033D01*
X185277000Y-96612967D01*
X185214168Y-96297088D01*
X185090918Y-95999537D01*
X184911987Y-95731748D01*
X184684252Y-95504013D01*
X184416463Y-95325082D01*
X184118912Y-95201832D01*
X183803033Y-95139000D01*
X183480967Y-95139000D01*
X183165088Y-95201832D01*
X182867537Y-95325082D01*
X182599748Y-95504013D01*
X182372013Y-95731748D01*
X182193082Y-95999537D01*
X182069832Y-96297088D01*
X182007000Y-96612967D01*
X182007000Y-96935033D01*
X182069832Y-97250912D01*
X182193082Y-97548463D01*
X182194785Y-97551011D01*
X180992975Y-97551011D01*
X181070005Y-97435727D01*
X181175314Y-97181490D01*
X181229000Y-96911592D01*
X181229000Y-96636408D01*
X181175314Y-96366510D01*
X181070005Y-96112273D01*
X180917120Y-95883465D01*
X180722535Y-95688880D01*
X180493727Y-95535995D01*
X180239490Y-95430686D01*
X179969592Y-95377000D01*
X179694408Y-95377000D01*
X179424510Y-95430686D01*
X179170273Y-95535995D01*
X178941465Y-95688880D01*
X178746880Y-95883465D01*
X178593995Y-96112273D01*
X178488686Y-96366510D01*
X178435000Y-96636408D01*
X178435000Y-96911592D01*
X178488686Y-97181490D01*
X178593995Y-97435727D01*
X178671025Y-97551011D01*
X176257643Y-97551011D01*
X176465656Y-97492980D01*
X176582756Y-97243952D01*
X176649023Y-96976865D01*
X176661910Y-96701983D01*
X176620922Y-96429867D01*
X176527636Y-96170977D01*
X176465656Y-96055020D01*
X176225565Y-95988040D01*
X175439605Y-96774000D01*
X175453748Y-96788143D01*
X175274143Y-96967748D01*
X175260000Y-96953605D01*
X175245858Y-96967748D01*
X175066253Y-96788143D01*
X175080395Y-96774000D01*
X174294435Y-95988040D01*
X174054344Y-96055020D01*
X173937244Y-96304048D01*
X173870977Y-96571135D01*
X173858090Y-96846017D01*
X173899078Y-97118133D01*
X173992364Y-97377023D01*
X174054344Y-97492980D01*
X174262357Y-97551011D01*
X172897215Y-97551011D01*
X172898918Y-97548463D01*
X173022168Y-97250912D01*
X173085000Y-96935033D01*
X173085000Y-96612967D01*
X173022168Y-96297088D01*
X172898918Y-95999537D01*
X172771228Y-95808435D01*
X174474040Y-95808435D01*
X175260000Y-96594395D01*
X176045960Y-95808435D01*
X175978980Y-95568344D01*
X175729952Y-95451244D01*
X175462865Y-95384977D01*
X175187983Y-95372090D01*
X174915867Y-95413078D01*
X174656977Y-95506364D01*
X174541020Y-95568344D01*
X174474040Y-95808435D01*
X172771228Y-95808435D01*
X172719987Y-95731748D01*
X172492252Y-95504013D01*
X172224463Y-95325082D01*
X171926912Y-95201832D01*
X171611033Y-95139000D01*
X171288967Y-95139000D01*
X170973088Y-95201832D01*
X170675537Y-95325082D01*
X170407748Y-95504013D01*
X170180013Y-95731748D01*
X170001082Y-95999537D01*
X169877832Y-96297088D01*
X169815000Y-96612967D01*
X169815000Y-96935033D01*
X169877832Y-97250912D01*
X170001082Y-97548463D01*
X170002785Y-97551011D01*
X164482975Y-97551011D01*
X164560005Y-97435727D01*
X164665314Y-97181490D01*
X164719000Y-96911592D01*
X164719000Y-96636408D01*
X164665314Y-96366510D01*
X164560005Y-96112273D01*
X164407120Y-95883465D01*
X164212535Y-95688880D01*
X163983727Y-95535995D01*
X163729490Y-95430686D01*
X163459592Y-95377000D01*
X163184408Y-95377000D01*
X162914510Y-95430686D01*
X162660273Y-95535995D01*
X162431465Y-95688880D01*
X162236880Y-95883465D01*
X162083995Y-96112273D01*
X161978686Y-96366510D01*
X161925000Y-96636408D01*
X161925000Y-96911592D01*
X161978686Y-97181490D01*
X162083995Y-97435727D01*
X162161025Y-97551011D01*
X160561310Y-97551011D01*
X160523987Y-97547335D01*
X160486664Y-97551011D01*
X160486654Y-97551011D01*
X160375001Y-97562008D01*
X160231740Y-97605465D01*
X160099710Y-97676037D01*
X160022302Y-97739565D01*
X159983986Y-97771010D01*
X159960188Y-97800008D01*
X156051997Y-101708200D01*
X156022999Y-101731998D01*
X155999201Y-101760996D01*
X155999200Y-101760997D01*
X155928025Y-101847723D01*
X155857453Y-101979753D01*
X155830988Y-102066999D01*
X155819761Y-102104013D01*
X155813997Y-102123014D01*
X155799323Y-102271999D01*
X155803000Y-102309331D01*
X155802999Y-104954678D01*
X155799323Y-104992001D01*
X155802999Y-105029323D01*
X155802999Y-105029333D01*
X155813996Y-105140986D01*
X155854037Y-105272986D01*
X155857453Y-105284247D01*
X155928025Y-105416277D01*
X155946671Y-105438997D01*
X156022998Y-105532002D01*
X156052002Y-105555805D01*
X156064195Y-105567998D01*
X156087998Y-105597002D01*
X156203723Y-105691975D01*
X156335752Y-105762547D01*
X156479013Y-105806004D01*
X156590666Y-105817001D01*
X156590677Y-105817001D01*
X156627999Y-105820677D01*
X156665322Y-105817001D01*
X163005204Y-105817001D01*
X162929506Y-105857463D01*
X162832815Y-105936815D01*
X162753463Y-106033506D01*
X162694498Y-106143820D01*
X162658188Y-106263518D01*
X162645928Y-106388000D01*
X162645928Y-107988000D01*
X162658188Y-108112482D01*
X162694498Y-108232180D01*
X162753463Y-108342494D01*
X162832815Y-108439185D01*
X162929506Y-108518537D01*
X163039820Y-108577502D01*
X163159518Y-108613812D01*
X163284000Y-108626072D01*
X163429674Y-108626072D01*
X163449026Y-108662276D01*
X163502966Y-108728001D01*
X163544000Y-108778001D01*
X163572998Y-108801799D01*
X166363197Y-111591999D01*
X159689361Y-111591999D01*
X159723000Y-111422883D01*
X159723000Y-111081117D01*
X159656325Y-110745919D01*
X159525537Y-110430169D01*
X159335663Y-110146002D01*
X159093998Y-109904337D01*
X158809831Y-109714463D01*
X158494081Y-109583675D01*
X158158883Y-109517000D01*
X157817117Y-109517000D01*
X157481919Y-109583675D01*
X157420088Y-109609286D01*
X153922000Y-106111199D01*
X153922000Y-98174072D01*
X153924000Y-98174072D01*
X154048482Y-98161812D01*
X154168180Y-98125502D01*
X154278494Y-98066537D01*
X154375185Y-97987185D01*
X154454537Y-97890494D01*
X154513502Y-97780180D01*
X154549812Y-97660482D01*
X154562072Y-97536000D01*
X154562072Y-96636408D01*
X156845000Y-96636408D01*
X156845000Y-96911592D01*
X156898686Y-97181490D01*
X157003995Y-97435727D01*
X157156880Y-97664535D01*
X157351465Y-97859120D01*
X157580273Y-98012005D01*
X157834510Y-98117314D01*
X158104408Y-98171000D01*
X158379592Y-98171000D01*
X158649490Y-98117314D01*
X158903727Y-98012005D01*
X159132535Y-97859120D01*
X159327120Y-97664535D01*
X159480005Y-97435727D01*
X159585314Y-97181490D01*
X159639000Y-96911592D01*
X159639000Y-96636408D01*
X159585314Y-96366510D01*
X159480005Y-96112273D01*
X159327120Y-95883465D01*
X159132535Y-95688880D01*
X158903727Y-95535995D01*
X158649490Y-95430686D01*
X158379592Y-95377000D01*
X158104408Y-95377000D01*
X157834510Y-95430686D01*
X157580273Y-95535995D01*
X157351465Y-95688880D01*
X157156880Y-95883465D01*
X157003995Y-96112273D01*
X156898686Y-96366510D01*
X156845000Y-96636408D01*
X154562072Y-96636408D01*
X154562072Y-96012000D01*
X154549812Y-95887518D01*
X154513502Y-95767820D01*
X154454537Y-95657506D01*
X154375185Y-95560815D01*
X154278494Y-95481463D01*
X154168180Y-95422498D01*
X154048482Y-95386188D01*
X153924000Y-95373928D01*
X152400000Y-95373928D01*
X152275518Y-95386188D01*
X152155820Y-95422498D01*
X152045506Y-95481463D01*
X151948815Y-95560815D01*
X151869463Y-95657506D01*
X151810498Y-95767820D01*
X151774188Y-95887518D01*
X151761928Y-96012000D01*
X151761928Y-97536000D01*
X151774188Y-97660482D01*
X151810498Y-97780180D01*
X151869463Y-97890494D01*
X151948815Y-97987185D01*
X152045506Y-98066537D01*
X152155820Y-98125502D01*
X152275518Y-98161812D01*
X152400000Y-98174072D01*
X152402000Y-98174072D01*
X152402001Y-106388668D01*
X152398324Y-106426000D01*
X152412998Y-106574985D01*
X152456454Y-106718246D01*
X152527026Y-106850276D01*
X152598201Y-106937002D01*
X152622000Y-106966001D01*
X152650998Y-106989799D01*
X156345286Y-110684088D01*
X156319675Y-110745919D01*
X156253000Y-111081117D01*
X156253000Y-111422883D01*
X156319675Y-111758081D01*
X156450463Y-112073831D01*
X156640337Y-112357998D01*
X156882002Y-112599663D01*
X157166169Y-112789537D01*
X157481919Y-112920325D01*
X157817117Y-112987000D01*
X158158883Y-112987000D01*
X158494081Y-112920325D01*
X158552850Y-112895982D01*
X158576996Y-112915798D01*
X158663723Y-112986973D01*
X158795752Y-113057545D01*
X158939013Y-113101002D01*
X159087999Y-113115676D01*
X159125332Y-113111999D01*
X172164200Y-113111999D01*
X175397263Y-116345063D01*
X175247537Y-116407082D01*
X174979748Y-116586013D01*
X174752013Y-116813748D01*
X174573082Y-117081537D01*
X174449832Y-117379088D01*
X174387000Y-117694967D01*
X174387000Y-118017033D01*
X174449832Y-118332912D01*
X174573082Y-118630463D01*
X174752013Y-118898252D01*
X174979748Y-119125987D01*
X175132421Y-119228000D01*
X173355579Y-119228000D01*
X173508252Y-119125987D01*
X173735987Y-118898252D01*
X173914918Y-118630463D01*
X174038168Y-118332912D01*
X174101000Y-118017033D01*
X174101000Y-117694967D01*
X174038168Y-117379088D01*
X173914918Y-117081537D01*
X173735987Y-116813748D01*
X173508252Y-116586013D01*
X173240463Y-116407082D01*
X172942912Y-116283832D01*
X172627033Y-116221000D01*
X172304967Y-116221000D01*
X171989088Y-116283832D01*
X171691537Y-116407082D01*
X171423748Y-116586013D01*
X171196013Y-116813748D01*
X171017082Y-117081537D01*
X170893832Y-117379088D01*
X170831000Y-117694967D01*
X170831000Y-118017033D01*
X170893832Y-118332912D01*
X171017082Y-118630463D01*
X171196013Y-118898252D01*
X171423748Y-119125987D01*
X171576421Y-119228000D01*
X147980000Y-119228000D01*
X147980000Y-94640000D01*
X207112000Y-94640000D01*
X207112001Y-119228000D01*
G37*
X207112001Y-119228000D02*
X195317803Y-119228000D01*
X198123003Y-116422801D01*
X198152001Y-116399003D01*
X198196321Y-116344999D01*
X198246974Y-116283279D01*
X198317546Y-116151249D01*
X198331052Y-116106724D01*
X198361003Y-116007988D01*
X198372000Y-115896335D01*
X198372000Y-115896326D01*
X198375676Y-115859003D01*
X198372000Y-115821680D01*
X198372000Y-108289909D01*
X198436212Y-108237212D01*
X198581171Y-108060579D01*
X198688885Y-107859059D01*
X198755215Y-107640399D01*
X198772000Y-107469978D01*
X198772000Y-106906021D01*
X198755215Y-106735600D01*
X198688885Y-106516940D01*
X198581171Y-106315421D01*
X198436212Y-106138788D01*
X198259578Y-105993829D01*
X198058059Y-105886115D01*
X197839399Y-105819785D01*
X197612000Y-105797388D01*
X197384600Y-105819785D01*
X197165940Y-105886115D01*
X196977000Y-105987106D01*
X196788059Y-105886115D01*
X196569399Y-105819785D01*
X196342000Y-105797388D01*
X196114600Y-105819785D01*
X195905902Y-105883093D01*
X195841180Y-105848498D01*
X195735084Y-105816314D01*
X195706974Y-105763724D01*
X195612001Y-105647999D01*
X195583003Y-105624201D01*
X191700803Y-101742002D01*
X191677000Y-101712998D01*
X191561275Y-101618025D01*
X191429246Y-101547453D01*
X191285985Y-101503996D01*
X191174332Y-101492999D01*
X191174321Y-101492999D01*
X191136999Y-101489323D01*
X191099677Y-101492999D01*
X185820323Y-101492999D01*
X185783000Y-101489323D01*
X185745677Y-101492999D01*
X185745668Y-101492999D01*
X185634015Y-101503996D01*
X185490754Y-101547453D01*
X185358725Y-101618025D01*
X185243000Y-101712998D01*
X185219197Y-101742002D01*
X184981887Y-101979312D01*
X184799335Y-101943000D01*
X184516665Y-101943000D01*
X184239426Y-101998147D01*
X183978273Y-102106320D01*
X183743241Y-102263363D01*
X183543363Y-102463241D01*
X183386320Y-102698273D01*
X183278147Y-102959426D01*
X183223000Y-103236665D01*
X183223000Y-103519335D01*
X183278147Y-103796574D01*
X183386320Y-104057727D01*
X183543363Y-104292759D01*
X183743241Y-104492637D01*
X183978273Y-104649680D01*
X184239426Y-104757853D01*
X184516665Y-104813000D01*
X184799335Y-104813000D01*
X185076574Y-104757853D01*
X185337727Y-104649680D01*
X185572759Y-104492637D01*
X185772637Y-104292759D01*
X185929680Y-104057727D01*
X186037853Y-103796574D01*
X186051684Y-103727040D01*
X186568091Y-103727040D01*
X186662930Y-103991881D01*
X186807615Y-104233131D01*
X186996586Y-104441519D01*
X187222580Y-104609037D01*
X187476913Y-104729246D01*
X187610961Y-104769904D01*
X187833000Y-104647915D01*
X187833000Y-103505000D01*
X188087000Y-103505000D01*
X188087000Y-104647915D01*
X188309039Y-104769904D01*
X188443087Y-104729246D01*
X188697420Y-104609037D01*
X188923414Y-104441519D01*
X189112385Y-104233131D01*
X189257070Y-103991881D01*
X189351909Y-103727040D01*
X189230624Y-103505000D01*
X188087000Y-103505000D01*
X187833000Y-103505000D01*
X186689376Y-103505000D01*
X186568091Y-103727040D01*
X186051684Y-103727040D01*
X186093000Y-103519335D01*
X186093000Y-103236665D01*
X186056688Y-103054113D01*
X186097802Y-103012999D01*
X186573807Y-103012999D01*
X186568091Y-103028960D01*
X186689376Y-103251000D01*
X187833000Y-103251000D01*
X187833000Y-103231000D01*
X188087000Y-103231000D01*
X188087000Y-103251000D01*
X189230624Y-103251000D01*
X189351909Y-103028960D01*
X189346193Y-103012999D01*
X190822198Y-103012999D01*
X193973354Y-106164156D01*
X193957498Y-106193820D01*
X193921188Y-106313518D01*
X193908928Y-106438000D01*
X193908928Y-107938000D01*
X193921188Y-108062482D01*
X193957498Y-108182180D01*
X193970230Y-108206000D01*
X188364323Y-108206000D01*
X188326998Y-108202324D01*
X188289673Y-108206000D01*
X188289665Y-108206000D01*
X188178012Y-108216997D01*
X188034751Y-108260454D01*
X187902722Y-108331026D01*
X187786997Y-108425999D01*
X187763199Y-108454997D01*
X185918023Y-110300174D01*
X185894671Y-110256486D01*
X185650702Y-110184903D01*
X184837605Y-110998000D01*
X184851748Y-111012143D01*
X184672143Y-111191748D01*
X184658000Y-111177605D01*
X184643858Y-111191748D01*
X184464253Y-111012143D01*
X184478395Y-110998000D01*
X183665298Y-110184903D01*
X183421329Y-110256486D01*
X183300429Y-110511996D01*
X183231700Y-110786184D01*
X183217783Y-111068512D01*
X183259213Y-111348130D01*
X183264531Y-111363001D01*
X183049802Y-111363001D01*
X183008688Y-111321887D01*
X183045000Y-111139335D01*
X183045000Y-110856665D01*
X182989853Y-110579426D01*
X182881680Y-110318273D01*
X182724637Y-110083241D01*
X182646694Y-110005298D01*
X183844903Y-110005298D01*
X184658000Y-110818395D01*
X185471097Y-110005298D01*
X185399514Y-109761329D01*
X185144004Y-109640429D01*
X184869816Y-109571700D01*
X184587488Y-109557783D01*
X184307870Y-109599213D01*
X184041708Y-109694397D01*
X183916486Y-109761329D01*
X183844903Y-110005298D01*
X182646694Y-110005298D01*
X182524759Y-109883363D01*
X182289727Y-109726320D01*
X182028574Y-109618147D01*
X181751335Y-109563000D01*
X181468665Y-109563000D01*
X181286114Y-109599312D01*
X179322000Y-107635199D01*
X179322000Y-104596043D01*
X179476759Y-104492637D01*
X179676637Y-104292759D01*
X179833680Y-104057727D01*
X179941853Y-103796574D01*
X179997000Y-103519335D01*
X179997000Y-103236665D01*
X180175000Y-103236665D01*
X180175000Y-103519335D01*
X180230147Y-103796574D01*
X180338320Y-104057727D01*
X180495363Y-104292759D01*
X180695241Y-104492637D01*
X180930273Y-104649680D01*
X181191426Y-104757853D01*
X181468665Y-104813000D01*
X181751335Y-104813000D01*
X182028574Y-104757853D01*
X182289727Y-104649680D01*
X182524759Y-104492637D01*
X182724637Y-104292759D01*
X182881680Y-104057727D01*
X182989853Y-103796574D01*
X183045000Y-103519335D01*
X183045000Y-103236665D01*
X182989853Y-102959426D01*
X182881680Y-102698273D01*
X182724637Y-102463241D01*
X182524759Y-102263363D01*
X182289727Y-102106320D01*
X182028574Y-101998147D01*
X181751335Y-101943000D01*
X181468665Y-101943000D01*
X181191426Y-101998147D01*
X180930273Y-102106320D01*
X180695241Y-102263363D01*
X180495363Y-102463241D01*
X180338320Y-102698273D01*
X180230147Y-102959426D01*
X180175000Y-103236665D01*
X179997000Y-103236665D01*
X179941853Y-102959426D01*
X179833680Y-102698273D01*
X179676637Y-102463241D01*
X179476759Y-102263363D01*
X179241727Y-102106320D01*
X178980574Y-101998147D01*
X178703335Y-101943000D01*
X178420665Y-101943000D01*
X178143426Y-101998147D01*
X177882273Y-102106320D01*
X177647241Y-102263363D01*
X177447363Y-102463241D01*
X177290320Y-102698273D01*
X177182147Y-102959426D01*
X177127000Y-103236665D01*
X177127000Y-103519335D01*
X177182147Y-103796574D01*
X177223292Y-103895906D01*
X172535887Y-108583312D01*
X172353335Y-108547000D01*
X172070665Y-108547000D01*
X171888114Y-108583312D01*
X168145467Y-104840665D01*
X170777000Y-104840665D01*
X170777000Y-105123335D01*
X170832147Y-105400574D01*
X170940320Y-105661727D01*
X171097363Y-105896759D01*
X171297241Y-106096637D01*
X171532273Y-106253680D01*
X171793426Y-106361853D01*
X172070665Y-106417000D01*
X172353335Y-106417000D01*
X172630574Y-106361853D01*
X172891727Y-106253680D01*
X173126759Y-106096637D01*
X173326637Y-105896759D01*
X173483680Y-105661727D01*
X173591853Y-105400574D01*
X173647000Y-105123335D01*
X173647000Y-104840665D01*
X173591853Y-104563426D01*
X173483680Y-104302273D01*
X173326637Y-104067241D01*
X173126759Y-103867363D01*
X172891727Y-103710320D01*
X172630574Y-103602147D01*
X172353335Y-103547000D01*
X172070665Y-103547000D01*
X171793426Y-103602147D01*
X171532273Y-103710320D01*
X171297241Y-103867363D01*
X171097363Y-104067241D01*
X170940320Y-104302273D01*
X170832147Y-104563426D01*
X170777000Y-104840665D01*
X168145467Y-104840665D01*
X166425804Y-103121003D01*
X166402001Y-103091999D01*
X166286276Y-102997026D01*
X166154247Y-102926454D01*
X166010986Y-102882997D01*
X165899333Y-102872000D01*
X165899322Y-102872000D01*
X165862000Y-102868324D01*
X165824678Y-102872000D01*
X159726072Y-102872000D01*
X159726072Y-102532000D01*
X159713812Y-102407518D01*
X159677502Y-102287820D01*
X159618537Y-102177506D01*
X159539185Y-102080815D01*
X159442494Y-102001463D01*
X159332180Y-101942498D01*
X159212482Y-101906188D01*
X159088000Y-101893928D01*
X158015871Y-101893928D01*
X160838789Y-99071011D01*
X199593667Y-99071011D01*
X199630989Y-99074687D01*
X199668311Y-99071011D01*
X199668322Y-99071011D01*
X199779975Y-99060014D01*
X199923236Y-99016557D01*
X200055265Y-98945985D01*
X200170990Y-98851012D01*
X200194792Y-98822009D01*
X200876431Y-98140372D01*
X201030408Y-98171000D01*
X201305592Y-98171000D01*
X201575490Y-98117314D01*
X201829727Y-98012005D01*
X202058535Y-97859120D01*
X202253120Y-97664535D01*
X202406005Y-97435727D01*
X202511314Y-97181490D01*
X202565000Y-96911592D01*
X202565000Y-96636408D01*
X202511314Y-96366510D01*
X202406005Y-96112273D01*
X202253120Y-95883465D01*
X202058535Y-95688880D01*
X201829727Y-95535995D01*
X201575490Y-95430686D01*
X201305592Y-95377000D01*
X201030408Y-95377000D01*
X200760510Y-95430686D01*
X200506273Y-95535995D01*
X200277465Y-95688880D01*
X200082880Y-95883465D01*
X199929995Y-96112273D01*
X199824686Y-96366510D01*
X199771000Y-96636408D01*
X199771000Y-96911592D01*
X199801628Y-97065569D01*
X199316187Y-97551011D01*
X197248975Y-97551011D01*
X197326005Y-97435727D01*
X197431314Y-97181490D01*
X197485000Y-96911592D01*
X197485000Y-96636408D01*
X197431314Y-96366510D01*
X197326005Y-96112273D01*
X197173120Y-95883465D01*
X196978535Y-95688880D01*
X196749727Y-95535995D01*
X196495490Y-95430686D01*
X196225592Y-95377000D01*
X195950408Y-95377000D01*
X195680510Y-95430686D01*
X195426273Y-95535995D01*
X195197465Y-95688880D01*
X195002880Y-95883465D01*
X194849995Y-96112273D01*
X194744686Y-96366510D01*
X194691000Y-96636408D01*
X194691000Y-96911592D01*
X194744686Y-97181490D01*
X194849995Y-97435727D01*
X194927025Y-97551011D01*
X192406594Y-97551011D01*
X192408072Y-97536000D01*
X192408072Y-96012000D01*
X192395812Y-95887518D01*
X192359502Y-95767820D01*
X192300537Y-95657506D01*
X192221185Y-95560815D01*
X192124494Y-95481463D01*
X192014180Y-95422498D01*
X191894482Y-95386188D01*
X191770000Y-95373928D01*
X190246000Y-95373928D01*
X190121518Y-95386188D01*
X190001820Y-95422498D01*
X189891506Y-95481463D01*
X189794815Y-95560815D01*
X189715463Y-95657506D01*
X189656498Y-95767820D01*
X189620188Y-95887518D01*
X189607928Y-96012000D01*
X189607928Y-97536000D01*
X189609406Y-97551011D01*
X185089215Y-97551011D01*
X185090918Y-97548463D01*
X185214168Y-97250912D01*
X185277000Y-96935033D01*
X185277000Y-96612967D01*
X185214168Y-96297088D01*
X185090918Y-95999537D01*
X184911987Y-95731748D01*
X184684252Y-95504013D01*
X184416463Y-95325082D01*
X184118912Y-95201832D01*
X183803033Y-95139000D01*
X183480967Y-95139000D01*
X183165088Y-95201832D01*
X182867537Y-95325082D01*
X182599748Y-95504013D01*
X182372013Y-95731748D01*
X182193082Y-95999537D01*
X182069832Y-96297088D01*
X182007000Y-96612967D01*
X182007000Y-96935033D01*
X182069832Y-97250912D01*
X182193082Y-97548463D01*
X182194785Y-97551011D01*
X180992975Y-97551011D01*
X181070005Y-97435727D01*
X181175314Y-97181490D01*
X181229000Y-96911592D01*
X181229000Y-96636408D01*
X181175314Y-96366510D01*
X181070005Y-96112273D01*
X180917120Y-95883465D01*
X180722535Y-95688880D01*
X180493727Y-95535995D01*
X180239490Y-95430686D01*
X179969592Y-95377000D01*
X179694408Y-95377000D01*
X179424510Y-95430686D01*
X179170273Y-95535995D01*
X178941465Y-95688880D01*
X178746880Y-95883465D01*
X178593995Y-96112273D01*
X178488686Y-96366510D01*
X178435000Y-96636408D01*
X178435000Y-96911592D01*
X178488686Y-97181490D01*
X178593995Y-97435727D01*
X178671025Y-97551011D01*
X176257643Y-97551011D01*
X176465656Y-97492980D01*
X176582756Y-97243952D01*
X176649023Y-96976865D01*
X176661910Y-96701983D01*
X176620922Y-96429867D01*
X176527636Y-96170977D01*
X176465656Y-96055020D01*
X176225565Y-95988040D01*
X175439605Y-96774000D01*
X175453748Y-96788143D01*
X175274143Y-96967748D01*
X175260000Y-96953605D01*
X175245858Y-96967748D01*
X175066253Y-96788143D01*
X175080395Y-96774000D01*
X174294435Y-95988040D01*
X174054344Y-96055020D01*
X173937244Y-96304048D01*
X173870977Y-96571135D01*
X173858090Y-96846017D01*
X173899078Y-97118133D01*
X173992364Y-97377023D01*
X174054344Y-97492980D01*
X174262357Y-97551011D01*
X172897215Y-97551011D01*
X172898918Y-97548463D01*
X173022168Y-97250912D01*
X173085000Y-96935033D01*
X173085000Y-96612967D01*
X173022168Y-96297088D01*
X172898918Y-95999537D01*
X172771228Y-95808435D01*
X174474040Y-95808435D01*
X175260000Y-96594395D01*
X176045960Y-95808435D01*
X175978980Y-95568344D01*
X175729952Y-95451244D01*
X175462865Y-95384977D01*
X175187983Y-95372090D01*
X174915867Y-95413078D01*
X174656977Y-95506364D01*
X174541020Y-95568344D01*
X174474040Y-95808435D01*
X172771228Y-95808435D01*
X172719987Y-95731748D01*
X172492252Y-95504013D01*
X172224463Y-95325082D01*
X171926912Y-95201832D01*
X171611033Y-95139000D01*
X171288967Y-95139000D01*
X170973088Y-95201832D01*
X170675537Y-95325082D01*
X170407748Y-95504013D01*
X170180013Y-95731748D01*
X170001082Y-95999537D01*
X169877832Y-96297088D01*
X169815000Y-96612967D01*
X169815000Y-96935033D01*
X169877832Y-97250912D01*
X170001082Y-97548463D01*
X170002785Y-97551011D01*
X164482975Y-97551011D01*
X164560005Y-97435727D01*
X164665314Y-97181490D01*
X164719000Y-96911592D01*
X164719000Y-96636408D01*
X164665314Y-96366510D01*
X164560005Y-96112273D01*
X164407120Y-95883465D01*
X164212535Y-95688880D01*
X163983727Y-95535995D01*
X163729490Y-95430686D01*
X163459592Y-95377000D01*
X163184408Y-95377000D01*
X162914510Y-95430686D01*
X162660273Y-95535995D01*
X162431465Y-95688880D01*
X162236880Y-95883465D01*
X162083995Y-96112273D01*
X161978686Y-96366510D01*
X161925000Y-96636408D01*
X161925000Y-96911592D01*
X161978686Y-97181490D01*
X162083995Y-97435727D01*
X162161025Y-97551011D01*
X160561310Y-97551011D01*
X160523987Y-97547335D01*
X160486664Y-97551011D01*
X160486654Y-97551011D01*
X160375001Y-97562008D01*
X160231740Y-97605465D01*
X160099710Y-97676037D01*
X160022302Y-97739565D01*
X159983986Y-97771010D01*
X159960188Y-97800008D01*
X156051997Y-101708200D01*
X156022999Y-101731998D01*
X155999201Y-101760996D01*
X155999200Y-101760997D01*
X155928025Y-101847723D01*
X155857453Y-101979753D01*
X155830988Y-102066999D01*
X155819761Y-102104013D01*
X155813997Y-102123014D01*
X155799323Y-102271999D01*
X155803000Y-102309331D01*
X155802999Y-104954678D01*
X155799323Y-104992001D01*
X155802999Y-105029323D01*
X155802999Y-105029333D01*
X155813996Y-105140986D01*
X155854037Y-105272986D01*
X155857453Y-105284247D01*
X155928025Y-105416277D01*
X155946671Y-105438997D01*
X156022998Y-105532002D01*
X156052002Y-105555805D01*
X156064195Y-105567998D01*
X156087998Y-105597002D01*
X156203723Y-105691975D01*
X156335752Y-105762547D01*
X156479013Y-105806004D01*
X156590666Y-105817001D01*
X156590677Y-105817001D01*
X156627999Y-105820677D01*
X156665322Y-105817001D01*
X163005204Y-105817001D01*
X162929506Y-105857463D01*
X162832815Y-105936815D01*
X162753463Y-106033506D01*
X162694498Y-106143820D01*
X162658188Y-106263518D01*
X162645928Y-106388000D01*
X162645928Y-107988000D01*
X162658188Y-108112482D01*
X162694498Y-108232180D01*
X162753463Y-108342494D01*
X162832815Y-108439185D01*
X162929506Y-108518537D01*
X163039820Y-108577502D01*
X163159518Y-108613812D01*
X163284000Y-108626072D01*
X163429674Y-108626072D01*
X163449026Y-108662276D01*
X163502966Y-108728001D01*
X163544000Y-108778001D01*
X163572998Y-108801799D01*
X166363197Y-111591999D01*
X159689361Y-111591999D01*
X159723000Y-111422883D01*
X159723000Y-111081117D01*
X159656325Y-110745919D01*
X159525537Y-110430169D01*
X159335663Y-110146002D01*
X159093998Y-109904337D01*
X158809831Y-109714463D01*
X158494081Y-109583675D01*
X158158883Y-109517000D01*
X157817117Y-109517000D01*
X157481919Y-109583675D01*
X157420088Y-109609286D01*
X153922000Y-106111199D01*
X153922000Y-98174072D01*
X153924000Y-98174072D01*
X154048482Y-98161812D01*
X154168180Y-98125502D01*
X154278494Y-98066537D01*
X154375185Y-97987185D01*
X154454537Y-97890494D01*
X154513502Y-97780180D01*
X154549812Y-97660482D01*
X154562072Y-97536000D01*
X154562072Y-96636408D01*
X156845000Y-96636408D01*
X156845000Y-96911592D01*
X156898686Y-97181490D01*
X157003995Y-97435727D01*
X157156880Y-97664535D01*
X157351465Y-97859120D01*
X157580273Y-98012005D01*
X157834510Y-98117314D01*
X158104408Y-98171000D01*
X158379592Y-98171000D01*
X158649490Y-98117314D01*
X158903727Y-98012005D01*
X159132535Y-97859120D01*
X159327120Y-97664535D01*
X159480005Y-97435727D01*
X159585314Y-97181490D01*
X159639000Y-96911592D01*
X159639000Y-96636408D01*
X159585314Y-96366510D01*
X159480005Y-96112273D01*
X159327120Y-95883465D01*
X159132535Y-95688880D01*
X158903727Y-95535995D01*
X158649490Y-95430686D01*
X158379592Y-95377000D01*
X158104408Y-95377000D01*
X157834510Y-95430686D01*
X157580273Y-95535995D01*
X157351465Y-95688880D01*
X157156880Y-95883465D01*
X157003995Y-96112273D01*
X156898686Y-96366510D01*
X156845000Y-96636408D01*
X154562072Y-96636408D01*
X154562072Y-96012000D01*
X154549812Y-95887518D01*
X154513502Y-95767820D01*
X154454537Y-95657506D01*
X154375185Y-95560815D01*
X154278494Y-95481463D01*
X154168180Y-95422498D01*
X154048482Y-95386188D01*
X153924000Y-95373928D01*
X152400000Y-95373928D01*
X152275518Y-95386188D01*
X152155820Y-95422498D01*
X152045506Y-95481463D01*
X151948815Y-95560815D01*
X151869463Y-95657506D01*
X151810498Y-95767820D01*
X151774188Y-95887518D01*
X151761928Y-96012000D01*
X151761928Y-97536000D01*
X151774188Y-97660482D01*
X151810498Y-97780180D01*
X151869463Y-97890494D01*
X151948815Y-97987185D01*
X152045506Y-98066537D01*
X152155820Y-98125502D01*
X152275518Y-98161812D01*
X152400000Y-98174072D01*
X152402000Y-98174072D01*
X152402001Y-106388668D01*
X152398324Y-106426000D01*
X152412998Y-106574985D01*
X152456454Y-106718246D01*
X152527026Y-106850276D01*
X152598201Y-106937002D01*
X152622000Y-106966001D01*
X152650998Y-106989799D01*
X156345286Y-110684088D01*
X156319675Y-110745919D01*
X156253000Y-111081117D01*
X156253000Y-111422883D01*
X156319675Y-111758081D01*
X156450463Y-112073831D01*
X156640337Y-112357998D01*
X156882002Y-112599663D01*
X157166169Y-112789537D01*
X157481919Y-112920325D01*
X157817117Y-112987000D01*
X158158883Y-112987000D01*
X158494081Y-112920325D01*
X158552850Y-112895982D01*
X158576996Y-112915798D01*
X158663723Y-112986973D01*
X158795752Y-113057545D01*
X158939013Y-113101002D01*
X159087999Y-113115676D01*
X159125332Y-113111999D01*
X172164200Y-113111999D01*
X175397263Y-116345063D01*
X175247537Y-116407082D01*
X174979748Y-116586013D01*
X174752013Y-116813748D01*
X174573082Y-117081537D01*
X174449832Y-117379088D01*
X174387000Y-117694967D01*
X174387000Y-118017033D01*
X174449832Y-118332912D01*
X174573082Y-118630463D01*
X174752013Y-118898252D01*
X174979748Y-119125987D01*
X175132421Y-119228000D01*
X173355579Y-119228000D01*
X173508252Y-119125987D01*
X173735987Y-118898252D01*
X173914918Y-118630463D01*
X174038168Y-118332912D01*
X174101000Y-118017033D01*
X174101000Y-117694967D01*
X174038168Y-117379088D01*
X173914918Y-117081537D01*
X173735987Y-116813748D01*
X173508252Y-116586013D01*
X173240463Y-116407082D01*
X172942912Y-116283832D01*
X172627033Y-116221000D01*
X172304967Y-116221000D01*
X171989088Y-116283832D01*
X171691537Y-116407082D01*
X171423748Y-116586013D01*
X171196013Y-116813748D01*
X171017082Y-117081537D01*
X170893832Y-117379088D01*
X170831000Y-117694967D01*
X170831000Y-118017033D01*
X170893832Y-118332912D01*
X171017082Y-118630463D01*
X171196013Y-118898252D01*
X171423748Y-119125987D01*
X171576421Y-119228000D01*
X147980000Y-119228000D01*
X147980000Y-94640000D01*
X207112000Y-94640000D01*
X207112001Y-119228000D01*
M02*
