M48
; DRILL file {KiCad (5.1.5-0-10_14)} date Sunday, May 24, 2020 at 08:26:28 PM
; FORMAT={-:-/ absolute / inch / decimal}
; #@! TF.CreationDate,2020-05-24T20:26:28-06:00
; #@! TF.GenerationSoftware,Kicad,Pcbnew,(5.1.5-0-10_14)
; #@! TF.FileFunction,Plated,1,2,PTH
FMAT,2
INCH
T1C0.0295
T2C0.0300
T3C0.0315
T4C0.0354
T5C0.0394
T6C0.0433
%
G90
G05
T1
X6.46Y-4.23
X6.51Y-4.23
X6.56Y-4.23
T2
X6.9Y-3.81
X7.08Y-3.81
T3
X7.03Y-4.07
X7.03Y-4.37
X7.27Y-4.07
X7.27Y-4.37
X7.69Y-4.21
X7.7687Y-4.21
X7.15Y-4.07
X7.15Y-4.37
X7.39Y-4.07
X7.39Y-4.37
X6.78Y-4.1331
X6.78Y-4.33
T4
X7.57Y-4.6
X7.67Y-4.6
T5
X7.23Y-3.81
X6.79Y-4.64
X7.21Y-4.64
X7.53Y-3.81
X7.73Y-3.81
X7.93Y-3.81
X6.75Y-3.81
X7.07Y-4.64
X6.93Y-4.64
X6.08Y-3.8
X6.28Y-3.8
X6.48Y-3.8
T6
X6.22Y-4.08
X6.22Y-4.38
T0
M30
